<svg xmlns="http://www.w3.org/2000/svg" xmlns:xlink="http://www.w3.org/1999/xlink" width="500" zoomAndPan="magnify" viewBox="0 0 375 374.999991" height="500" preserveAspectRatio="xMidYMid meet" version="1.0"><defs><clipPath id="529c3ec26c"><path d="M 187.5 0 C 83.945312 0 0 83.945312 0 187.5 C 0 291.054688 83.945312 375 187.5 375 C 291.054688 375 375 291.054688 375 187.5 C 375 83.945312 291.054688 0 187.5 0 Z M 187.5 0 " clip-rule="nonzero"/></clipPath><clipPath id="0081dd2176"><path d="M 84.316406 84.316406 L 290.566406 84.316406 L 290.566406 290.566406 L 84.316406 290.566406 Z M 84.316406 84.316406 " clip-rule="nonzero"/></clipPath></defs><g clip-path="url(#529c3ec26c)"><rect x="-37.5" width="450" fill="#e28100" y="-37.499999" height="449.999989" fill-opacity="1"/></g><g clip-path="url(#0081dd2176)"><path fill="#ffffff" d="M 280.363281 173.742188 L 280.363281 94.632812 C 280.363281 93.957031 280.296875 93.285156 280.164062 92.621094 C 280.035156 91.957031 279.835938 91.3125 279.578125 90.683594 C 279.320312 90.058594 279 89.464844 278.625 88.902344 C 278.25 88.335938 277.820312 87.816406 277.339844 87.335938 C 276.863281 86.859375 276.339844 86.429688 275.777344 86.054688 C 275.214844 85.675781 274.621094 85.359375 273.992188 85.101562 C 273.367188 84.839844 272.722656 84.644531 272.058594 84.511719 C 271.394531 84.382812 270.722656 84.316406 270.046875 84.316406 L 184.058594 84.316406 C 183.382812 84.316406 182.710938 84.382812 182.046875 84.511719 C 181.382812 84.644531 180.738281 84.839844 180.109375 85.101562 C 179.484375 85.359375 178.890625 85.675781 178.328125 86.054688 C 177.761719 86.429688 177.242188 86.859375 176.761719 87.335938 C 176.285156 87.816406 175.855469 88.335938 175.480469 88.902344 C 175.101562 89.464844 174.785156 90.058594 174.527344 90.683594 C 174.265625 91.3125 174.070312 91.957031 173.9375 92.621094 C 173.808594 93.285156 173.742188 93.957031 173.742188 94.632812 L 104.953125 94.632812 C 104.273438 94.632812 103.601562 94.699219 102.9375 94.832031 C 102.273438 94.964844 101.628906 95.160156 101.003906 95.417969 C 100.378906 95.679688 99.78125 95.996094 99.21875 96.371094 C 98.65625 96.75 98.132812 97.175781 97.65625 97.65625 C 97.175781 98.132812 96.75 98.65625 96.371094 99.21875 C 95.996094 99.78125 95.679688 100.378906 95.417969 101.003906 C 95.160156 101.628906 94.964844 102.273438 94.832031 102.9375 C 94.699219 103.601562 94.632812 104.273438 94.632812 104.953125 L 94.632812 149.664062 C 93.957031 149.664062 93.285156 149.730469 92.621094 149.863281 C 91.957031 149.996094 91.3125 150.191406 90.683594 150.449219 C 90.058594 150.710938 89.464844 151.027344 88.902344 151.402344 C 88.335938 151.78125 87.816406 152.207031 87.335938 152.6875 C 86.859375 153.164062 86.429688 153.6875 86.054688 154.25 C 85.675781 154.8125 85.359375 155.410156 85.101562 156.035156 C 84.839844 156.660156 84.644531 157.304688 84.511719 157.96875 C 84.382812 158.632812 84.316406 159.304688 84.316406 159.984375 L 84.316406 280.363281 C 84.316406 281.042969 84.382812 281.710938 84.511719 282.375 C 84.644531 283.042969 84.839844 283.6875 85.101562 284.3125 C 85.359375 284.9375 85.675781 285.53125 86.054688 286.097656 C 86.429688 286.660156 86.859375 287.179688 87.335938 287.660156 C 87.816406 288.140625 88.335938 288.566406 88.902344 288.941406 C 89.464844 289.320312 90.058594 289.636719 90.683594 289.898438 C 91.3125 290.15625 91.957031 290.351562 92.621094 290.484375 C 93.285156 290.617188 93.957031 290.683594 94.632812 290.683594 L 280.363281 290.683594 C 281.042969 290.683594 281.710938 290.617188 282.375 290.484375 C 283.042969 290.351562 283.6875 290.15625 284.3125 289.898438 C 284.9375 289.636719 285.53125 289.320312 286.097656 288.941406 C 286.660156 288.566406 287.179688 288.140625 287.660156 287.660156 C 288.140625 287.179688 288.566406 286.660156 288.941406 286.097656 C 289.320312 285.53125 289.636719 284.9375 289.898438 284.3125 C 290.15625 283.6875 290.351562 283.042969 290.484375 282.375 C 290.617188 281.710938 290.683594 281.042969 290.683594 280.363281 L 290.683594 184.058594 C 290.683594 183.382812 290.617188 182.710938 290.484375 182.046875 C 290.351562 181.382812 290.15625 180.738281 289.898438 180.109375 C 289.636719 179.484375 289.320312 178.890625 288.941406 178.328125 C 288.566406 177.761719 288.140625 177.242188 287.660156 176.761719 C 287.179688 176.285156 286.660156 175.855469 286.097656 175.480469 C 285.53125 175.101562 284.9375 174.785156 284.3125 174.527344 C 283.6875 174.265625 283.042969 174.070312 282.375 173.9375 C 281.710938 173.808594 281.042969 173.742188 280.363281 173.742188 Z M 101.511719 104.953125 C 101.511719 104.496094 101.597656 104.058594 101.773438 103.636719 C 101.949219 103.214844 102.195312 102.84375 102.519531 102.519531 C 102.84375 102.195312 103.214844 101.949219 103.636719 101.773438 C 104.058594 101.597656 104.496094 101.511719 104.953125 101.511719 L 173.742188 101.511719 L 173.742188 108.390625 L 142.785156 108.390625 C 142.109375 108.390625 141.4375 108.457031 140.773438 108.589844 C 140.109375 108.722656 139.464844 108.917969 138.835938 109.175781 C 138.210938 109.4375 137.617188 109.753906 137.054688 110.128906 C 136.488281 110.507812 135.96875 110.933594 135.488281 111.414062 C 135.011719 111.890625 134.582031 112.414062 134.207031 112.976562 C 133.828125 113.539062 133.511719 114.136719 133.253906 114.761719 C 132.992188 115.386719 132.796875 116.03125 132.664062 116.695312 C 132.535156 117.359375 132.46875 118.03125 132.46875 118.710938 L 132.46875 149.664062 L 101.511719 149.664062 Z M 139.347656 170.300781 C 139.347656 170.757812 139.257812 171.195312 139.085938 171.617188 C 138.910156 172.039062 138.660156 172.410156 138.339844 172.734375 C 138.015625 173.054688 137.644531 173.304688 137.222656 173.480469 C 136.800781 173.652344 136.363281 173.742188 135.90625 173.742188 L 101.511719 173.742188 C 101.054688 173.742188 100.617188 173.652344 100.195312 173.480469 C 99.773438 173.304688 99.402344 173.054688 99.082031 172.734375 C 98.757812 172.410156 98.507812 172.039062 98.335938 171.617188 C 98.160156 171.195312 98.074219 170.757812 98.074219 170.300781 L 98.074219 166.863281 C 98.074219 166.40625 98.160156 165.96875 98.335938 165.546875 C 98.507812 165.125 98.757812 164.753906 99.082031 164.429688 C 99.402344 164.105469 99.773438 163.859375 100.195312 163.683594 C 100.617188 163.507812 101.054688 163.421875 101.511719 163.421875 L 135.90625 163.421875 C 136.363281 163.421875 136.800781 163.507812 137.222656 163.683594 C 137.644531 163.859375 138.015625 164.105469 138.339844 164.429688 C 138.660156 164.753906 138.910156 165.125 139.085938 165.546875 C 139.257812 165.96875 139.347656 166.40625 139.347656 166.863281 Z M 187.5 273.484375 C 186.148438 273.484375 184.796875 273.417969 183.453125 273.285156 C 182.109375 273.152344 180.773438 272.957031 179.445312 272.691406 C 178.121094 272.429688 176.8125 272.101562 175.515625 271.707031 C 174.222656 271.316406 172.953125 270.859375 171.703125 270.34375 C 170.457031 269.824219 169.234375 269.25 168.042969 268.613281 C 166.851562 267.972656 165.691406 267.28125 164.566406 266.527344 C 163.445312 265.777344 162.359375 264.972656 161.316406 264.117188 C 160.269531 263.257812 159.269531 262.351562 158.3125 261.394531 C 157.359375 260.441406 156.453125 259.441406 155.59375 258.394531 C 154.734375 257.351562 153.933594 256.265625 153.179688 255.140625 C 152.429688 254.019531 151.734375 252.859375 151.097656 251.667969 C 150.460938 250.476562 149.882812 249.253906 149.367188 248.007812 C 148.851562 246.757812 148.394531 245.484375 148.003906 244.191406 C 147.609375 242.898438 147.28125 241.589844 147.019531 240.261719 C 146.753906 238.9375 146.554688 237.601562 146.425781 236.257812 C 146.292969 234.910156 146.226562 233.5625 146.226562 232.210938 C 146.226562 230.859375 146.292969 229.511719 146.425781 228.164062 C 146.554688 226.820312 146.753906 225.484375 147.019531 224.160156 C 147.28125 222.832031 147.609375 221.523438 148.003906 220.230469 C 148.394531 218.9375 148.851562 217.664062 149.367188 216.417969 C 149.882812 215.167969 150.460938 213.949219 151.097656 212.753906 C 151.734375 211.5625 152.429688 210.40625 153.179688 209.28125 C 153.933594 208.15625 154.734375 207.074219 155.59375 206.027344 C 156.453125 204.984375 157.359375 203.984375 158.3125 203.027344 C 159.269531 202.070312 160.269531 201.164062 161.316406 200.308594 C 162.359375 199.449219 163.445312 198.644531 164.566406 197.894531 C 165.691406 197.144531 166.851562 196.449219 168.042969 195.8125 C 169.234375 195.175781 170.457031 194.597656 171.703125 194.078125 C 172.953125 193.5625 174.222656 193.109375 175.515625 192.714844 C 176.8125 192.324219 178.121094 191.996094 179.445312 191.730469 C 180.773438 191.46875 182.109375 191.269531 183.453125 191.136719 C 184.796875 191.003906 186.148438 190.9375 187.5 190.9375 C 188.851562 190.9375 190.199219 191.003906 191.542969 191.136719 C 192.890625 191.269531 194.226562 191.46875 195.550781 191.730469 C 196.875 191.996094 198.1875 192.324219 199.480469 192.714844 C 200.773438 193.109375 202.042969 193.5625 203.292969 194.078125 C 204.542969 194.597656 205.761719 195.175781 206.953125 195.8125 C 208.148438 196.449219 209.304688 197.144531 210.429688 197.894531 C 211.554688 198.644531 212.636719 199.449219 213.683594 200.308594 C 214.726562 201.164062 215.726562 202.070312 216.683594 203.027344 C 217.640625 203.984375 218.546875 204.984375 219.402344 206.027344 C 220.261719 207.074219 221.066406 208.15625 221.816406 209.28125 C 222.566406 210.40625 223.261719 211.5625 223.898438 212.753906 C 224.535156 213.949219 225.113281 215.167969 225.628906 216.417969 C 226.148438 217.664062 226.601562 218.9375 226.996094 220.230469 C 227.386719 221.523438 227.714844 222.832031 227.980469 224.160156 C 228.242188 225.484375 228.441406 226.820312 228.574219 228.164062 C 228.707031 229.511719 228.773438 230.859375 228.773438 232.210938 C 228.773438 233.5625 228.707031 234.910156 228.574219 236.257812 C 228.441406 237.601562 228.242188 238.9375 227.980469 240.261719 C 227.714844 241.589844 227.386719 242.898438 226.996094 244.191406 C 226.601562 245.484375 226.148438 246.757812 225.628906 248.007812 C 225.113281 249.253906 224.535156 250.476562 223.898438 251.667969 C 223.261719 252.859375 222.566406 254.019531 221.816406 255.140625 C 221.066406 256.265625 220.261719 257.351562 219.402344 258.394531 C 218.546875 259.441406 217.640625 260.441406 216.683594 261.394531 C 215.726562 262.351562 214.726562 263.257812 213.683594 264.117188 C 212.636719 264.972656 211.554688 265.777344 210.429688 266.527344 C 209.304688 267.28125 208.148438 267.972656 206.953125 268.613281 C 205.761719 269.25 204.542969 269.824219 203.292969 270.34375 C 202.042969 270.859375 200.773438 271.316406 199.480469 271.707031 C 198.1875 272.101562 196.875 272.429688 195.550781 272.691406 C 194.226562 272.957031 192.890625 273.152344 191.542969 273.285156 C 190.199219 273.417969 188.851562 273.484375 187.5 273.484375 Z M 249.410156 173.742188 L 156.542969 173.742188 C 156.085938 173.742188 155.648438 173.652344 155.226562 173.480469 C 154.804688 173.304688 154.433594 173.054688 154.113281 172.734375 C 153.789062 172.410156 153.539062 172.039062 153.367188 171.617188 C 153.191406 171.195312 153.105469 170.757812 153.105469 170.300781 L 153.105469 159.984375 C 153.105469 159.304688 153.039062 158.632812 152.90625 157.96875 C 152.773438 157.304688 152.578125 156.660156 152.320312 156.035156 C 152.058594 155.410156 151.742188 154.8125 151.363281 154.25 C 150.988281 153.6875 150.5625 153.164062 150.082031 152.6875 C 149.601562 152.207031 149.082031 151.78125 148.519531 151.402344 C 147.953125 151.027344 147.359375 150.710938 146.734375 150.449219 C 146.109375 150.191406 145.464844 149.996094 144.796875 149.863281 C 144.132812 149.730469 143.464844 149.664062 142.785156 149.664062 L 139.347656 149.664062 L 139.347656 118.710938 C 139.347656 118.253906 139.433594 117.816406 139.609375 117.394531 C 139.78125 116.972656 140.03125 116.601562 140.355469 116.277344 C 140.675781 115.953125 141.046875 115.707031 141.46875 115.53125 C 141.890625 115.355469 142.328125 115.269531 142.785156 115.269531 L 245.96875 115.269531 C 246.425781 115.269531 246.863281 115.355469 247.285156 115.53125 C 247.707031 115.707031 248.078125 115.953125 248.402344 116.277344 C 248.722656 116.601562 248.972656 116.972656 249.148438 117.394531 C 249.320312 117.816406 249.410156 118.253906 249.410156 118.710938 Z M 273.484375 173.742188 L 256.289062 173.742188 L 256.289062 118.710938 C 256.289062 118.03125 256.222656 117.359375 256.089844 116.695312 C 255.957031 116.03125 255.761719 115.386719 255.503906 114.761719 C 255.242188 114.136719 254.925781 113.539062 254.546875 112.976562 C 254.171875 112.414062 253.746094 111.890625 253.265625 111.414062 C 252.785156 110.933594 252.265625 110.507812 251.703125 110.128906 C 251.136719 109.753906 250.542969 109.4375 249.917969 109.175781 C 249.292969 108.917969 248.648438 108.722656 247.980469 108.589844 C 247.316406 108.457031 246.648438 108.390625 245.96875 108.390625 L 180.621094 108.390625 L 180.621094 94.632812 C 180.621094 94.175781 180.707031 93.738281 180.882812 93.316406 C 181.054688 92.894531 181.304688 92.523438 181.628906 92.203125 C 181.949219 91.878906 182.320312 91.628906 182.742188 91.457031 C 183.164062 91.28125 183.601562 91.195312 184.058594 91.195312 L 270.046875 91.195312 C 270.5 91.195312 270.941406 91.28125 271.363281 91.457031 C 271.78125 91.628906 272.15625 91.878906 272.476562 92.203125 C 272.800781 92.523438 273.046875 92.894531 273.222656 93.316406 C 273.398438 93.738281 273.484375 94.175781 273.484375 94.632812 Z M 273.484375 173.742188 " fill-opacity="1" fill-rule="nonzero"/></g><path fill="#ffffff" d="M 197.816406 129.027344 L 156.542969 129.027344 C 156.085938 129.027344 155.648438 129.113281 155.226562 129.289062 C 154.804688 129.464844 154.433594 129.710938 154.113281 130.035156 C 153.789062 130.359375 153.539062 130.730469 153.367188 131.152344 C 153.191406 131.574219 153.105469 132.011719 153.105469 132.46875 C 153.105469 132.921875 153.191406 133.363281 153.367188 133.785156 C 153.539062 134.203125 153.789062 134.578125 154.113281 134.898438 C 154.433594 135.222656 154.804688 135.46875 155.226562 135.644531 C 155.648438 135.820312 156.085938 135.90625 156.542969 135.90625 L 197.816406 135.90625 C 198.273438 135.90625 198.710938 135.820312 199.132812 135.644531 C 199.554688 135.46875 199.925781 135.222656 200.25 134.898438 C 200.570312 134.578125 200.820312 134.203125 200.996094 133.785156 C 201.167969 133.363281 201.257812 132.921875 201.257812 132.46875 C 201.257812 132.011719 201.167969 131.574219 200.996094 131.152344 C 200.820312 130.730469 200.570312 130.359375 200.25 130.035156 C 199.925781 129.710938 199.554688 129.464844 199.132812 129.289062 C 198.710938 129.113281 198.273438 129.027344 197.816406 129.027344 Z M 197.816406 129.027344 " fill-opacity="1" fill-rule="nonzero"/><path fill="#ffffff" d="M 197.816406 142.785156 L 156.542969 142.785156 C 156.085938 142.785156 155.648438 142.871094 155.226562 143.046875 C 154.804688 143.222656 154.433594 143.46875 154.113281 143.792969 C 153.789062 144.117188 153.539062 144.488281 153.367188 144.910156 C 153.191406 145.332031 153.105469 145.769531 153.105469 146.226562 C 153.105469 146.679688 153.191406 147.121094 153.367188 147.542969 C 153.539062 147.960938 153.789062 148.335938 154.113281 148.65625 C 154.433594 148.980469 154.804688 149.226562 155.226562 149.402344 C 155.648438 149.578125 156.085938 149.664062 156.542969 149.664062 L 197.816406 149.664062 C 198.273438 149.664062 198.710938 149.578125 199.132812 149.402344 C 199.554688 149.226562 199.925781 148.980469 200.25 148.65625 C 200.570312 148.335938 200.820312 147.960938 200.996094 147.542969 C 201.167969 147.121094 201.257812 146.679688 201.257812 146.226562 C 201.257812 145.769531 201.167969 145.332031 200.996094 144.910156 C 200.820312 144.488281 200.570312 144.117188 200.25 143.792969 C 199.925781 143.46875 199.554688 143.222656 199.132812 143.046875 C 198.710938 142.871094 198.273438 142.785156 197.816406 142.785156 Z M 197.816406 142.785156 " fill-opacity="1" fill-rule="nonzero"/><path fill="#ffffff" d="M 156.542969 163.421875 L 197.816406 163.421875 C 198.273438 163.421875 198.710938 163.335938 199.132812 163.160156 C 199.554688 162.984375 199.925781 162.738281 200.25 162.414062 C 200.570312 162.09375 200.820312 161.71875 200.996094 161.300781 C 201.167969 160.878906 201.257812 160.4375 201.257812 159.984375 C 201.257812 159.527344 201.167969 159.089844 200.996094 158.667969 C 200.820312 158.246094 200.570312 157.875 200.25 157.550781 C 199.925781 157.226562 199.554688 156.980469 199.132812 156.804688 C 198.710938 156.628906 198.273438 156.542969 197.816406 156.542969 L 156.542969 156.542969 C 156.085938 156.542969 155.648438 156.628906 155.226562 156.804688 C 154.804688 156.980469 154.433594 157.226562 154.113281 157.550781 C 153.789062 157.875 153.539062 158.246094 153.367188 158.667969 C 153.191406 159.089844 153.105469 159.527344 153.105469 159.984375 C 153.105469 160.4375 153.191406 160.878906 153.367188 161.300781 C 153.539062 161.71875 153.789062 162.09375 154.113281 162.414062 C 154.433594 162.738281 154.804688 162.984375 155.226562 163.160156 C 155.648438 163.335938 156.085938 163.421875 156.542969 163.421875 Z M 156.542969 163.421875 " fill-opacity="1" fill-rule="nonzero"/><path fill="#ffffff" d="M 233.21875 130.035156 L 209.144531 154.113281 C 208.8125 154.433594 208.554688 154.804688 208.371094 155.226562 C 208.191406 155.652344 208.097656 156.09375 208.09375 156.554688 C 208.089844 157.015625 208.175781 157.460938 208.347656 157.886719 C 208.523438 158.316406 208.773438 158.691406 209.101562 159.019531 C 209.425781 159.34375 209.804688 159.59375 210.230469 159.769531 C 210.65625 159.945312 211.101562 160.027344 211.5625 160.023438 C 212.023438 160.019531 212.464844 159.929688 212.890625 159.746094 C 213.3125 159.5625 213.6875 159.308594 214.007812 158.976562 L 238.082031 134.898438 C 238.394531 134.574219 238.636719 134.203125 238.804688 133.785156 C 238.96875 133.367188 239.050781 132.929688 239.046875 132.480469 C 239.042969 132.027344 238.953125 131.59375 238.78125 131.179688 C 238.605469 130.765625 238.359375 130.394531 238.039062 130.078125 C 237.722656 129.757812 237.355469 129.511719 236.9375 129.335938 C 236.523438 129.164062 236.089844 129.074219 235.636719 129.070312 C 235.1875 129.066406 234.753906 129.148438 234.335938 129.316406 C 233.914062 129.480469 233.542969 129.722656 233.21875 130.035156 Z M 233.21875 130.035156 " fill-opacity="1" fill-rule="nonzero"/><path fill="#ffffff" d="M 239.089844 153.105469 C 239.089844 153.554688 239.046875 154.003906 238.957031 154.445312 C 238.871094 154.890625 238.738281 155.320312 238.566406 155.738281 C 238.394531 156.152344 238.183594 156.550781 237.929688 156.925781 C 237.679688 157.300781 237.394531 157.648438 237.074219 157.96875 C 236.757812 158.289062 236.410156 158.574219 236.03125 158.824219 C 235.65625 159.074219 235.261719 159.285156 234.84375 159.460938 C 234.425781 159.632812 233.996094 159.761719 233.554688 159.851562 C 233.109375 159.9375 232.664062 159.984375 232.210938 159.984375 C 231.761719 159.984375 231.3125 159.9375 230.871094 159.851562 C 230.425781 159.761719 229.996094 159.632812 229.578125 159.460938 C 229.160156 159.285156 228.765625 159.074219 228.390625 158.824219 C 228.015625 158.574219 227.667969 158.289062 227.347656 157.96875 C 227.027344 157.648438 226.742188 157.300781 226.492188 156.925781 C 226.242188 156.550781 226.027344 156.152344 225.855469 155.738281 C 225.683594 155.320312 225.554688 154.890625 225.464844 154.445312 C 225.375 154.003906 225.332031 153.554688 225.332031 153.105469 C 225.332031 152.652344 225.375 152.203125 225.464844 151.761719 C 225.554688 151.320312 225.683594 150.890625 225.855469 150.472656 C 226.027344 150.054688 226.242188 149.65625 226.492188 149.28125 C 226.742188 148.90625 227.027344 148.558594 227.347656 148.238281 C 227.667969 147.921875 228.015625 147.636719 228.390625 147.382812 C 228.765625 147.132812 229.160156 146.921875 229.578125 146.75 C 229.996094 146.574219 230.425781 146.445312 230.871094 146.355469 C 231.3125 146.269531 231.761719 146.226562 232.210938 146.226562 C 232.664062 146.226562 233.109375 146.269531 233.554688 146.355469 C 233.996094 146.445312 234.425781 146.574219 234.84375 146.75 C 235.261719 146.921875 235.65625 147.132812 236.03125 147.382812 C 236.410156 147.636719 236.757812 147.921875 237.074219 148.238281 C 237.394531 148.558594 237.679688 148.90625 237.929688 149.28125 C 238.183594 149.65625 238.394531 150.054688 238.566406 150.472656 C 238.738281 150.890625 238.871094 151.320312 238.957031 151.761719 C 239.046875 152.203125 239.089844 152.652344 239.089844 153.105469 Z M 239.089844 153.105469 " fill-opacity="1" fill-rule="nonzero"/><path fill="#ffffff" d="M 221.894531 135.90625 C 221.894531 136.359375 221.847656 136.804688 221.761719 137.25 C 221.671875 137.691406 221.542969 138.121094 221.371094 138.539062 C 221.195312 138.957031 220.984375 139.351562 220.734375 139.730469 C 220.484375 140.105469 220.199219 140.453125 219.878906 140.769531 C 219.558594 141.089844 219.210938 141.375 218.835938 141.625 C 218.460938 141.878906 218.0625 142.089844 217.648438 142.261719 C 217.230469 142.433594 216.800781 142.566406 216.355469 142.652344 C 215.914062 142.742188 215.464844 142.785156 215.015625 142.785156 C 214.5625 142.785156 214.113281 142.742188 213.671875 142.652344 C 213.230469 142.566406 212.800781 142.433594 212.382812 142.261719 C 211.964844 142.089844 211.566406 141.878906 211.191406 141.625 C 210.816406 141.375 210.46875 141.089844 210.148438 140.769531 C 209.832031 140.453125 209.546875 140.105469 209.292969 139.730469 C 209.042969 139.351562 208.832031 138.957031 208.660156 138.539062 C 208.484375 138.121094 208.355469 137.691406 208.265625 137.25 C 208.179688 136.804688 208.136719 136.359375 208.136719 135.90625 C 208.136719 135.457031 208.179688 135.007812 208.265625 134.566406 C 208.355469 134.121094 208.484375 133.691406 208.660156 133.273438 C 208.832031 132.855469 209.042969 132.460938 209.292969 132.085938 C 209.546875 131.710938 209.832031 131.363281 210.148438 131.042969 C 210.46875 130.722656 210.816406 130.4375 211.191406 130.1875 C 211.566406 129.9375 211.964844 129.722656 212.382812 129.550781 C 212.800781 129.378906 213.230469 129.25 213.671875 129.160156 C 214.113281 129.070312 214.5625 129.027344 215.015625 129.027344 C 215.464844 129.027344 215.914062 129.070312 216.355469 129.160156 C 216.800781 129.25 217.230469 129.378906 217.648438 129.550781 C 218.0625 129.722656 218.460938 129.9375 218.835938 130.1875 C 219.210938 130.4375 219.558594 130.722656 219.878906 131.042969 C 220.199219 131.363281 220.484375 131.710938 220.734375 132.085938 C 220.984375 132.460938 221.195312 132.855469 221.371094 133.273438 C 221.542969 133.691406 221.671875 134.121094 221.761719 134.566406 C 221.847656 135.007812 221.894531 135.457031 221.894531 135.90625 Z M 221.894531 135.90625 " fill-opacity="1" fill-rule="nonzero"/><path fill="#ffffff" d="M 187.5 215.015625 C 187.949219 215.015625 188.398438 215.058594 188.839844 215.144531 C 189.285156 215.234375 189.714844 215.363281 190.132812 215.539062 C 190.546875 215.710938 190.945312 215.921875 191.320312 216.171875 C 191.695312 216.425781 192.042969 216.710938 192.363281 217.027344 C 192.683594 217.347656 192.96875 217.695312 193.21875 218.070312 C 193.46875 218.445312 193.679688 218.84375 193.855469 219.261719 C 194.027344 219.679688 194.15625 220.109375 194.246094 220.550781 C 194.332031 220.992188 194.378906 221.441406 194.378906 221.894531 C 194.378906 222.347656 194.464844 222.789062 194.640625 223.210938 C 194.8125 223.628906 195.0625 224.003906 195.386719 224.324219 C 195.707031 224.648438 196.078125 224.894531 196.5 225.070312 C 196.921875 225.246094 197.359375 225.332031 197.816406 225.332031 C 198.273438 225.332031 198.710938 225.246094 199.132812 225.070312 C 199.554688 224.894531 199.925781 224.648438 200.25 224.324219 C 200.570312 224.003906 200.820312 223.628906 200.996094 223.210938 C 201.167969 222.789062 201.257812 222.347656 201.257812 221.894531 C 201.253906 221.136719 201.1875 220.386719 201.0625 219.644531 C 200.9375 218.898438 200.75 218.171875 200.503906 217.457031 C 200.257812 216.742188 199.953125 216.054688 199.59375 215.390625 C 199.234375 214.726562 198.824219 214.09375 198.359375 213.5 C 197.894531 212.902344 197.386719 212.347656 196.832031 211.835938 C 196.277344 211.324219 195.683594 210.859375 195.054688 210.445312 C 194.421875 210.03125 193.761719 209.671875 193.070312 209.367188 C 192.378906 209.058594 191.667969 208.8125 190.9375 208.625 L 190.9375 204.695312 C 190.9375 204.238281 190.851562 203.800781 190.675781 203.378906 C 190.5 202.957031 190.253906 202.585938 189.929688 202.265625 C 189.609375 201.941406 189.234375 201.691406 188.816406 201.519531 C 188.394531 201.34375 187.953125 201.257812 187.5 201.257812 C 187.042969 201.257812 186.605469 201.34375 186.183594 201.519531 C 185.761719 201.691406 185.390625 201.941406 185.066406 202.265625 C 184.742188 202.585938 184.496094 202.957031 184.320312 203.378906 C 184.144531 203.800781 184.058594 204.238281 184.058594 204.695312 L 184.058594 208.625 C 183.257812 208.832031 182.476562 209.109375 181.726562 209.457031 C 180.972656 209.804688 180.257812 210.214844 179.578125 210.691406 C 178.902344 211.167969 178.269531 211.703125 177.691406 212.296875 C 177.109375 212.886719 176.585938 213.527344 176.121094 214.210938 C 175.652344 214.898438 175.253906 215.621094 174.917969 216.378906 C 174.585938 217.136719 174.320312 217.921875 174.128906 218.726562 C 173.933594 219.53125 173.816406 220.351562 173.769531 221.179688 C 173.726562 222.007812 173.757812 222.832031 173.859375 223.652344 C 173.964844 224.476562 174.144531 225.28125 174.394531 226.074219 C 174.644531 226.863281 174.964844 227.625 175.355469 228.359375 C 175.742188 229.089844 176.195312 229.78125 176.707031 230.433594 C 177.222656 231.082031 177.789062 231.683594 178.414062 232.230469 C 179.035156 232.777344 179.703125 233.265625 180.414062 233.691406 C 181.125 234.117188 181.867188 234.476562 182.644531 234.769531 C 183.417969 235.0625 184.214844 235.28125 185.03125 235.429688 C 185.847656 235.578125 186.667969 235.652344 187.5 235.652344 C 187.949219 235.652344 188.398438 235.695312 188.839844 235.78125 C 189.285156 235.871094 189.714844 236 190.132812 236.175781 C 190.546875 236.347656 190.945312 236.558594 191.320312 236.808594 C 191.695312 237.0625 192.042969 237.347656 192.363281 237.664062 C 192.683594 237.984375 192.96875 238.332031 193.21875 238.707031 C 193.46875 239.082031 193.679688 239.480469 193.855469 239.898438 C 194.027344 240.316406 194.15625 240.746094 194.246094 241.1875 C 194.332031 241.628906 194.378906 242.078125 194.378906 242.53125 C 194.378906 242.980469 194.332031 243.429688 194.246094 243.871094 C 194.15625 244.316406 194.027344 244.746094 193.855469 245.164062 C 193.679688 245.578125 193.46875 245.976562 193.21875 246.351562 C 192.96875 246.726562 192.683594 247.074219 192.363281 247.394531 C 192.042969 247.714844 191.695312 248 191.320312 248.25 C 190.945312 248.5 190.546875 248.710938 190.132812 248.886719 C 189.714844 249.058594 189.285156 249.1875 188.839844 249.277344 C 188.398438 249.363281 187.949219 249.410156 187.5 249.410156 C 187.046875 249.410156 186.597656 249.363281 186.15625 249.277344 C 185.714844 249.1875 185.285156 249.058594 184.867188 248.886719 C 184.449219 248.710938 184.050781 248.5 183.675781 248.25 C 183.300781 248 182.953125 247.714844 182.632812 247.394531 C 182.316406 247.074219 182.03125 246.726562 181.777344 246.351562 C 181.527344 245.976562 181.316406 245.578125 181.144531 245.164062 C 180.96875 244.746094 180.839844 244.316406 180.75 243.871094 C 180.664062 243.429688 180.621094 242.980469 180.621094 242.53125 C 180.621094 242.074219 180.53125 241.636719 180.359375 241.214844 C 180.183594 240.792969 179.933594 240.421875 179.613281 240.097656 C 179.289062 239.773438 178.917969 239.527344 178.496094 239.351562 C 178.074219 239.175781 177.636719 239.089844 177.179688 239.089844 C 176.722656 239.089844 176.285156 239.175781 175.863281 239.351562 C 175.441406 239.527344 175.070312 239.773438 174.75 240.097656 C 174.425781 240.421875 174.175781 240.792969 174.003906 241.214844 C 173.828125 241.636719 173.742188 242.074219 173.742188 242.53125 C 173.742188 243.285156 173.808594 244.035156 173.933594 244.78125 C 174.0625 245.523438 174.246094 246.253906 174.492188 246.96875 C 174.738281 247.679688 175.042969 248.371094 175.402344 249.035156 C 175.761719 249.699219 176.175781 250.328125 176.636719 250.921875 C 177.101562 251.519531 177.609375 252.074219 178.164062 252.585938 C 178.71875 253.097656 179.3125 253.5625 179.945312 253.976562 C 180.574219 254.390625 181.234375 254.75 181.925781 255.058594 C 182.617188 255.363281 183.328125 255.609375 184.058594 255.800781 L 184.058594 259.726562 C 184.058594 260.183594 184.144531 260.621094 184.320312 261.042969 C 184.496094 261.464844 184.742188 261.835938 185.066406 262.160156 C 185.390625 262.480469 185.761719 262.730469 186.183594 262.90625 C 186.605469 263.078125 187.042969 263.167969 187.5 263.167969 C 187.953125 263.167969 188.394531 263.078125 188.816406 262.90625 C 189.234375 262.730469 189.609375 262.480469 189.929688 262.160156 C 190.253906 261.835938 190.5 261.464844 190.675781 261.042969 C 190.851562 260.621094 190.9375 260.183594 190.9375 259.726562 L 190.9375 255.800781 C 191.742188 255.59375 192.519531 255.316406 193.273438 254.96875 C 194.023438 254.621094 194.738281 254.207031 195.417969 253.730469 C 196.097656 253.253906 196.726562 252.71875 197.308594 252.128906 C 197.886719 251.535156 198.410156 250.898438 198.878906 250.210938 C 199.34375 249.523438 199.742188 248.804688 200.078125 248.042969 C 200.414062 247.285156 200.675781 246.503906 200.871094 245.695312 C 201.0625 244.890625 201.179688 244.074219 201.226562 243.246094 C 201.269531 242.417969 201.242188 241.589844 201.136719 240.769531 C 201.03125 239.945312 200.855469 239.140625 200.601562 238.347656 C 200.351562 237.558594 200.03125 236.796875 199.644531 236.066406 C 199.253906 235.332031 198.804688 234.640625 198.289062 233.992188 C 197.777344 233.339844 197.207031 232.742188 196.585938 232.191406 C 195.960938 231.644531 195.296875 231.160156 194.585938 230.730469 C 193.875 230.304688 193.128906 229.945312 192.355469 229.652344 C 191.578125 229.359375 190.78125 229.140625 189.964844 228.992188 C 189.148438 228.84375 188.328125 228.769531 187.5 228.773438 C 187.046875 228.773438 186.597656 228.726562 186.15625 228.640625 C 185.714844 228.550781 185.285156 228.421875 184.867188 228.25 C 184.449219 228.074219 184.050781 227.863281 183.675781 227.613281 C 183.300781 227.363281 182.953125 227.078125 182.632812 226.757812 C 182.316406 226.4375 182.03125 226.089844 181.777344 225.714844 C 181.527344 225.339844 181.316406 224.941406 181.144531 224.527344 C 180.96875 224.109375 180.839844 223.679688 180.75 223.234375 C 180.664062 222.792969 180.621094 222.34375 180.621094 221.894531 C 180.621094 221.441406 180.664062 220.992188 180.75 220.550781 C 180.839844 220.109375 180.96875 219.679688 181.144531 219.261719 C 181.316406 218.84375 181.527344 218.445312 181.777344 218.070312 C 182.03125 217.695312 182.316406 217.347656 182.632812 217.027344 C 182.953125 216.710938 183.300781 216.425781 183.675781 216.171875 C 184.050781 215.921875 184.449219 215.710938 184.867188 215.539062 C 185.285156 215.363281 185.714844 215.234375 186.15625 215.144531 C 186.597656 215.058594 187.046875 215.015625 187.5 215.015625 Z M 187.5 215.015625 " fill-opacity="1" fill-rule="nonzero"/></svg>