<svg xmlns="http://www.w3.org/2000/svg" width="500" height="500" version="1.0" viewBox="0 0 375 375"><defs><clipPath id="a"><path d="M187.5 0C83.945 0 0 83.945 0 187.5S83.945 375 187.5 375 375 291.055 375 187.5 291.055 0 187.5 0Zm0 0"/></clipPath><clipPath id="b"><path d="M84.316 84.316h206.25v206.25H84.316Zm0 0"/></clipPath></defs><g clip-path="url(#a)"><path fill="#e28100" d="M-37.5-37.5h450v450h-450z"/></g><g clip-path="url(#b)"><path fill="#fff" d="M280.363 173.742v-79.11c0-.675-.066-1.347-.199-2.01a10.25 10.25 0 0 0-1.539-3.72 10.256 10.256 0 0 0-2.848-2.848 9.91 9.91 0 0 0-1.785-.952 10.139 10.139 0 0 0-3.945-.786h-85.988a10.262 10.262 0 0 0-3.95.785 10.01 10.01 0 0 0-1.78.954c-.567.375-1.087.804-1.567 1.28-.477.481-.907 1-1.282 1.567a10.01 10.01 0 0 0-.953 1.782 10.262 10.262 0 0 0-.59 1.937 10.545 10.545 0 0 0-.195 2.012h-68.789c-.68 0-1.351.066-2.016.199-.664.133-1.308.328-1.933.586-.625.262-1.223.578-1.785.953a10.28 10.28 0 0 0-1.563 1.285c-.48.477-.906 1-1.285 1.563-.375.562-.691 1.16-.953 1.785a10.415 10.415 0 0 0-.785 3.95v44.71c-.676 0-1.348.066-2.012.2-.664.132-1.308.327-1.937.585a10.312 10.312 0 0 0-6.367 9.535v120.38c0 .679.066 1.347.195 2.011.133.668.328 1.313.59 1.938.257.625.574 1.218.953 1.785a10.45 10.45 0 0 0 1.28 1.562c.481.48 1 .906 1.567 1.281.563.38 1.157.696 1.782.957.629.258 1.273.454 1.937.586.664.133 1.336.2 2.012.2h185.73a10.365 10.365 0 0 0 3.95-.785 10.467 10.467 0 0 0 3.347-2.239 10.467 10.467 0 0 0 2.238-3.348 10.365 10.365 0 0 0 .786-3.949V184.06c0-.676-.067-1.348-.2-2.012a10.544 10.544 0 0 0-.586-1.938 10.287 10.287 0 0 0-.957-1.78 10.06 10.06 0 0 0-1.28-1.567c-.481-.477-1-.907-1.563-1.282a10.18 10.18 0 0 0-1.786-.953 10.091 10.091 0 0 0-1.937-.59 10.514 10.514 0 0 0-2.012-.195Zm-178.851-68.789c0-.457.086-.894.261-1.316a3.42 3.42 0 0 1 .747-1.117 3.42 3.42 0 0 1 1.117-.747c.422-.175.86-.261 1.316-.261h68.79v6.879h-30.958c-.676 0-1.347.066-2.012.199-.664.133-1.308.328-1.937.586a10.312 10.312 0 0 0-6.367 9.535v30.953h-30.957Zm37.836 65.348a3.456 3.456 0 0 1-1.008 2.433 3.456 3.456 0 0 1-2.434 1.008h-34.394a3.423 3.423 0 0 1-2.43-1.008 3.359 3.359 0 0 1-.746-1.117 3.383 3.383 0 0 1-.262-1.316v-3.438c0-.457.086-.894.262-1.316.172-.422.422-.793.746-1.117.32-.325.691-.57 1.113-.746.422-.176.86-.262 1.317-.262h34.394c.457 0 .895.086 1.317.262a3.42 3.42 0 0 1 1.117.746 3.456 3.456 0 0 1 1.008 2.434ZM187.5 273.484a41.159 41.159 0 0 1-8.055-.793 41.37 41.37 0 0 1-11.402-4.078 41.602 41.602 0 0 1-6.727-4.496 41.314 41.314 0 0 1-10.218-12.449 41.152 41.152 0 0 1-3.094-7.477 39.847 39.847 0 0 1-.984-3.93 39.57 39.57 0 0 1-.594-4.003 41.218 41.218 0 0 1 .594-12.098c.261-1.328.59-2.637.984-3.93a41.224 41.224 0 0 1 5.176-10.95 41.714 41.714 0 0 1 2.414-3.253 42.987 42.987 0 0 1 2.719-3 40.38 40.38 0 0 1 3.003-2.718 40.68 40.68 0 0 1 6.727-4.496 42.31 42.31 0 0 1 3.66-1.735c1.25-.516 2.52-.969 3.813-1.363a42.796 42.796 0 0 1 3.93-.985 41.159 41.159 0 0 1 16.105 0c1.324.266 2.636.594 3.93.985 1.292.394 2.562.847 3.812 1.363a41.77 41.77 0 0 1 7.137 3.817 41.117 41.117 0 0 1 8.973 8.133 40.742 40.742 0 0 1 2.413 3.253 41.224 41.224 0 0 1 3.813 7.137 40.989 40.989 0 0 1 2.945 11.746 41.218 41.218 0 0 1-2.945 19.844 41.153 41.153 0 0 1-6.227 10.387 39.559 39.559 0 0 1-2.718 3 42.087 42.087 0 0 1-3 2.722 41.667 41.667 0 0 1-6.73 4.496 41.37 41.37 0 0 1-15.41 4.672 41.08 41.08 0 0 1-4.044.2Zm61.91-99.742h-92.867a3.423 3.423 0 0 1-2.43-1.008 3.359 3.359 0 0 1-.746-1.117 3.383 3.383 0 0 1-.262-1.316v-10.317c0-.68-.066-1.351-.199-2.015a10.415 10.415 0 0 0-.586-1.934 10.322 10.322 0 0 0-.957-1.785 10.03 10.03 0 0 0-1.281-1.563c-.48-.48-1-.906-1.562-1.285a10.728 10.728 0 0 0-1.786-.953 10.364 10.364 0 0 0-3.949-.785h-3.437v-30.953c0-.457.086-.895.261-1.316.172-.422.422-.793.746-1.118.32-.324.692-.57 1.114-.746.422-.176.86-.261 1.316-.261H245.97c.457 0 .894.085 1.316.261a3.42 3.42 0 0 1 1.117.746 3.456 3.456 0 0 1 1.008 2.434Zm24.074 0H256.29v-55.031a10.415 10.415 0 0 0-.785-3.95 10.322 10.322 0 0 0-.957-1.784 10.03 10.03 0 0 0-1.281-1.563c-.48-.48-1-.906-1.563-1.285a10.728 10.728 0 0 0-1.785-.953 10.364 10.364 0 0 0-3.95-.785h-65.347V94.633c0-.457.086-.895.262-1.317.172-.421.422-.793.746-1.113.32-.324.691-.574 1.113-.746.422-.176.86-.262 1.317-.262h85.988c.453 0 .894.086 1.316.262.418.172.793.422 1.114.746.324.32.57.692.746 1.113.175.422.261.86.261 1.317Zm0 0"/></g><path fill="#fff" d="M197.816 129.027h-41.273c-.457 0-.895.086-1.316.262a3.363 3.363 0 0 0-1.114.746 3.359 3.359 0 0 0-.746 1.117c-.176.422-.262.86-.262 1.317 0 .453.086.894.262 1.316.172.418.422.793.746 1.113.32.325.692.57 1.114.747.421.175.859.261 1.316.261h41.273c.457 0 .895-.086 1.317-.261a3.465 3.465 0 0 0 1.863-1.86 3.456 3.456 0 0 0-.746-3.75 3.42 3.42 0 0 0-1.117-.746 3.383 3.383 0 0 0-1.317-.262ZM197.816 142.785h-41.273c-.457 0-.895.086-1.316.262a3.363 3.363 0 0 0-1.114.746 3.359 3.359 0 0 0-.746 1.117c-.176.422-.262.86-.262 1.317 0 .453.086.894.262 1.316.172.418.422.793.746 1.113.32.324.692.57 1.114.746.421.176.859.262 1.316.262h41.273c.457 0 .895-.086 1.317-.262a3.465 3.465 0 0 0 1.863-1.86 3.456 3.456 0 0 0-.746-3.75 3.42 3.42 0 0 0-1.117-.745 3.383 3.383 0 0 0-1.317-.262ZM156.543 163.422h41.273c.457 0 .895-.086 1.317-.262a3.465 3.465 0 0 0 1.863-1.86 3.456 3.456 0 0 0-.746-3.75 3.42 3.42 0 0 0-1.117-.745 3.383 3.383 0 0 0-1.317-.262h-41.273c-.457 0-.895.086-1.316.262a3.363 3.363 0 0 0-1.114.746 3.359 3.359 0 0 0-.746 1.117c-.176.422-.262.86-.262 1.316 0 .453.086.895.262 1.317.172.418.422.793.746 1.113.32.324.692.57 1.114.746.421.176.859.262 1.316.262ZM233.219 130.035l-24.074 24.078a3.44 3.44 0 0 0-.774 1.114 3.457 3.457 0 0 0-.023 2.66 3.438 3.438 0 0 0 4.543 1.86 3.444 3.444 0 0 0 1.117-.77l24.074-24.079a3.44 3.44 0 0 0 .723-1.113 3.468 3.468 0 0 0-.024-2.605 3.404 3.404 0 0 0-.742-1.102 3.363 3.363 0 0 0-1.101-.742 3.44 3.44 0 0 0-2.602-.02 3.344 3.344 0 0 0-1.117.72ZM239.09 153.105c0 .45-.043.899-.133 1.34a6.76 6.76 0 0 1-1.027 2.48c-.25.376-.535.723-.856 1.044a6.47 6.47 0 0 1-1.043.855c-.375.25-.77.461-1.187.637-.418.172-.848.3-1.29.39a7.06 7.06 0 0 1-1.343.133c-.45 0-.899-.047-1.34-.132a7.052 7.052 0 0 1-1.293-.391 7.077 7.077 0 0 1-1.187-.637 6.828 6.828 0 0 1-1.899-1.898 6.948 6.948 0 0 1-.637-1.188 7.052 7.052 0 0 1-.39-1.293 6.718 6.718 0 0 1-.133-1.34c0-.453.043-.902.133-1.343a6.84 6.84 0 0 1 1.883-3.523 6.786 6.786 0 0 1 2.23-1.488 6.772 6.772 0 0 1 2.633-.524c.453 0 .898.043 1.344.128.441.09.87.22 1.289.395a6.786 6.786 0 0 1 2.23 1.488c.32.32.606.668.856 1.043.254.375.465.774.636 1.192.172.418.305.847.391 1.289.09.441.133.89.133 1.343ZM221.895 135.906c0 .453-.047.899-.133 1.344-.09.441-.219.871-.39 1.29a7.269 7.269 0 0 1-.638 1.19c-.25.375-.535.723-.855 1.04-.32.32-.668.605-1.043.855a6.76 6.76 0 0 1-2.48 1.027c-.442.09-.891.133-1.34.133-.453 0-.903-.043-1.344-.133a6.809 6.809 0 0 1-1.29-.39 6.586 6.586 0 0 1-1.19-.637 6.828 6.828 0 0 1-1.044-.855 7.079 7.079 0 0 1-.855-1.04 6.964 6.964 0 0 1-.633-1.19 6.82 6.82 0 0 1-.394-1.29 7.056 7.056 0 0 1 0-2.684c.09-.445.218-.875.394-1.293a6.786 6.786 0 0 1 1.488-2.23 6.84 6.84 0 0 1 3.523-1.883c.442-.09.892-.133 1.345-.133.449 0 .898.043 1.34.133.445.09.874.219 1.292.39a6.948 6.948 0 0 1 2.23 1.493c.321.32.606.668.856 1.043.25.375.461.77.637 1.187a7.02 7.02 0 0 1 .523 2.633ZM187.5 215.016a6.772 6.772 0 0 1 2.633.523c.414.172.812.383 1.187.633a6.828 6.828 0 0 1 1.898 1.898c.25.375.462.774.637 1.192.172.418.301.847.391 1.289.086.441.133.89.133 1.344 0 .453.086.894.262 1.316.172.418.422.793.746 1.113.32.324.691.57 1.113.746.422.176.86.262 1.316.262.457 0 .895-.086 1.317-.262a3.465 3.465 0 0 0 1.863-1.86 3.47 3.47 0 0 0 .262-1.315 13.96 13.96 0 0 0-.196-2.25 13.713 13.713 0 0 0-1.469-4.254 13.705 13.705 0 0 0-6.523-6.023 13.387 13.387 0 0 0-2.133-.743v-3.93c0-.457-.085-.894-.261-1.316a3.363 3.363 0 0 0-.746-1.113 3.343 3.343 0 0 0-1.114-.746 3.397 3.397 0 0 0-1.316-.262c-.457 0-.895.086-1.316.262a3.359 3.359 0 0 0-1.118.746c-.324.32-.57.691-.746 1.113-.175.422-.261.86-.261 1.316v3.93c-.801.207-1.582.484-2.332.832a13.44 13.44 0 0 0-4.035 2.84c-.583.59-1.106 1.23-1.57 1.914a13.667 13.667 0 0 0-1.993 4.516 13.664 13.664 0 0 0 .266 7.347c.25.79.57 1.551.96 2.285.387.73.84 1.422 1.352 2.075a13.747 13.747 0 0 0 8.324 4.996c.817.148 1.637.222 2.469.222a6.772 6.772 0 0 1 2.633.523c.414.173.812.384 1.187.634a6.828 6.828 0 0 1 1.898 1.898c.25.375.462.773.637 1.191.172.418.301.848.391 1.29.086.44.133.89.133 1.343 0 .45-.047.899-.133 1.34-.09.445-.219.875-.39 1.293a7.232 7.232 0 0 1-.637 1.188 6.828 6.828 0 0 1-1.899 1.898c-.375.25-.773.46-1.187.637a7.02 7.02 0 0 1-2.633.523c-.453 0-.902-.047-1.344-.133a7.106 7.106 0 0 1-1.289-.39 7.113 7.113 0 0 1-1.191-.637 6.828 6.828 0 0 1-1.899-1.898 6.928 6.928 0 0 1-1.027-2.48 7.015 7.015 0 0 1-.129-1.34 3.456 3.456 0 0 0-1.008-2.434 3.42 3.42 0 0 0-1.117-.746 3.383 3.383 0 0 0-1.316-.262c-.457 0-.895.086-1.317.262a3.363 3.363 0 0 0-1.113.746 3.359 3.359 0 0 0-.746 1.117c-.176.422-.262.86-.262 1.316a13.598 13.598 0 0 0 .75 4.438 13.745 13.745 0 0 0 2.145 3.953 13.705 13.705 0 0 0 3.308 3.055c.63.414 1.29.773 1.98 1.082.692.304 1.403.55 2.134.742v3.926c0 .457.086.894.261 1.316.176.422.422.793.746 1.117a3.456 3.456 0 0 0 3.75.746 3.465 3.465 0 0 0 1.86-1.863c.176-.422.262-.86.262-1.316V255.8a13.737 13.737 0 0 0 6.37-3.672 14.248 14.248 0 0 0 1.57-1.918 13.785 13.785 0 0 0 2.349-6.965c.043-.828.015-1.656-.09-2.476a13.743 13.743 0 0 0-1.492-4.703c-.391-.735-.84-1.426-1.356-2.075a13.749 13.749 0 0 0-1.703-1.8 14.098 14.098 0 0 0-2-1.462 13.723 13.723 0 0 0-7.086-1.957c-.453 0-.902-.046-1.344-.132a7.106 7.106 0 0 1-1.289-.391 7.113 7.113 0 0 1-1.191-.637 6.828 6.828 0 0 1-1.899-1.898 6.928 6.928 0 0 1-1.027-2.48 7.015 7.015 0 0 1 0-2.684 6.82 6.82 0 0 1 .395-1.29c.171-.417.382-.816.632-1.19.254-.376.54-.723.856-1.044.32-.316.668-.601 1.043-.855.375-.25.773-.461 1.191-.633a6.82 6.82 0 0 1 1.29-.394c.44-.086.89-.13 1.343-.13Zm0 0"/></svg>