<svg xmlns="http://www.w3.org/2000/svg" width="1000" height="1000" version="1.0" viewBox="0 0 750 750"><defs><clipPath id="a"><path d="M375 0C167.895 0 0 167.895 0 375s167.895 375 375 375 375-167.895 375-375S582.105 0 375 0Zm0 0"/></clipPath></defs><g clip-path="url(#a)"><path fill="#ff914d" d="M-75-75h900v900H-75z"/></g><path fill-rule="evenodd" d="M201.938 437.125c-4.153-64.672 18.792-115.52 45.75-145.09 26.964-29.562 63.292-43.672 117.304-53.433 54.012-9.762 131.098 7.82 179.942-42.426 7.726 312.422-219.438 357.336-330.676 268.879 38.765-46.645 82.164-79.766 141.558-101.414 42.649-15.547 81.235-23.286 120.899-69-58.035 39.414-104.75 42.304-139.27 53.183-51.28 16.164-91.82 37.875-135.507 89.301Zm0 0"/></svg>