<svg xmlns="http://www.w3.org/2000/svg" width="500" height="500" version="1.0" viewBox="0 0 375 375"><defs><clipPath id="a"><path d="M187.5 0C83.945 0 0 83.945 0 187.5S83.945 375 187.5 375 375 291.055 375 187.5 291.055 0 187.5 0Zm0 0"/></clipPath><clipPath id="b"><path d="M66 85.031h243V203H66Zm0 0"/></clipPath><clipPath id="c"><path d="M102 129h171v160.781H102Zm0 0"/></clipPath></defs><g clip-path="url(#a)"><path fill="#e28100" d="M-37.5-37.5h450v450h-450z"/></g><g clip-path="url(#b)"><path fill="#fff" d="m304.523 182.336-109.515-94.54c-.074-.062-.153-.109-.227-.175-.172-.137-.336-.273-.515-.398a8.646 8.646 0 0 0-.41-.285 8.614 8.614 0 0 0-.532-.336 9.04 9.04 0 0 0-.469-.262c-.164-.082-.332-.168-.507-.246a15.854 15.854 0 0 0-.532-.239c-.156-.058-.316-.12-.48-.175a7.759 7.759 0 0 0-.582-.188c-.152-.05-.309-.09-.465-.129a10.084 10.084 0 0 0-1.086-.21 6.329 6.329 0 0 0-.61-.075 6.892 6.892 0 0 0-.495-.035 9.735 9.735 0 0 0-1.118 0c-.18.004-.363.02-.55.039a6.418 6.418 0 0 0-.551.063 11.357 11.357 0 0 0-1.602.352c-.18.054-.363.108-.543.175a9.249 9.249 0 0 0-.515.195 13.702 13.702 0 0 0-1.04.484 11.39 11.39 0 0 0-.988.59c-.136.09-.261.18-.394.274-.184.133-.356.27-.531.414-.075.058-.145.11-.223.168l-35.895 30.992v-12.473c0-3.386-2.773-6.164-6.164-6.164H116.77c-3.391 0-6.165 2.778-6.165 6.164v41.426l-40.07 34.594c-4.789 4.133-5.32 11.371-1.187 16.148a11.407 11.407 0 0 0 8.675 3.977c2.645 0 5.309-.922 7.473-2.785l102.027-88.082 102.036 88.082a11.42 11.42 0 0 0 7.476 2.785c3.215 0 6.41-1.348 8.672-3.977 4.133-4.777 3.602-12.015-1.184-16.148"/></g><g clip-path="url(#c)"><path fill="#fff" d="M230.828 211.36c-1.453 15.253-35.117 43.831-43.305 58.535-8.183-14.704-41.84-43.282-43.296-58.536-1.454-15.261 8.59-24.843 21.007-24.843 9.493 0 18.774 7.691 22.075 16.714.086.243.16.602.214 1.051.067-.449.141-.808.223-1.05 3.3-9.024 12.578-16.715 22.074-16.715 12.418 0 22.461 9.582 21.008 24.843m35.469-16.996-72.098-62.246c-3.672-3.164-9.672-3.164-13.34 0l-72.105 62.246c-3.664 3.164-6.664 9.723-6.664 14.567v72.222c0 4.844 3.96 8.809 8.805 8.809h153.261c4.84 0 8.809-3.965 8.809-8.809V208.93c0-4.844-3-11.403-6.668-14.567"/></g></svg>