<svg xmlns="http://www.w3.org/2000/svg" xmlns:xlink="http://www.w3.org/1999/xlink" width="500" zoomAndPan="magnify" viewBox="0 0 375 374.999991" height="500" preserveAspectRatio="xMidYMid meet" version="1.0"><defs><clipPath id="70c4bae78d"><path d="M 187.5 0 C 83.945312 0 0 83.945312 0 187.5 C 0 291.054688 83.945312 375 187.5 375 C 291.054688 375 375 291.054688 375 187.5 C 375 83.945312 291.054688 0 187.5 0 Z M 187.5 0 " clip-rule="nonzero"/></clipPath><clipPath id="7b5ec56935"><path d="M 66 85.03125 L 309 85.03125 L 309 203 L 66 203 Z M 66 85.03125 " clip-rule="nonzero"/></clipPath><clipPath id="fcda1afdfb"><path d="M 102 129 L 273 129 L 273 289.78125 L 102 289.78125 Z M 102 129 " clip-rule="nonzero"/></clipPath></defs><g clip-path="url(#70c4bae78d)"><rect x="-37.5" width="450" fill="#e28100" y="-37.499999" height="449.999989" fill-opacity="1"/></g><g clip-path="url(#7b5ec56935)"><path fill="#ffffff" d="M 304.523438 182.335938 L 195.007812 87.796875 C 194.933594 87.734375 194.855469 87.6875 194.78125 87.621094 C 194.609375 87.484375 194.445312 87.347656 194.265625 87.222656 C 194.128906 87.121094 193.992188 87.027344 193.855469 86.9375 C 193.679688 86.816406 193.503906 86.707031 193.324219 86.601562 C 193.171875 86.511719 193.015625 86.421875 192.855469 86.339844 C 192.691406 86.257812 192.523438 86.171875 192.347656 86.09375 C 192.171875 86.011719 191.992188 85.929688 191.816406 85.855469 C 191.660156 85.796875 191.5 85.734375 191.335938 85.679688 C 191.144531 85.609375 190.949219 85.546875 190.753906 85.492188 C 190.601562 85.441406 190.445312 85.402344 190.289062 85.363281 C 190.085938 85.3125 189.882812 85.265625 189.679688 85.230469 C 189.519531 85.199219 189.363281 85.175781 189.203125 85.152344 C 189.003906 85.117188 188.796875 85.09375 188.59375 85.078125 C 188.429688 85.0625 188.265625 85.046875 188.097656 85.042969 C 187.898438 85.03125 187.710938 85.027344 187.515625 85.027344 C 187.335938 85.027344 187.160156 85.03125 186.980469 85.042969 C 186.800781 85.046875 186.617188 85.0625 186.429688 85.082031 C 186.246094 85.09375 186.058594 85.117188 185.878906 85.144531 C 185.699219 85.171875 185.527344 85.199219 185.347656 85.234375 C 185.164062 85.269531 184.976562 85.3125 184.785156 85.359375 C 184.613281 85.402344 184.453125 85.445312 184.277344 85.496094 C 184.097656 85.550781 183.914062 85.605469 183.734375 85.671875 C 183.5625 85.730469 183.390625 85.796875 183.21875 85.867188 C 183.050781 85.933594 182.886719 86.003906 182.71875 86.085938 C 182.542969 86.167969 182.359375 86.257812 182.179688 86.351562 C 182.03125 86.429688 181.886719 86.511719 181.746094 86.59375 C 181.554688 86.703125 181.367188 86.820312 181.191406 86.941406 C 181.054688 87.03125 180.929688 87.121094 180.796875 87.214844 C 180.613281 87.347656 180.441406 87.484375 180.265625 87.628906 C 180.191406 87.6875 180.121094 87.738281 180.042969 87.796875 L 144.148438 118.789062 L 144.148438 106.316406 C 144.148438 102.929688 141.375 100.152344 137.984375 100.152344 L 116.769531 100.152344 C 113.378906 100.152344 110.605469 102.929688 110.605469 106.316406 L 110.605469 147.742188 L 70.535156 182.335938 C 65.746094 186.46875 65.214844 193.707031 69.347656 198.484375 C 71.609375 201.113281 74.804688 202.460938 78.023438 202.460938 C 80.667969 202.460938 83.332031 201.539062 85.496094 199.675781 L 187.523438 111.59375 L 289.558594 199.675781 C 291.71875 201.539062 294.382812 202.460938 297.035156 202.460938 C 300.25 202.460938 303.445312 201.113281 305.707031 198.484375 C 309.839844 193.707031 309.308594 186.46875 304.523438 182.335938 " fill-opacity="1" fill-rule="nonzero"/></g><g clip-path="url(#fcda1afdfb)"><path fill="#ffffff" d="M 230.828125 211.359375 C 229.375 226.613281 195.710938 255.191406 187.523438 269.894531 C 179.339844 255.191406 145.683594 226.613281 144.226562 211.359375 C 142.773438 196.097656 152.816406 186.515625 165.234375 186.515625 C 174.726562 186.515625 184.007812 194.207031 187.308594 203.230469 C 187.394531 203.472656 187.46875 203.832031 187.523438 204.28125 C 187.589844 203.832031 187.664062 203.472656 187.746094 203.230469 C 191.046875 194.207031 200.324219 186.515625 209.820312 186.515625 C 222.238281 186.515625 232.28125 196.097656 230.828125 211.359375 M 266.296875 194.363281 L 194.199219 132.117188 C 190.527344 128.953125 184.527344 128.953125 180.859375 132.117188 L 108.753906 194.363281 C 105.089844 197.527344 102.089844 204.085938 102.089844 208.929688 L 102.089844 281.152344 C 102.089844 285.996094 106.050781 289.960938 110.894531 289.960938 L 264.15625 289.960938 C 268.996094 289.960938 272.964844 285.996094 272.964844 281.152344 L 272.964844 208.929688 C 272.964844 204.085938 269.964844 197.527344 266.296875 194.363281 " fill-opacity="1" fill-rule="nonzero"/></g></svg>