<svg xmlns="http://www.w3.org/2000/svg" xmlns:xlink="http://www.w3.org/1999/xlink" width="1366" zoomAndPan="magnify" viewBox="0 0 1024.5 983.999988" height="1312" preserveAspectRatio="xMidYMid meet" version="1.0"><defs><filter x="0%" y="0%" width="100%" height="100%" id="db0b20dc9f"><feColorMatrix values="0 0 0 0 1 0 0 0 0 1 0 0 0 0 1 0 0 0 1 0" color-interpolation-filters="sRGB"/></filter><clipPath id="080542759c"><path d="M 0 545 L 1024 545 L 1024 983.574219 L 0 983.574219 Z M 0 545 " clip-rule="nonzero"/></clipPath><clipPath id="29b7b3bcaa"><path d="M 357 509 L 1024 509 L 1024 983.574219 L 357 983.574219 Z M 357 509 " clip-rule="nonzero"/></clipPath><clipPath id="b78a3e4a54"><path d="M 0 668 L 1024 668 L 1024 983.574219 L 0 983.574219 Z M 0 668 " clip-rule="nonzero"/></clipPath><mask id="40e7195571"><g filter="url(#db0b20dc9f)"><rect x="-102.45" width="1229.4" fill="#000000" y="-98.399999" height="1180.799986" fill-opacity="0.42"/></g></mask><clipPath id="ea2547796e"><path d="M 0 0.3125 L 1024 0.3125 L 1024 315.574219 L 0 315.574219 Z M 0 0.3125 " clip-rule="nonzero"/></clipPath><clipPath id="3470d0558d"><rect x="0" width="1024" y="0" height="316"/></clipPath><clipPath id="cc33d85799"><path d="M 199 724 L 1024 724 L 1024 983.574219 L 199 983.574219 Z M 199 724 " clip-rule="nonzero"/></clipPath><mask id="b3587af562"><g filter="url(#db0b20dc9f)"><rect x="-102.45" width="1229.4" fill="#000000" y="-98.399999" height="1180.799986" fill-opacity="0.42"/></g></mask><clipPath id="af794e152a"><path d="M 1 0.445312 L 825 0.445312 L 825 259.574219 L 1 259.574219 Z M 1 0.445312 " clip-rule="nonzero"/></clipPath><clipPath id="bb605b3060"><rect x="0" width="825" y="0" height="260"/></clipPath></defs><g clip-path="url(#080542759c)"><path fill="#dae7d5" d="M 0.0820312 619.753906 C 366.984375 403.355469 715.292969 722.875 826.851562 807.445312 C 938.40625 892.011719 1023.917969 920.679688 1023.917969 920.679688 L 1023.917969 983.75 L 0.0820312 983.75 Z M 0.0820312 619.753906 " fill-opacity="1" fill-rule="nonzero"/></g><g clip-path="url(#29b7b3bcaa)"><path fill="#588947" d="M 357.6875 983.75 C 357.6875 806.667969 601.484375 777.957031 752.070312 777.957031 C 902.65625 777.957031 1023.917969 532.359375 1023.917969 509.058594 L 1023.917969 983.75 Z M 357.6875 983.75 " fill-opacity="1" fill-rule="nonzero"/></g><g clip-path="url(#b78a3e4a54)"><g mask="url(#40e7195571)"><g transform="matrix(1, 0, 0, 1, 0, 668)"><g clip-path="url(#3470d0558d)"><g clip-path="url(#ea2547796e)"><path fill="#2a4a23" d="M 0.0820312 56.800781 C 156.441406 240.597656 288.230469 16.953125 465.109375 1.347656 C 641.945312 -14.253906 1023.917969 202.472656 1023.917969 202.472656 L 1023.917969 315.75 L 0.0820312 315.75 Z M 0.0820312 56.800781 " fill-opacity="1" fill-rule="nonzero"/></g></g></g></g></g><g clip-path="url(#cc33d85799)"><g mask="url(#b3587af562)"><g transform="matrix(1, 0, 0, 1, 199, 724)"><g clip-path="url(#bb605b3060)"><g clip-path="url(#af794e152a)"><path fill="#2a4a23" d="M 18.871094 259.75 C 18.871094 259.75 -45.671875 112.765625 72.644531 22.425781 C 190.957031 -67.917969 504.664062 154.375 615.808594 148.96875 C 726.957031 143.605469 824.917969 0.800781 824.917969 0.800781 L 824.917969 259.75 Z M 18.871094 259.75 " fill-opacity="1" fill-rule="nonzero"/></g></g></g></g></g></svg>