<svg xmlns="http://www.w3.org/2000/svg" width="500" height="500" version="1.0" viewBox="0 0 375 375"><defs><clipPath id="a"><path d="M131.25 131.25h112.5v112.5h-112.5Zm0 0"/></clipPath></defs><path fill="#fff" d="M-37.5-37.5h450v450h-450z"/><path fill="#fff" d="M-37.5-37.5h450v450h-450z"/><g clip-path="url(#a)"><path fill="#fff" d="M131.25 131.25h112.5v112.5h-112.5Zm0 0"/></g><path fill="#f9943b" d="M374.906 187.453c0 3.067-.074 6.133-.226 9.2a188.395 188.395 0 0 1-1.8 18.305 187.045 187.045 0 0 1-3.59 18.042 187.185 187.185 0 0 1-8.653 26.188 183.46 183.46 0 0 1-3.727 8.414 187.826 187.826 0 0 1-18.89 31.52 187.207 187.207 0 0 1-5.665 7.25 185.745 185.745 0 0 1-12.352 13.633 185.745 185.745 0 0 1-13.632 12.35 187.207 187.207 0 0 1-7.25 5.665 194.251 194.251 0 0 1-7.523 5.296 188.78 188.78 0 0 1-15.778 9.457 190.077 190.077 0 0 1-8.218 4.137 183.46 183.46 0 0 1-8.414 3.727 186.98 186.98 0 0 1-35.165 10.668 187.045 187.045 0 0 1-36.57 3.601c-3.066 0-6.133-.074-9.2-.226a185.052 185.052 0 0 1-9.175-.676 187.045 187.045 0 0 1-27.172-4.715 187.185 187.185 0 0 1-34.597-12.379 187.856 187.856 0 0 1-24-13.594 191.157 191.157 0 0 1-7.52-5.296 188.704 188.704 0 0 1-14.223-11.672 189.096 189.096 0 0 1-6.664-6.344 189.268 189.268 0 0 1-6.343-6.664 185.541 185.541 0 0 1-6.008-6.969 191.01 191.01 0 0 1-5.66-7.25 190.167 190.167 0 0 1-5.301-7.523 188.78 188.78 0 0 1-4.922-7.774 196.725 196.725 0 0 1-4.535-8.004 190.077 190.077 0 0 1-4.137-8.218 187.817 187.817 0 0 1-3.726-8.414 186.98 186.98 0 0 1-10.668-35.165 191.939 191.939 0 0 1-1.575-9.066 188.395 188.395 0 0 1-1.8-18.305A185.361 185.361 0 0 1 0 187.453c0-3.066.074-6.133.227-9.2.148-3.062.375-6.12.675-9.175.301-3.05.676-6.094 1.125-9.129.453-3.035.977-6.058 1.575-9.066a187.185 187.185 0 0 1 14.395-43.574 187.856 187.856 0 0 1 13.593-24 187.198 187.198 0 0 1 5.3-7.52A188.077 188.077 0 0 1 48.56 61.566a192.749 192.749 0 0 1 6.343-6.664 192.749 192.749 0 0 1 6.664-6.343 188.704 188.704 0 0 1 21.743-16.97 191.455 191.455 0 0 1 7.773-4.921 187.856 187.856 0 0 1 33.219-15.71 187.185 187.185 0 0 1 26.582-7.355 191.939 191.939 0 0 1 9.066-1.576c3.035-.449 6.078-.824 9.13-1.125 3.054-.3 6.112-.527 9.175-.675 3.066-.153 6.133-.227 9.2-.227 3.066 0 6.132.074 9.198.227 3.063.148 6.121.375 9.176.675 3.05.301 6.098.676 9.129 1.125 3.035.453 6.059.977 9.066 1.575a187.185 187.185 0 0 1 35.164 10.668 187.817 187.817 0 0 1 8.415 3.726 190.077 190.077 0 0 1 8.218 4.137c2.703 1.449 5.371 2.96 8.004 4.535a188.78 188.78 0 0 1 7.774 4.922 190.167 190.167 0 0 1 7.523 5.3 191.01 191.01 0 0 1 7.25 5.66 185.541 185.541 0 0 1 6.969 6.009 189.268 189.268 0 0 1 6.664 6.343 189.096 189.096 0 0 1 6.344 6.664 188.704 188.704 0 0 1 16.968 21.743 191.455 191.455 0 0 1 4.922 7.773 187.856 187.856 0 0 1 15.71 33.219 187.185 187.185 0 0 1 7.355 26.582 187.045 187.045 0 0 1 3.603 36.57Zm0 0"/><path fill="#fff" fill-rule="evenodd" d="m109.023 133.453 168.957.785c6.215.047 11.543 2.645 15.25 7.602 3.711 4.96 4.778 10.8 3.063 16.781l-18.266 62.672c-2.41 8.25-9.687 13.719-18.261 13.719h-125.57c-10.477 0-4.266-8.899-6.954-19.051l-15.254-58.129c-2.175-8.25-17.984-20.672-9.035-23.406 2.04-.649 4.078-.973 6.07-.973Zm0 0"/><path fill="#fff" d="M262.129 244.934c5.238 0 9.504 4.261 9.504 9.5 0 5.238-4.266 9.504-9.504 9.504h-128.91a9.523 9.523 0 0 1-9.41-7.88l-37.59-144.437H68.926c-5.235 0-9.5-4.266-9.5-9.504 0-5.285 4.265-9.55 9.5-9.55h24.617v.046c4.215 0 8.062 2.828 9.176 7.094l37.824 145.227ZM173.453 288.828a14.232 14.232 0 0 1-2.406 7.934c-.52.777-1.11 1.5-1.774 2.164a14.29 14.29 0 0 1-4.632 3.094 14.194 14.194 0 0 1-5.461 1.085 14.232 14.232 0 0 1-7.934-2.406 14.29 14.29 0 0 1-2.164-1.773 14.248 14.248 0 0 1-1.773-2.164 14.232 14.232 0 0 1-2.406-7.934 14.204 14.204 0 0 1 1.085-5.465c.36-.863.797-1.687 1.32-2.465a14.315 14.315 0 0 1 6.406-5.262 14.22 14.22 0 0 1 2.68-.808 14.179 14.179 0 0 1 5.57 0 14.183 14.183 0 0 1 5.145 2.129 14.315 14.315 0 0 1 5.258 6.406 14.32 14.32 0 0 1 1.086 5.465ZM252.395 288.828a14.232 14.232 0 0 1-2.406 7.934c-.52.777-1.114 1.5-1.774 2.164a14.409 14.409 0 0 1-4.633 3.094 14.232 14.232 0 0 1-5.465 1.085 14.204 14.204 0 0 1-5.46-1.085 14.29 14.29 0 0 1-6.41-5.258c-.52-.782-.962-1.602-1.317-2.469a13.95 13.95 0 0 1-.813-2.68 14.179 14.179 0 0 1 0-5.57c.18-.918.453-1.813.813-2.68.355-.863.797-1.687 1.316-2.465a14.315 14.315 0 0 1 6.41-5.262 14.183 14.183 0 0 1 2.676-.808 14.179 14.179 0 0 1 5.57 0c.922.18 1.813.453 2.68.809.867.36 1.688.8 2.469 1.32a14.51 14.51 0 0 1 2.164 1.777 14.373 14.373 0 0 1 3.094 4.629 14.32 14.32 0 0 1 1.086 5.465Zm0 0"/></svg>