<svg xmlns="http://www.w3.org/2000/svg" width="500" height="500" version="1.0" viewBox="0 0 375 375"><defs><clipPath id="a"><path d="M131.25 131.25h112.5v112.5h-112.5Zm0 0"/></clipPath></defs><g clip-path="url(#a)"><path fill="#fff" d="M131.25 131.25h112.5v112.5h-112.5Zm0 0"/></g><path fill="#f9943b" d="M320.078 54.918C284.664 19.504 237.578 0 187.496 0 137.414 0 90.332 19.504 54.918 54.918 19.504 90.328 0 137.414 0 187.496c0 50.082 19.504 97.168 54.918 132.582 35.414 35.414 82.496 54.914 132.578 54.914 50.082 0 97.168-19.5 132.582-54.914 35.414-35.414 54.914-82.5 54.914-132.582 0-50.082-19.5-97.168-54.914-132.578ZM63.426 63.426c33.14-33.14 77.203-51.395 124.07-51.395 46.871 0 90.934 18.254 124.074 51.395 33.14 33.14 51.39 77.203 51.39 124.07 0 38.961-12.624 75.98-35.917 106.399-18.54-25.918-48.14-41.235-80.29-41.235H128.239c-32.148 0-61.75 15.317-80.289 41.235-23.293-30.422-35.918-67.438-35.918-106.399 0-46.867 18.254-90.93 51.395-124.07Zm124.07 179.351c48.176 0 87.367-39.191 87.367-87.367 0-48.172-39.191-87.363-87.367-87.363-48.172 0-87.363 39.191-87.363 87.363 0 48.176 39.191 87.367 87.363 87.367Zm0 0"/></svg>