<svg xmlns="http://www.w3.org/2000/svg" width="1706.667" height="1578.667" version="1.0" viewBox="0 0 1280 1184"><path fill="#fff" d="M767 .6c-1.9.2-9.3.9-16.5 1.5C663.7 9.6 582.2 38.9 517 85.8c-65.9 47.5-123 118.8-161.1 201.3-4.4 9.6-9.1 18.4-10.4 19.5-1.5 1.4-4.3 2.4-8.2 2.8-13.7 1.6-30.3 7.1-47.6 15.8-23.1 11.5-37.8 21.7-65.7 45.7-21.2 18.3-38.1 30.8-44.3 32.7-1.2.4-2.5 1.1-2.8 1.5-1.1 1.8-17.9 7.9-32.4 11.8-18.6 4.9-29.4 8.8-41.2 14.9C82 442.7 63.5 459 44.8 483.6c-12.3 16.2-12.1 16-25.7 25.4-7.4 5.1-11 7-12.5 6.6-3.1-.8-4.2.4-5 5.4-.3 2.5-.9 6.2-1.2 8.3-.8 5 2.5 11.5 11.6 23 3.8 4.9 9.5 13.4 12.6 19 8.2 14.9 11.4 19.5 18.4 26.5 8.8 8.8 22.3 17.4 45.9 29.2 15.3 7.7 23 12.2 31 18.3 18 13.7 35.9 21.8 61.1 27.7 20.8 4.7 26.4 6.9 39.9 14.9l12.5 7.4-10.8 3.7c-13.9 5-33.3 14.7-42.1 21.2-10.6 7.8-24.2 22.2-31.6 33.3-11.3 16.8-17.4 30.7-23.8 53.4-11.8 41.9-12.5 84.8-1.7 118.1 4.3 13.2 11.8 33.5 12.8 34.5.5.5.3-.8-.6-2.9-.9-2.2-1.5-4.1-1.3-4.3.2-.2 5.4 9.7 11.5 21.9 10.1 20.3 16.1 35.4 16.3 41.1 0 2.1.1 2.1.9.2.5-1.1.9-6.1.9-11 .2-19.2-3.3-36.5-11.3-56.8-2.6-6.5-6.3-16.6-8.3-22.5-3.3-9.7-3.6-11.7-3.7-22.2 0-13 1.4-18.1 8.3-28.6 8.9-13.8 30.7-35.1 66.3-64.7 24.7-20.6 37.8-36.4 48.3-58.2 5.2-10.9 8.7-22.2 10-32.3.4-2.8.8-5.2.9-5.2.1 0 3.6 1.1 7.7 2.5s13 4.2 19.9 6.1c6.9 2 13.3 4.3 14.4 5.2 1.6 1.5 1.7 2.7 1.1 10.6-1.2 15.1-.7 41.8 1 54.8 4.5 34 13.4 63.4 29.1 95.5 11.4 23.4 20.8 37.2 42.7 63 5.7 6.5 12.5 18.7 16.8 29.6 6 15.2 25.2 37.2 40.5 46.1 12.4 7.3 35.2 13.6 49.3 13.6 4.4 0 4.6.2 16.9 13.1 13.4 14 24.5 23.2 36.3 30.2 7.5 4.4 24 11.9 24.7 11.2.9-.9-2.3-7.9-7.9-17.1-8.3-13.4-10.8-18.6-13.5-27.4-1.3-4.1-2.4-7.8-2.4-8.3 0-.4 3.7-.7 8.3-.8l8.2-.1-9.2-2.6-9.1-2.6-3.1-12.6c-7.6-31.6-12.1-70.3-12.1-105.5 0-21.7.8-32 3.6-48.8l1.7-9.7 7.4 14.2c17.9 34.3 39 65.6 62 91.8 19.6 22.2 37.1 37.6 62.8 54.9 32.4 21.9 59.3 35.6 153 78.3 12.1 5.5 25.8 12 30.5 14.3 16.4 8.2 42.4 19.7 44.9 19.8 2.4.2 2.6-.1 2.5-3.5-.2-6.3-10.2-21.4-23.3-35.1-2.5-2.7-11.4-10.2-19.7-16.7-25.6-20.1-25.3-19.6-34.5-59.6-6.6-28.9-11.5-39.8-26.1-57.4-13.5-16.3-17.2-21.5-20.5-28.6-6.4-13.8-1-28.9 11.5-32.4 4.2-1.1 13.1-1.3 22.1-.4l6.2.7 3.6 6.6c20.6 37.9 36.1 59.9 50.5 71.7 4 3.3 13.6 10.7 21.3 16.4 62.3 46.4 85.4 85.1 103.5 173.4 1.6 7.6 3.1 14.1 3.4 14.4.3.3.6-14.1.6-32 0-49.6-3.3-74-13.2-98.4-6.3-15.4-24.3-44.1-39.7-63.3-11.6-14.4-17.5-23.4-20.8-31.3-2.3-5.4-2.7-7.8-2.7-16.3 0-9.3.3-10.7 4.1-20.5 9.4-24.1 11.4-32.1 11.4-44.6 0-12-2.2-18.8-13.1-40.9-5.5-11-10.8-22.9-11.7-26.5-2-7.3-2.2-22-.9-55 .8-18 .7-20.2-1.3-28.2-2.2-9.4-7-22.9-13.3-37.3-4.4-10.3-4.3-10.2 4.3 2.5 7.5 11.2 19.8 24 25.4 26.4 3.6 1.6 5.1 3.6 15.2 20.4 36.7 61.5 75.1 141.8 92.3 193.1 9.5 28.6 14.8 55.7 16.3 83.1l.2 4.5 3.6-7c8.7-16.8 15.5-38.9 18.4-59.9 2.7-19.4 1.7-56.8-2-79.3-3.8-22.5-8.8-43.6-13.1-54.6-.5-1.4 1.4-.7 8.1 2.7 18.2 9.4 25.8 7.6 24-5.7-.3-2.7-.2-4.7.2-4.5.4.2 3.7 1.8 7.2 3.7 3.5 1.8 11.4 5.2 17.5 7.6 10.7 4.2 17 5.9 37.8 10.5 11 2.4 20.9 6.9 22.6 10.2.7 1.3 2.4 5.9 3.8 10.3 7.7 23.5 14.9 32.6 35.5 45 15.5 9.4 21.2 14.4 22.8 19.9.9 3.5.4 6.6-4.4 26.6-11.9 49.3-15.7 73.8-15.8 100.5-.1 33.4 6.6 54.8 22 70.4 2.8 2.9 2.8 3-.1-5.7-3.6-10.5-5-21.7-4.3-34.6.9-17 4.3-28.7 18.5-65.1 16.6-42.3 22.6-72.8 23.8-120 1.2-42.9-3.5-81.5-14.6-121.5-2-7.4-5.6-20.3-7.9-28.5-9.4-33.9-25.1-64.9-52.4-103.8-27.8-39.8-61.5-72.2-105.2-101.4-41.8-27.9-92.4-52.1-147.9-70.7-35.3-11.9-67.1-19.9-128.1-32.2-31.1-6.3-44.5-9.7-61.1-15.5-25.6-9-49.2-21-75.8-38.7-18.3-12.2-18.3-11.1.4-13.7 36.9-5.1 84 5 129.4 27.7 4.9 2.5 7.7 3.4 7.3 2.5-2.7-7-5.1-23.4-5.1-34.7 0-14.3 1.2-19.4 8.1-37 3.8-9.6 4.6-12.9 5.1-20.2 1.3-23-8.7-44.5-28.6-61.2-10.4-8.7-19.9-18.5-21.1-21.8-.6-1.5-.8-5.6-.4-9.1.3-3.5.2-7.1-.3-7.9-1.4-2.5-10.2-8.8-17.9-12.9-6.2-3.3-18.6-8.1-38-14.7-5-1.7-5.6-2.1-3.5-2.5 10.5-2.2 21.4-5.1 26.1-6.9l5.7-2.2-4.3-5.3c-7.3-8.9-9.9-15.4-10.3-25.5-.5-10.8 1-15.8 11.3-38.3 4-8.8 7.6-17.6 7.9-19.5.4-2.3-.1-6.4-1.4-11-4.2-15.5-4.6-19.3-2.6-25.7 2.1-6.8 6.9-14.9 13.4-23 2.5-3.2 6.1-7.7 8-10.1l3.4-4.2-4.3.2c-2.4 0-6 .3-7.9.4zM653.6 580.5c4.4 2.9 15 11.7 23.5 19.5 8.5 7.9 20.4 18.5 26.4 23.5 6.1 5.1 12.6 11 14.5 13.1 3.7 4.1 7.4 12.2 10.8 23.4 16.8 55.7 27.9 88.2 46.4 136.3 3.3 8.7 5.9 16 5.6 16.2-.2.2-4.9-1.4-10.3-3.6-18.2-7.3-44.9-15-64-18.4-16.9-3.1-16.7-3.1-72-7.6-22.6-1.8-39.5-5.4-54.2-11.4-16.1-6.5-25.9-13-45.2-29.9-5.7-5-13.4-11.6-17.1-14.7l-6.8-5.6 9.7-4.7c64.1-31.7 106.7-85.2 114.7-143.8l.6-4.6 4.7 3.5c2.5 2 8.2 5.9 12.7 8.8zM400.6 740c4.4.5 13.1 1.1 19.2 1.2 6.2 0 11.3.1 11.3.2.1.1.5 27.3.9 60.6.7 54.7 1 61.8 2.9 74.5 3.9 25.2 8.9 45.3 17.8 71.4 4.1 12 6.4 18 11.8 30.5l1.6 3.9-4.8-2.8c-12.2-7.1-25.8-18.1-33.9-27.6-6.6-7.7-13.8-22-15.5-30.6-1.6-8.5-.6-26.8 2-36.8 7.2-27.6 7.6-30.1 7.4-48-.2-27-4-43.9-14.8-66.1-6.7-13.8-11.4-19.9-21.9-28.4-3-2.5-5.5-4.8-5.6-5.1 0-.3 3 0 6.8.7 3.7.7 10.3 1.8 14.8 2.4zm70.4 4.1c15.6 11.7 30 28.9 38.4 45.7l3.7 7.3-7.8-6.2c-4.2-3.4-11.8-8.8-16.8-12.1-14.5-9.7-25.2-21.2-30.5-33.1-2.7-5.9-2.5-7.5.8-7.9 3.3-.5 3-.6 12.2 6.3zm-7.5 245.7c6.9 1.7 6.9 1.7 10.3 7.7 1.8 3.3 4.7 8.4 6.3 11.2l3 5.2-8.3-3.7c-16.8-7.4-33.2-19.1-31.3-22.1 1-1.7 9.7-.9 20 1.7z"/></svg>