<?xml version="1.0" standalone="no"?>
<!DOCTYPE svg PUBLIC "-//W3C//DTD SVG 20010904//EN"
 "http://www.w3.org/TR/2001/REC-SVG-20010904/DTD/svg10.dtd">
<svg version="1.0" xmlns="http://www.w3.org/2000/svg"
 width="1280.000000pt" height="960.000000pt" viewBox="0 0 1280.000000 960.000000"
 preserveAspectRatio="xMidYMid meet">
<metadata>
Created by potrace 1.15, written by Peter Selinger 2001-2017
</metadata>
<g transform="translate(0.000000,960.000000) scale(0.100000,-0.100000)"
fill="#ffffff" stroke="none">
<path d="M0 9572 c0 -26 4 -29 33 -30 24 -1 34 3 34 14 0 10 -7 12 -21 8 -17
-5 -19 -4 -8 7 19 20 15 29 -13 29 -21 0 -25 -5 -25 -28z"/>
<path d="M2770 9524 c-109 -99 -190 -412 -190 -739 0 -169 13 -246 59 -356 26
-64 95 -187 133 -240 9 -13 -2 -30 -61 -99 -86 -100 -147 -217 -164 -316 -10
-59 -19 -78 -60 -128 -175 -214 -257 -497 -257 -886 0 -132 4 -180 20 -240 11
-41 20 -78 20 -81 0 -4 -138 -9 -307 -12 -327 -6 -492 -20 -699 -63 -239 -48
-382 -107 -606 -247 -431 -269 -608 -473 -634 -733 -6 -59 -5 -66 20 -99 128
-168 835 -348 1550 -396 195 -13 548 -7 706 11 308 36 604 134 792 261 31 22
59 39 61 39 3 0 24 -26 48 -57 102 -138 296 -313 450 -408 26 -16 55 -44 65
-64 30 -56 162 -182 254 -243 111 -72 272 -152 440 -219 96 -37 149 -65 185
-95 157 -131 373 -234 629 -299 81 -20 163 -49 214 -74 144 -73 346 -130 561
-161 40 -6 127 -26 194 -45 307 -87 533 -117 907 -119 235 -2 301 -6 377 -21
l93 -19 -163 -166 c-348 -354 -581 -630 -657 -780 -40 -79 -111 -270 -195
-520 l-72 -215 -129 -106 c-294 -242 -421 -375 -572 -598 -53 -77 -63 -86
-132 -121 -95 -48 -236 -141 -318 -209 -85 -71 -163 -168 -213 -265 -23 -45
-69 -126 -102 -181 -95 -158 -82 -202 60 -212 266 -18 847 123 1278 310 205
89 1029 499 1210 602 488 277 807 557 980 861 97 170 252 576 295 774 14 60
23 149 27 240 6 178 -13 283 -80 450 l-45 111 162 78 c343 165 604 320 656
393 55 75 167 327 216 486 4 14 43 -13 344 -242 256 -195 243 -186 365 -261
215 -134 591 -313 822 -392 l108 -38 175 1 c179 2 350 19 521 54 l94 20 152
-42 153 -41 35 24 c85 57 175 214 223 389 20 76 26 118 26 215 1 112 -1 125
-30 197 -84 207 -308 449 -555 599 -110 67 -393 205 -541 263 -194 77 -380
114 -661 132 l-97 6 -203 180 c-111 99 -208 185 -214 192 -7 6 -17 47 -23 91
-6 44 -13 94 -15 111 l-5 31 92 33 c300 107 492 250 661 492 364 522 530 1180
401 1588 -74 234 -335 519 -704 769 -390 264 -805 436 -949 392 -35 -10 -42
-17 -52 -54 -22 -78 14 -265 146 -752 65 -243 95 -398 95 -497 l0 -84 -80
-130 c-44 -71 -80 -132 -80 -136 0 -21 -30 -2 -85 51 -33 32 -139 119 -236
194 -532 409 -1099 702 -1681 871 -501 145 -1485 288 -2453 356 -114 8 -779
-3 -882 -15 -27 -3 -70 -7 -98 -10 -413 -41 -585 -79 -719 -160 l-56 -33 -52
101 c-86 169 -196 324 -290 410 -116 107 -394 327 -447 354 -32 17 -62 23
-108 23 -58 0 -66 -3 -103 -36z"/>
</g>
</svg>
