<svg xmlns="http://www.w3.org/2000/svg" width="1706.667" height="1280" version="1.0" viewBox="0 0 1280 960"><g fill="#fff"><path d="M0 2.8c0 2.6.4 2.9 3.3 3 2.4.1 3.4-.3 3.4-1.4 0-1-.7-1.2-2.1-.8-1.7.5-1.9.4-.8-.7C5.7.9 5.3 0 2.5 0 .4 0 0 .5 0 2.8zM277 7.6c-10.9 9.9-19 41.2-19 73.9 0 16.9 1.3 24.6 5.9 35.6 2.6 6.4 9.5 18.7 13.3 24 .9 1.3-.2 3-6.1 9.9-8.6 10-14.7 21.7-16.4 31.6-1 5.9-1.9 7.8-6 12.8-17.5 21.4-25.7 49.7-25.7 88.6 0 13.2.4 18 2 24 1.1 4.1 2 7.8 2 8.1 0 .4-13.8.9-30.7 1.2-32.7.6-49.2 2-69.9 6.3-23.9 4.8-38.2 10.7-60.6 24.7C22.7 375.2 5 395.6 2.4 421.6c-.6 5.9-.5 6.6 2 9.9 12.8 16.8 83.5 34.8 155 39.6 19.5 1.3 54.8.7 70.6-1.1 30.8-3.6 60.4-13.4 79.2-26.1 3.1-2.2 5.9-3.9 6.1-3.9.3 0 2.4 2.6 4.8 5.7 10.2 13.8 29.6 31.3 45 40.8 2.6 1.6 5.5 4.4 6.5 6.4 3 5.6 16.2 18.2 25.4 24.3 11.1 7.2 27.2 15.2 44 21.9 9.6 3.7 14.9 6.5 18.5 9.5 15.7 13.1 37.3 23.4 62.9 29.9 8.1 2 16.3 4.9 21.4 7.4 14.4 7.3 34.6 13 56.1 16.1 4 .6 12.7 2.6 19.4 4.5 30.7 8.7 53.3 11.7 90.7 11.9 23.5.2 30.1.6 37.7 2.1l9.3 1.9-16.3 16.6c-34.8 35.4-58.1 63-65.7 78-4 7.9-11.1 27-19.5 52l-7.2 21.5-12.9 10.6c-29.4 24.2-42.1 37.5-57.2 59.8-5.3 7.7-6.3 8.6-13.2 12.1-9.5 4.8-23.6 14.1-31.8 20.9-8.5 7.1-16.3 16.8-21.3 26.5-2.3 4.5-6.9 12.6-10.2 18.1-9.5 15.8-8.2 20.2 6 21.2 26.6 1.8 84.7-12.3 127.8-31 20.5-8.9 102.9-49.9 121-60.2 48.8-27.7 80.7-55.7 98-86.1 9.7-17 25.2-57.6 29.5-77.4 1.4-6 2.3-14.9 2.7-24 .6-17.8-1.3-28.3-8-45l-4.5-11.1 16.2-7.8c34.3-16.5 60.4-32 65.6-39.3 5.5-7.5 16.7-32.7 21.6-48.6.4-1.4 4.3 1.3 34.4 24.2 25.6 19.5 24.3 18.6 36.5 26.1 21.5 13.4 59.1 31.3 82.2 39.2l10.8 3.8 17.5-.1c17.9-.2 35-1.9 52.1-5.4l9.4-2 15.2 4.2 15.3 4.1 3.5-2.4c8.5-5.7 17.5-21.4 22.3-38.9 2-7.6 2.6-11.8 2.6-21.5.1-11.2-.1-12.5-3-19.7-8.4-20.7-30.8-44.9-55.5-59.9-11-6.7-39.3-20.5-54.1-26.3-19.4-7.7-38-11.4-66.1-13.2l-9.7-.6-20.3-18c-11.1-9.9-20.8-18.5-21.4-19.2-.7-.6-1.7-4.7-2.3-9.1-.6-4.4-1.3-9.4-1.5-11.1l-.5-3.1 9.2-3.3c30-10.7 49.2-25 66.1-49.2 36.4-52.2 53-118 40.1-158.8-7.4-23.4-33.5-51.9-70.4-76.9-39-26.4-80.5-43.6-94.9-39.2-3.5 1-4.2 1.7-5.2 5.4-2.2 7.8 1.4 26.5 14.6 75.2 6.5 24.3 9.5 39.8 9.5 49.7v8.4l-8 13c-4.4 7.1-8 13.2-8 13.6 0 2.1-3 .2-8.5-5.1-3.3-3.2-13.9-11.9-23.6-19.4-53.2-40.9-109.9-70.2-168.1-87.1C747.7 92.1 649.3 77.8 552.5 71c-11.4-.8-77.9.3-88.2 1.5-2.7.3-7 .7-9.8 1-41.3 4.1-58.5 7.9-71.9 16l-5.6 3.3-5.2-10.1c-8.6-16.9-19.6-32.4-29-41C331.2 31 303.4 9 298.1 6.3c-3.2-1.7-6.2-2.3-10.8-2.3-5.8 0-6.6.3-10.3 3.6z"/></g></svg>