<svg xmlns="http://www.w3.org/2000/svg" xmlns:xlink="http://www.w3.org/1999/xlink" width="1000" zoomAndPan="magnify" viewBox="0 0 750 749.999995" height="1000" preserveAspectRatio="xMidYMid meet" version="1.0"><defs><clipPath id="0e6e1d3d9f"><path d="M 375 0 C 167.894531 0 0 167.894531 0 375 C 0 582.105469 167.894531 750 375 750 C 582.105469 750 750 582.105469 750 375 C 750 167.894531 582.105469 0 375 0 Z M 375 0 " clip-rule="nonzero"/></clipPath></defs><g clip-path="url(#0e6e1d3d9f)"><rect x="-75" width="900" fill="#ff914d" y="-74.999999" height="899.999994" fill-opacity="1"/></g><path stroke-linecap="butt" transform="matrix(0.901432, 0.582872, -0.582872, 0.901432, 230.475195, -25.967923)" fill-opacity="1" fill="#000000" fill-rule="evenodd" stroke-linejoin="round" d="M 145.768855 197.380696 C 145.774967 197.376744 145.796725 197.336675 145.797805 197.331643 C 145.795829 197.328587 145.789189 197.298214 145.787213 197.295158 C 145.695567 196.704409 145.700259 196.081701 145.78564 195.463153 C 146.255973 192.008662 149.437143 189.583356 152.891634 190.053689 C 155.049546 190.348388 156.79575 191.715309 157.694819 193.53466 C 157.696795 193.537716 157.736864 193.559474 157.741896 193.560554 C 165.171486 194.012923 179.885212 201.334122 184.054228 197.347058 C 187.146968 194.389591 183.24739 187.507641 179.733539 182.126965 C 179.727427 182.130917 179.697053 182.137557 179.693997 182.139533 C 178.5465 182.777511 177.178969 183.055093 175.775644 182.861814 C 172.321152 182.391481 169.934308 179.202775 170.404641 175.748283 C 170.874974 172.293792 174.056144 169.868486 177.510636 170.338819 C 180.965127 170.809152 183.390433 173.990322 182.9201 177.444814 C 182.861739 177.863888 182.729695 178.282939 182.596044 178.672696 C 182.596044 178.672696 182.602684 178.70307 182.606635 178.709181 C 189.981031 183.747294 200.475945 192.847396 201.379358 201.341684 C 207.591528 200.219551 215.601131 198.177855 222.93409 194.506656 C 219.409797 180.149624 218.7711 166.019771 222.209683 153.799238 C 222.207707 153.796183 222.203044 153.768865 222.199092 153.762753 C 202.833566 146.706409 198.689413 129.045139 197.926941 119.281037 C 196.844921 116.903975 196.367919 114.209372 196.678453 111.425882 C 197.453235 104.541826 202.83213 99.282772 209.382109 98.32788 C 219.719644 85.819486 234.559429 69.745563 243.340119 70.732651 C 252.508796 71.763534 264.155083 91.758622 271.504327 106.368112 C 271.509359 106.369192 271.537757 106.359497 271.542788 106.360576 C 276.146112 109.338105 278.945399 114.786486 278.292624 120.599305 C 278.287937 120.64567 278.291521 120.67802 278.286834 120.724385 C 278.285754 120.729416 278.295449 120.757814 278.294369 120.762846 C 278.535908 121.31734 278.644902 121.606535 278.644902 121.606535 C 278.644902 121.606535 274.860889 153.645992 244.498192 156.543198 C 246.703256 162.835147 248.483518 170.125451 253.608279 175.651848 C 256.737463 179.02356 259.720322 181.384872 262.851607 183.23854 C 272.513647 179.604026 288.151932 169.643866 296.916285 163.803437 C 294.612274 156.145452 298.127154 144.746596 301.217327 137.435737 C 300.588441 137.079704 300.037582 136.629884 299.541037 136.049609 C 297.285035 133.39164 297.594336 129.399933 300.250329 127.140875 C 302.908298 124.884874 306.900005 125.194174 309.159063 127.850167 C 311.41812 130.50616 311.10774 134.502899 308.449771 136.758901 C 307.454785 137.605936 306.268873 138.104085 305.058817 138.236508 C 304.928943 144.261557 305.320857 151.730234 309.670567 152.56639 C 315.952085 153.769778 324.46438 139.772231 331.311586 136.623127 C 331.311586 136.623127 331.339984 136.613432 331.348071 136.612536 C 331.243545 134.708433 331.987093 132.788965 333.551027 131.461377 C 336.20702 129.20232 340.20376 129.5127 342.457785 132.167613 C 344.716843 134.823606 344.368001 138.827881 341.712008 141.086939 C 340.038779 142.506865 337.855314 142.88303 335.891939 142.319541 C 335.888883 142.321517 335.863541 142.329236 335.855454 142.330132 C 330.531562 147.553621 315.308931 153.63964 315.494719 159.395577 C 315.632453 163.683237 323.37795 165.361356 329.740412 166.334735 C 330.028902 165.051849 330.721004 163.850322 331.79976 162.931788 C 334.455752 160.672731 338.449436 160.985087 340.708494 163.64108 C 342.967551 166.297073 342.655195 170.290757 339.999202 172.549814 C 337.341233 174.805816 333.349525 174.496515 331.090468 171.840522 C 330.809501 171.506524 330.559277 171.139648 330.356497 170.772428 C 321.36147 172.978968 306.839829 174.781009 300.203551 169.074955 C 297.533333 175.373259 292.839916 183.863788 284.820487 191.935243 C 286.670063 192.624316 288.621145 193.416757 290.700522 194.273577 C 309.208642 201.866992 325.164752 201.780777 350.379521 208.547667 C 365.274017 212.549607 391.389922 228.189261 412.402372 244.199479 C 418.362415 238.52565 427.890834 234.054525 435.426089 231.145199 C 433.934978 223.316923 438.456462 212.402537 442.191511 205.45904 C 441.610806 205.050185 441.105438 204.523283 440.67396 203.909602 C 438.676091 201.05439 439.369428 197.100364 442.227696 195.100519 C 445.082909 193.102649 448.995417 193.805498 450.995263 196.663766 C 452.993132 199.518979 452.302851 203.471028 449.444583 205.470874 C 448.373249 206.21994 447.176058 206.586714 445.961545 206.605018 C 445.263967 212.58981 444.95338 220.057724 449.205556 221.299284 C 455.35264 223.09227 465.147289 209.925231 472.265464 207.46326 C 472.34658 205.564787 473.265685 203.722473 474.938476 202.549833 C 477.796744 200.549987 481.747714 201.2453 483.745584 204.100513 C 485.745429 206.958781 485.053172 210.907775 482.194903 212.90762 C 480.39269 214.168279 478.167067 214.311701 476.259822 213.560249 C 476.256766 213.562225 476.231424 213.569945 476.223337 213.570841 C 470.442418 218.275169 454.715068 222.923855 454.361896 228.677285 C 454.095994 232.957268 461.65095 235.339265 467.891017 236.907459 C 468.301163 235.658578 469.09029 234.519982 470.251321 233.708583 C 473.106533 231.710714 477.060559 232.404051 479.058428 235.259264 C 481.056298 238.114476 480.36296 242.068502 477.507748 244.066371 C 474.652535 246.064241 470.69851 245.370903 468.70064 242.515691 C 468.461191 242.172181 468.279985 241.778011 468.119618 241.409367 C 468.114586 241.408287 468.083133 241.419958 468.081157 241.416902 C 459.946021 242.621092 447.524956 243.047552 440.592789 238.720169 C 437.591222 244.318382 433.851967 251.489934 430.20746 259.102895 C 435.928392 264.438806 440.382293 269.363308 442.836978 273.400825 C 454.435758 292.46462 470.884755 325.335765 453.080481 361.500765 C 435.240779 397.745007 400.619602 411.299872 373.089988 409.457486 C 345.32747 407.596695 296.250798 384.534373 299.85844 343.690853 C 303.381135 303.794938 336.788583 282.713446 345.753492 304.546333 C 354.752335 326.478614 320.280167 320.761901 318.362924 348.591254 C 316.493889 375.717761 380.505394 407.609332 413.294214 377.663073 C 447.556399 346.369787 447.037306 315.570064 424.44415 290.346488 C 421.091868 287.769041 417.575905 285.635436 413.910299 283.880261 C 409.247568 290.25359 405.90138 297.322651 403.577543 303.392648 C 403.577543 303.392648 403.584183 303.423022 403.585079 303.43111 C 410.148855 307.684692 415.236963 317.698177 417.985946 324.791104 C 418.000145 324.786256 418.011288 324.783384 418.025487 324.778536 C 418.701085 324.610359 419.447999 324.539071 420.177795 324.608853 C 423.650301 324.946203 426.158296 328.060905 425.822025 331.528379 C 425.484675 335.000884 422.419025 337.537829 418.951552 337.201558 C 415.479046 336.864208 412.93151 333.762073 413.268861 330.289568 C 413.395074 328.990276 413.905829 327.836675 414.681055 326.897737 C 410.584444 322.478884 405.086993 317.401472 401.381957 319.827509 C 396.026623 323.333641 399.644392 339.302917 396.908528 346.324009 C 396.910504 346.327065 396.922175 346.358519 396.921095 346.36355 C 398.317061 347.657935 399.123561 349.528475 398.927382 351.570682 C 398.588055 355.040131 395.485921 357.587667 392.016471 357.248341 C 388.545942 356.914047 386.008997 353.848397 386.343292 350.377868 C 386.556772 348.181472 387.881304 346.363008 389.697439 345.405352 C 389.865324 337.964708 396.615122 322.970447 392.468422 318.956653 C 389.392309 315.975298 382.658711 320.164622 377.412394 323.886266 C 378.097106 325.012212 378.429508 326.357297 378.29068 327.764413 C 377.95333 331.236918 374.851195 333.784454 371.378689 333.447104 C 368.535163 333.171057 366.296252 331.022043 365.77755 328.350071 C 365.663618 327.765066 365.637751 327.162117 365.697974 326.538169 C 366.037301 323.06872 369.137459 320.518128 372.609965 320.855478 C 373.032279 320.898744 373.434259 321.024492 373.82528 321.139993 C 373.833367 321.139097 373.863741 321.132457 373.863741 321.132457 C 378.474484 313.787399 386.812945 303.334295 395.031095 301.608423 C 393.555538 294.038761 392.373157 285.139848 392.902449 277.695186 C 377.189711 275.396674 360.459772 277.114266 345.064507 279.026193 C 315.481825 282.875054 273.064124 280.60596 249.816958 249.833866 C 241.278752 238.532531 233.782777 225.317934 228.434517 211.685288 C 219.32366 211.930033 208.38468 209.019138 200.624738 206.427349 C 197.450494 214.191239 185.387377 219.828979 177.226751 222.635669 C 177.380361 223.342353 177.421828 224.05655 177.320408 224.811136 C 176.850076 228.265628 173.668906 230.690933 170.214414 230.2206 C 166.759922 229.750268 164.334617 226.569098 164.80495 223.114606 C 165.275283 219.660114 168.458429 217.237865 171.91292 217.708198 C 173.209501 217.883832 174.355359 218.442927 175.2605 219.253006 C 179.834391 215.32915 185.103302 210.067545 182.820886 206.269642 C 179.522546 200.779949 163.396213 203.792931 156.499214 200.773158 C 155.151113 202.112855 153.216081 202.839722 151.191152 202.563036 C 148.447938 202.187459 146.319172 200.101561 145.811221 197.526637 C 145.806373 197.512438 145.79291 197.46481 145.790038 197.453666 C 145.791118 197.448635 145.779447 197.417181 145.780527 197.412149 C 145.778551 197.409094 145.771911 197.37872 145.769935 197.375664 Z M 145.768855 197.380696 " stroke="#000000" stroke-width="2" stroke-opacity="1" stroke-miterlimit="4"/></svg>