<svg xmlns="http://www.w3.org/2000/svg" width="1000" height="1000" version="1.0" viewBox="0 0 750 750"><defs><clipPath id="a"><path d="M375 0C167.895 0 0 167.895 0 375s167.895 375 375 375 375-167.895 375-375S582.105 0 375 0Zm0 0"/></clipPath></defs><g clip-path="url(#a)"><path fill="#ff914d" d="M-75-75h900v900H-75z"/></g><path fill-rule="evenodd" stroke="#000" stroke-linejoin="round" stroke-width="2.14692" d="M246.828 236.922c.008 0 .051-.024.055-.027 0-.004.012-.036.012-.04a6.818 6.818 0 0 1 1.066-1.652c2.438-2.84 6.719-3.172 9.559-.734 1.773 1.523 2.55 3.773 2.3 5.937 0 .004.024.047.028.051 6.433 4.738 15.43 19.914 21.511 18.75 4.512-.863 5.008-9.34 4.977-16.238-.008 0-.039-.012-.043-.012a6.747 6.747 0 0 1-3.953-1.633c-2.84-2.437-3.133-6.703-.695-9.543 2.437-2.84 6.718-3.172 9.558-.734 2.84 2.437 3.172 6.719.735 9.559-.297.343-.66.644-1.008.917 0 0-.012.032-.012.04 3.711 8.84 7.867 23.16 3.73 31.343 6.254 2.61 14.665 5.438 23.415 6.403 5.191-14.996 12.851-28.106 23.074-37.118 0-.003.012-.03.012-.039-13.344-17.648-6.786-35.984-1.782-45.23.41-2.774 1.551-5.48 3.453-7.809 4.711-5.754 12.625-7.36 19.086-4.402 16.61-5.25 39.356-11.09 46.696-5.082 7.664 6.273 6.508 31.086 4.617 48.539.004.004.035.012.039.016 2.414 5.367 1.762 11.91-2.215 16.77-.031.038-.047.07-.078.109-.004.003-.012.035-.016.039-.105.64-.175.964-.175.964s-22.086 26.676-51.145 11.59c-1.68 6.957-4.324 14.567-2.926 22.535.856 4.864 2.168 8.73 3.91 12.227 10.829 2.355 30.73 2.492 42.036 2.336 2.386-8.246 12.199-16.473 19.246-21.262a6.634 6.634 0 0 1-.703-2.226c-.485-3.711 2.12-7.13 5.832-7.618 3.71-.484 7.129 2.122 7.617 5.832.488 3.711-2.121 7.133-5.832 7.618a6.754 6.754 0 0 1-3.918-.645c-3.63 5.356-7.63 12.317-4.196 15.606 4.961 4.746 20.793-2.91 28.801-1.758 0 0 .032.008.04.012a6.731 6.731 0 0 1 4.988-3.36c3.71-.488 7.132 2.121 7.617 5.828.488 3.711-2.16 7.117-5.871 7.606-2.336.304-4.524-.63-5.965-2.282a.21.21 0 0 1-.04-.011c-7.843 1.605-25.112-1.781-28.3 3.515-2.375 3.946 3.629 9.973 8.797 14.559a6.718 6.718 0 0 1 3.84-1.867c3.71-.488 7.129 2.12 7.617 5.832.488 3.71-2.121 7.129-5.832 7.617-3.711.484-7.129-2.121-7.617-5.832a7.235 7.235 0 0 1-.04-1.39c-9.394-3.255-23.535-10.094-26.19-19.106a78.344 78.344 0 0 1-27.192 11.64c1.265 1.7 2.562 3.551 3.937 5.536 12.258 17.633 26.692 26.855 45.477 47.652 11.094 12.29 25.52 41.61 35.129 68.29 8.68-1.642 19.875-.118 28.363 1.651 3.219-7.925 13.656-15.128 21.07-19.21a6.783 6.783 0 0 1-.464-2.282c-.137-3.738 2.793-6.898 6.535-7.035 3.738-.137 6.855 2.777 6.992 6.52.137 3.738-2.79 6.898-6.531 7.035a6.642 6.642 0 0 1-3.801-1.008c-4.117 4.988-8.75 11.539-5.64 15.137 4.495 5.199 21-.961 28.85.968 1.18-1.664 3.083-2.789 5.274-2.87 3.742-.137 6.899 2.792 7.035 6.53.137 3.743-2.789 6.899-6.53 7.036-2.36.086-4.45-1.082-5.731-2.871a.21.21 0 0 1-.04-.012c-7.952.871-24.84-4.106-28.511.875-2.734 3.703 2.687 10.254 7.398 15.305a6.717 6.717 0 0 1 3.993-1.508c3.738-.137 6.898 2.793 7.035 6.531.136 3.738-2.793 6.898-6.531 7.035-3.739.137-6.899-2.793-7.036-6.531-.015-.45.051-.91.121-1.336-.003-.004-.039-.012-.039-.016-8.035-3.656-19.48-10.511-23.207-18.453-5.968 3.297-13.52 7.582-21.242 12.32 2.047 8.145 3.192 15.18 3.05 20.25-.655 23.946-4.987 63.165-42.116 85.387-37.207 22.274-76.317 14.313-100.059-3.394-23.941-17.86-54.738-67.254-27.68-101.969 26.43-33.91 68.832-33.441 64.188-8.535-4.672 25.016-32.414-.23-50.363 23.738-17.496 23.364 21.617 89.422 68.629 81.54 49.125-8.239 66.609-36.305 60.945-72.212a63.388 63.388 0 0 0-5.727-11.968c-7.918 3.027-15.054 7.449-20.687 11.566l-.016.039c3.438 7.66 2.188 19.652.531 27.648l.043.012a6.954 6.954 0 0 1 2.04 1.102c2.933 2.328 3.378 6.597 1.054 9.527-2.328 2.934-6.57 3.434-9.5 1.11-2.933-2.329-3.422-6.61-1.094-9.543a6.695 6.695 0 0 1 3.25-2.235c-1.117-6.371-3.113-14.152-7.867-14.125-6.87.04-12.918 16.543-19.476 21.277 0 .004-.008.04-.012.043.504 1.98.14 4.137-1.227 5.864-2.328 2.93-6.609 3.418-9.539 1.09a6.754 6.754 0 0 1-1.109-9.5 6.774 6.774 0 0 1 5.922-2.528c4.488-6.61 19.312-16.191 17.914-22.226-1.035-4.48-9.547-4.63-16.445-4.332a6.71 6.71 0 0 1-1.47 4.007c-2.327 2.934-6.609 3.422-9.542 1.094-2.402-1.906-3.168-5.148-2.078-7.86a6.733 6.733 0 0 1 .984-1.679c2.328-2.93 6.61-3.422 9.543-1.094.356.286.645.633.93.965l.039.016c8.437-3.934 22.047-8.496 30.46-5.262 3.083-7.683 7.204-16.394 12.02-22.797-12.824-11.23-28.906-19.433-43.898-26.683-28.91-13.774-65.824-40.543-68.844-81.832-1.11-15.164-.164-31.446 2.961-46.852-8.356-5.09-16.52-14.09-22.004-20.95-7.387 5.15-21.547 3.2-30.539.974a6.656 6.656 0 0 1-1.184 2.015c-2.437 2.84-6.718 3.172-9.558.735-2.84-2.438-3.172-6.72-.735-9.56a6.78 6.78 0 0 1 9.559-.73 6.719 6.719 0 0 1 2.117 3.344c6.41-.87 14.227-2.543 14.383-7.297.227-6.87-16.066-13.554-20.523-20.297a6.774 6.774 0 0 1-5.829-1.48c-2.253-1.938-2.957-5.059-1.914-7.676l.024-.078c.004-.004.012-.039.015-.043 0-.004.012-.035.012-.039Zm0 0"/></svg>