<svg xmlns="http://www.w3.org/2000/svg" xmlns:xlink="http://www.w3.org/1999/xlink" width="500" zoomAndPan="magnify" viewBox="0 0 375 374.999991" height="500" preserveAspectRatio="xMidYMid meet" version="1.0"><path fill="#f3f2f2" d="M 0 187.5 C 0 83.964844 83.964844 0 187.5 0 C 291.035156 0 375 83.964844 375 187.5 C 375 291.035156 291.035156 375 187.5 375 C 83.964844 375 0 291.035156 0 187.5 Z M 0 187.5 " fill-opacity="1" fill-rule="nonzero"/><path fill="#a23c42" d="M 95.300781 288.390625 C 93.710938 289.148438 90.539062 289.980469 86.382812 289.980469 C 76.933594 289.980469 69.832031 284.007812 69.832031 272.898438 C 69.832031 262.320312 76.933594 255.214844 87.363281 255.214844 C 91.519531 255.214844 94.164062 256.121094 95.375 256.726562 L 94.242188 260.277344 C 92.652344 259.445312 90.3125 258.84375 87.515625 258.84375 C 79.65625 258.84375 74.363281 263.90625 74.363281 272.671875 C 74.363281 280.910156 79.125 286.199219 87.210938 286.199219 C 89.933594 286.199219 92.578125 285.671875 94.316406 284.839844 Z M 95.300781 288.390625 " fill-opacity="1" fill-rule="nonzero"/><path fill="#a23c42" d="M 100.742188 255.820312 L 105.125 255.820312 L 105.125 285.820312 L 119.484375 285.820312 L 119.484375 289.449219 L 100.742188 289.449219 Z M 100.742188 255.820312 " fill-opacity="1" fill-rule="nonzero"/><path fill="#a23c42" d="M 124.246094 255.820312 L 128.628906 255.820312 L 128.628906 289.449219 L 124.246094 289.449219 Z M 124.246094 255.820312 " fill-opacity="1" fill-rule="nonzero"/><path fill="#a23c42" d="M 159.6875 288.390625 C 158.175781 289.148438 154.925781 289.980469 150.847656 289.980469 C 141.398438 289.980469 134.296875 284.007812 134.296875 272.898438 C 134.296875 262.320312 141.398438 255.214844 151.828125 255.214844 C 155.984375 255.214844 158.628906 256.121094 159.839844 256.726562 L 158.707031 260.277344 C 157.117188 259.445312 154.777344 258.84375 151.980469 258.84375 C 144.121094 258.84375 138.832031 263.90625 138.832031 272.671875 C 138.832031 280.910156 143.589844 286.199219 151.679688 286.199219 C 154.398438 286.199219 157.042969 285.671875 158.78125 284.839844 Z M 159.6875 288.390625 " fill-opacity="1" fill-rule="nonzero"/><path fill="#a23c42" d="M 165.128906 255.820312 L 169.4375 255.820312 L 169.4375 271.992188 L 169.589844 271.992188 C 170.496094 270.707031 171.402344 269.5 172.234375 268.441406 L 182.511719 255.820312 L 187.878906 255.820312 L 175.710938 270.101562 L 188.859375 289.449219 L 183.722656 289.449219 L 172.6875 272.972656 L 169.4375 276.675781 L 169.4375 289.523438 L 165.128906 289.523438 Z M 165.128906 255.820312 " fill-opacity="1" fill-rule="nonzero"/><path fill="#9a847a" d="M 192.1875 256.347656 C 194.074219 255.894531 197.097656 255.59375 200.121094 255.59375 C 204.429688 255.59375 207.226562 256.347656 209.265625 258.011719 C 211.003906 259.296875 212.136719 261.335938 212.136719 263.980469 C 212.136719 267.304688 209.945312 270.101562 206.46875 271.386719 L 206.46875 271.539062 C 209.644531 272.292969 213.421875 274.941406 213.421875 279.925781 C 213.421875 282.800781 212.289062 285.066406 210.550781 286.652344 C 208.28125 288.769531 204.503906 289.828125 198.988281 289.828125 C 195.964844 289.828125 193.695312 289.601562 192.261719 289.449219 L 192.261719 256.347656 Z M 196.492188 270.101562 L 200.421875 270.101562 C 204.957031 270.101562 207.679688 267.683594 207.679688 264.433594 C 207.679688 260.582031 204.730469 258.917969 200.347656 258.917969 C 198.382812 258.917969 197.171875 259.070312 196.492188 259.21875 Z M 196.492188 286.199219 C 197.398438 286.351562 198.609375 286.425781 200.121094 286.425781 C 204.578125 286.425781 208.738281 284.765625 208.738281 279.925781 C 208.738281 275.394531 204.804688 273.429688 200.046875 273.429688 L 196.492188 273.429688 Z M 196.492188 286.199219 " fill-opacity="1" fill-rule="nonzero"/><path fill="#9a847a" d="M 224.683594 278.871094 L 221.207031 289.449219 L 216.746094 289.449219 L 228.234375 255.820312 L 233.449219 255.820312 L 244.9375 289.449219 L 240.328125 289.449219 L 236.773438 278.871094 Z M 235.714844 275.46875 L 232.390625 265.796875 C 231.636719 263.601562 231.105469 261.636719 230.652344 259.671875 L 230.578125 259.671875 C 230.046875 261.636719 229.59375 263.679688 228.914062 265.71875 L 225.664062 275.46875 Z M 235.714844 275.46875 " fill-opacity="1" fill-rule="nonzero"/><path fill="#9a847a" d="M 249.699219 289.449219 L 249.699219 255.820312 L 254.457031 255.820312 L 265.191406 272.824219 C 267.609375 276.753906 269.648438 280.304688 271.160156 283.707031 L 271.3125 283.628906 C 270.933594 279.171875 270.78125 275.015625 270.78125 269.800781 L 270.78125 255.742188 L 274.863281 255.742188 L 274.863281 289.375 L 270.480469 289.375 L 259.824219 272.292969 C 257.480469 268.589844 255.214844 264.738281 253.550781 261.109375 L 253.402344 261.183594 C 253.628906 265.417969 253.703125 269.5 253.703125 275.015625 L 253.703125 289.375 L 249.699219 289.375 Z M 249.699219 289.449219 " fill-opacity="1" fill-rule="nonzero"/><path fill="#9a847a" d="M 282.574219 255.820312 L 286.878906 255.820312 L 286.878906 271.992188 L 287.03125 271.992188 C 287.9375 270.707031 288.84375 269.5 289.675781 268.441406 L 299.953125 255.820312 L 305.320312 255.820312 L 293.152344 270.101562 L 306.226562 289.449219 L 301.089844 289.449219 L 290.054688 272.972656 L 286.804688 276.675781 L 286.804688 289.523438 L 282.496094 289.523438 L 282.496094 255.820312 Z M 282.574219 255.820312 " fill-opacity="1" fill-rule="nonzero"/><path fill="#ba6d71" d="M 135.429688 99.757812 L 237.378906 99.757812 L 237.378906 100.136719 C 203.371094 100.136719 169.4375 100.136719 135.429688 100.136719 Z M 135.429688 99.757812 " fill-opacity="1" fill-rule="nonzero"/><path fill="#d29ea1" d="M 121.597656 116.308594 L 121.976562 116.308594 L 121.976562 202.839844 L 121.597656 202.839844 C 121.597656 174.046875 121.597656 145.179688 121.597656 116.308594 " fill-opacity="1" fill-rule="nonzero"/><path fill="#a23c42" d="M 121.976562 116.308594 C 122.355469 108.902344 127.71875 101.042969 135.429688 100.136719 L 237.378906 100.136719 C 245.917969 101.496094 251.359375 110.792969 250.832031 118.953125 L 250.832031 172.386719 C 244.40625 172.460938 238.058594 172.386719 231.636719 172.386719 C 234.960938 160.59375 232.84375 147.445312 225.816406 137.394531 C 218.484375 126.285156 205.941406 119.03125 192.789062 117.667969 C 178.65625 115.929688 163.617188 121.144531 154.019531 131.726562 C 147.21875 138.375 143.289062 147.597656 142.304688 156.890625 C 141.929688 159.613281 141.929688 162.410156 142.230469 165.207031 C 143.136719 173.214844 146.160156 181.074219 151.222656 187.425781 C 159.007812 197.703125 171.554688 203.824219 184.324219 204.804688 L 184.324219 219.390625 C 168.832031 219.390625 153.265625 219.390625 137.773438 219.390625 C 129.082031 219.46875 122.355469 211.15625 121.976562 202.839844 C 121.976562 174.046875 121.976562 145.179688 121.976562 116.308594 " fill-opacity="1" fill-rule="nonzero"/><path fill="#9a847a" d="M 174.578125 132.332031 C 186.214844 127.265625 200.648438 129.6875 210.097656 138.226562 C 215.613281 143.289062 219.542969 150.316406 220.074219 157.875 L 220.074219 164.449219 C 219.015625 180.019531 204.203125 192.640625 188.859375 192.5625 C 188.179688 192.5625 186.894531 192.5625 186.289062 192.5625 C 179.640625 192.714844 173.214844 189.992188 167.773438 186.367188 C 160.746094 181.304688 155.757812 173.140625 155.078125 164.449219 C 153.113281 150.921875 162.03125 137.167969 174.578125 132.332031 " fill-opacity="1" fill-rule="nonzero"/><path fill="#9a847a" d="M 209.71875 194.753906 C 213.574219 186.972656 225.289062 185.6875 231.332031 191.582031 C 235.1875 194.753906 235.941406 200.953125 233.070312 205.035156 C 231.03125 208.433594 227.023438 210.324219 223.171875 210.472656 C 222.113281 210.472656 221.128906 210.472656 220.074219 210.472656 C 216.144531 210.324219 212.136719 208.132812 210.097656 204.65625 C 208.28125 201.859375 207.828125 197.777344 209.71875 194.753906 " fill-opacity="1" fill-rule="nonzero"/><path fill="#debbbc" d="M 142.230469 165.28125 C 141.851562 162.558594 141.851562 159.6875 142.304688 156.96875 C 142.304688 159.765625 142.609375 162.558594 142.230469 165.28125 " fill-opacity="1" fill-rule="nonzero"/><path fill="#d0d1d1" d="M 220.074219 157.875 L 220.449219 157.875 C 220.449219 160.066406 220.527344 162.183594 220.449219 164.375 L 220.074219 164.375 C 220.074219 162.183594 220.074219 160.066406 220.074219 157.875 " fill-opacity="1" fill-rule="nonzero"/><path fill="#e0e0e0" d="M 186.289062 192.488281 L 188.859375 192.488281 C 188.558594 193.167969 186.59375 193.167969 186.289062 192.488281 " fill-opacity="1" fill-rule="nonzero"/><path fill="#e0e0e0" d="M 220.074219 210.550781 L 223.171875 210.550781 C 222.792969 211.382812 220.980469 210.777344 220.074219 210.929688 Z M 220.074219 210.550781 " fill-opacity="1" fill-rule="nonzero"/><path fill="#d19ea0" d="M 184.324219 204.804688 L 184.703125 204.730469 C 184.703125 209.644531 184.78125 214.480469 184.703125 219.390625 L 184.324219 219.390625 C 184.324219 214.554688 184.324219 209.71875 184.324219 204.804688 " fill-opacity="1" fill-rule="nonzero"/><path fill="#9a847a" d="M 240.25 210.703125 C 243.425781 210.398438 247.128906 211.757812 248.5625 214.78125 C 250.074219 217.125 249.546875 220.675781 247.582031 222.566406 C 244.632812 225.890625 238.816406 226.34375 235.566406 223.246094 C 233.148438 221.28125 232.390625 217.425781 234.054688 214.78125 C 234.960938 212.289062 237.679688 211.003906 240.25 210.703125 " fill-opacity="1" fill-rule="nonzero"/></svg>