<svg xmlns="http://www.w3.org/2000/svg" width="500" height="500" version="1.0" viewBox="0 0 375 375"><path fill="#f3f2f2" d="M0 187.5C0 83.965 83.965 0 187.5 0S375 83.965 375 187.5 291.035 375 187.5 375 0 291.035 0 187.5Zm0 0"/><path fill="#a23c42" d="M95.3 288.39c-1.59.758-4.76 1.59-8.917 1.59-9.45 0-16.551-5.972-16.551-17.082 0-10.578 7.102-17.683 17.531-17.683 4.157 0 6.801.906 8.012 1.512l-1.133 3.55c-1.59-.832-3.93-1.433-6.726-1.433-7.86 0-13.153 5.062-13.153 13.828 0 8.238 4.762 13.527 12.848 13.527 2.723 0 5.367-.527 7.105-1.36ZM100.742 255.82h4.383v30h14.36v3.63h-18.743ZM124.246 255.82h4.383v33.63h-4.383ZM159.688 288.39c-1.512.758-4.762 1.59-8.84 1.59-9.45 0-16.551-5.972-16.551-17.082 0-10.578 7.101-17.683 17.531-17.683 4.156 0 6.8.906 8.012 1.512l-1.133 3.55c-1.59-.832-3.93-1.433-6.727-1.433-7.859 0-13.148 5.062-13.148 13.828 0 8.238 4.758 13.527 12.848 13.527 2.718 0 5.363-.527 7.101-1.36ZM165.129 255.82h4.309v16.172h.152a86.08 86.08 0 0 1 2.644-3.55l10.278-12.622h5.367l-12.168 14.282 13.148 19.347h-5.136l-11.036-16.476-3.25 3.703v12.847h-4.308Zm0 0"/><path fill="#9a847a" d="M192.188 256.348c1.886-.453 4.91-.754 7.933-.754 4.309 0 7.106.754 9.145 2.418 1.738 1.285 2.87 3.324 2.87 5.968 0 3.325-2.19 6.122-5.667 7.407v.152c3.176.754 6.953 3.402 6.953 8.387 0 2.875-1.133 5.14-2.871 6.726-2.27 2.118-6.047 3.176-11.563 3.176a60.76 60.76 0 0 1-6.726-.379v-33.101Zm4.304 13.754h3.93c4.535 0 7.258-2.418 7.258-5.668 0-3.852-2.95-5.516-7.332-5.516-1.965 0-3.176.152-3.856.3Zm0 16.097c.906.153 2.117.227 3.63.227 4.456 0 8.616-1.66 8.616-6.5 0-4.531-3.933-6.496-8.691-6.496h-3.555ZM224.684 278.871l-3.477 10.578h-4.46l11.487-33.629h5.215l11.488 33.63h-4.609l-3.555-10.579Zm11.03-3.402-3.323-9.672a59.642 59.642 0 0 1-1.739-6.125h-.074c-.531 1.965-.984 4.008-1.664 6.047l-3.25 9.75ZM249.7 289.45v-33.63h4.757l10.734 17.004c2.418 3.93 4.457 7.48 5.97 10.883l.151-.078c-.378-4.457-.53-8.613-.53-13.828v-14.059h4.081v33.633h-4.383l-10.656-17.082c-2.344-3.703-4.61-7.555-6.273-11.184l-.149.075c.227 4.234.301 8.316.301 13.832v14.359H249.7ZM282.574 255.82h4.305v16.172h.152a86.08 86.08 0 0 1 2.645-3.55l10.277-12.622h5.367l-12.168 14.282 13.075 19.347h-5.137l-11.035-16.476-3.25 3.703v12.847h-4.309V255.82Zm0 0"/><path fill="#ba6d71" d="M135.43 99.758h101.949v.379h-101.95Zm0 0"/><path fill="#d29ea1" d="M121.598 116.309h.379v86.53h-.38v-86.53"/><path fill="#a23c42" d="M121.977 116.309c.378-7.407 5.742-15.266 13.453-16.172h101.949c8.539 1.36 13.98 10.656 13.453 18.816v53.434c-6.426.074-12.773 0-19.195 0 3.324-11.793 1.207-24.942-5.82-34.992-7.333-11.11-19.876-18.364-33.028-19.727-14.133-1.738-29.172 3.477-38.77 14.059-6.8 6.648-10.73 15.87-11.714 25.164-.375 2.722-.375 5.52-.075 8.316.907 8.008 3.93 15.867 8.993 22.219 7.785 10.277 20.332 16.398 33.101 17.379v14.586h-46.55c-8.692.078-15.419-8.235-15.797-16.551v-86.531"/><path fill="#9a847a" d="M174.578 132.332c11.637-5.066 26.07-2.644 35.52 5.895 5.515 5.062 9.445 12.09 9.976 19.648v6.574c-1.058 15.57-15.87 28.192-31.215 28.113h-2.57c-6.648.153-13.074-2.57-18.516-6.195-7.027-5.062-12.015-13.226-12.695-21.918-1.965-13.527 6.953-27.281 19.5-32.117M209.719 194.754c3.855-7.781 15.57-9.066 21.613-3.172 3.856 3.172 4.61 9.371 1.738 13.453-2.039 3.399-6.047 5.29-9.898 5.438h-3.098c-3.93-.149-7.937-2.34-9.976-5.817-1.817-2.797-2.27-6.879-.38-9.902"/><path fill="#debbbc" d="M142.23 165.281c-.378-2.722-.378-5.594.075-8.312 0 2.797.304 5.59-.075 8.312"/><path fill="#d0d1d1" d="M220.074 157.875h.375c0 2.191.078 4.309 0 6.5h-.375v-6.5"/><path fill="#e0e0e0" d="M186.29 192.488h2.57c-.301.68-2.266.68-2.57 0M220.074 210.55h3.098c-.379.833-2.192.227-3.098.38Zm0 0"/><path fill="#d19ea0" d="m184.324 204.805.38-.075c0 4.915.077 9.75 0 14.66h-.38v-14.585"/><path fill="#9a847a" d="M240.25 210.703c3.176-.305 6.879 1.055 8.313 4.078 1.511 2.344.984 5.895-.981 7.785-2.95 3.325-8.766 3.778-12.016.68-2.418-1.965-3.175-5.82-1.511-8.465.906-2.492 3.625-3.777 6.195-4.078"/></svg>