<svg xmlns="http://www.w3.org/2000/svg" xmlns:xlink="http://www.w3.org/1999/xlink" width="500" zoomAndPan="magnify" viewBox="0 0 375 374.999991" height="500" preserveAspectRatio="xMidYMid meet" version="1.0"><defs><filter x="0%" y="0%" width="100%" height="100%" id="5d3894ec54"><feColorMatrix values="0 0 0 0 1 0 0 0 0 1 0 0 0 0 1 0 0 0 1 0" color-interpolation-filters="sRGB"/></filter><mask id="89c89d25f1"><g filter="url(#5d3894ec54)"><rect x="-37.5" width="450" fill="#000000" y="-37.499999" height="449.999989" fill-opacity="0.6"/></g></mask><clipPath id="70db3b8ee3"><path d="M 0.238281 0.921875 L 356.878906 0.921875 L 356.878906 335 L 0.238281 335 Z M 0.238281 0.921875 " clip-rule="nonzero"/></clipPath><clipPath id="3c2ff01421"><rect x="0" width="357" y="0" height="335"/></clipPath><mask id="fd77949119"><g filter="url(#5d3894ec54)"><rect x="-37.5" width="450" fill="#000000" y="-37.499999" height="449.999989" fill-opacity="0.5"/></g></mask><clipPath id="14faeec757"><path d="M 1 0.0390625 L 296.199219 0.0390625 L 296.199219 308 L 1 308 Z M 1 0.0390625 " clip-rule="nonzero"/></clipPath><clipPath id="51c7acbca7"><rect x="0" width="297" y="0" height="309"/></clipPath></defs><path fill="#ffffff" d="M 36.492188 97.652344 C -90.398438 295.957031 217.988281 459.996094 338.3125 269.339844 C 452.578125 88.273438 128.175781 -85 36.492188 97.652344 " fill-opacity="1" fill-rule="nonzero"/><g mask="url(#89c89d25f1)"><g transform="matrix(1, 0, 0, 1, 6, 19)"><g clip-path="url(#3c2ff01421)"><g clip-path="url(#70db3b8ee3)"><path fill="#004aad" d="M 30.492188 78.652344 C -96.398438 276.957031 211.988281 440.996094 332.3125 250.339844 C 446.578125 69.273438 122.175781 -104 30.492188 78.652344 " fill-opacity="1" fill-rule="nonzero"/></g></g></g></g><g mask="url(#fd77949119)"><g transform="matrix(1, 0, 0, 1, 35, 35)"><g clip-path="url(#51c7acbca7)"><g clip-path="url(#14faeec757)"><path fill="#004aad" d="M 125.0625 5.015625 C -80.457031 36.105469 -9.980469 336.414062 186.667969 305.320312 C 373.359375 275.816406 299.777344 -40.359375 125.0625 5.015625 " fill-opacity="1" fill-rule="nonzero"/></g></g></g></g><path fill="#ffffff" d="M 200.746094 151.035156 L 200.746094 133.144531 C 200.746094 130.476562 200.890625 128.382812 201.109375 126.941406 C 201.324219 125.496094 201.902344 124.054688 202.839844 122.613281 C 203.703125 121.167969 205.148438 120.230469 207.09375 119.65625 C 209.042969 119.078125 211.710938 118.859375 214.957031 118.859375 L 232.847656 118.859375 L 232.847656 83.082031 L 204.28125 83.082031 C 187.761719 83.082031 175.859375 86.976562 168.644531 94.839844 C 161.433594 102.703125 157.824219 114.246094 157.824219 129.539062 L 157.824219 151.035156 L 136.402344 151.035156 L 136.402344 186.8125 L 157.824219 186.8125 L 157.824219 290.546875 L 200.746094 290.546875 L 200.746094 186.8125 L 229.3125 186.8125 L 233.0625 151.035156 Z M 200.746094 151.035156 " fill-opacity="1" fill-rule="nonzero"/></svg>