<svg xmlns="http://www.w3.org/2000/svg" xmlns:xlink="http://www.w3.org/1999/xlink" width="500" zoomAndPan="magnify" viewBox="0 0 375 374.999991" height="500" preserveAspectRatio="xMidYMid meet" version="1.0"><path fill="#1b7ec1" d="M 0 187.5 C 0 83.964844 83.964844 0 187.5 0 C 291.035156 0 375 83.964844 375 187.5 C 375 291.035156 291.035156 375 187.5 375 C 83.964844 375 0 291.035156 0 187.5 Z M 0 187.5 " fill-opacity="1" fill-rule="nonzero"/><path fill="#eaf3f8" d="M 23.882812 160.445312 C 29.324219 159.839844 35.898438 160.367188 41.71875 160.21875 C 43.832031 171.476562 46.023438 182.664062 48.066406 194 C 51.691406 183.042969 54.414062 171.328125 57.8125 160.21875 L 75.195312 160.21875 C 78.21875 171.554688 81.542969 182.585938 84.492188 194 C 87.136719 183.191406 89.027344 171.628906 91.066406 160.21875 L 108.902344 160.21875 C 104.292969 180.546875 99.910156 201.027344 95.449219 221.355469 C 89.40625 221.355469 83.359375 221.355469 77.3125 221.355469 C 73.910156 208.886719 69.980469 196.871094 66.277344 184.628906 C 62.347656 196.570312 59.023438 209.191406 55.246094 221.355469 C 49.199219 221.355469 43.152344 221.355469 37.105469 221.355469 C 33.101562 200.875 28.566406 180.621094 23.882812 160.445312 " fill-opacity="1" fill-rule="evenodd"/><path fill="#eaf3f8" d="M 143.0625 160.21875 L 148.203125 160.21875 C 169.363281 161.199219 179.339844 173.292969 178.507812 196.191406 C 164.148438 196.191406 149.789062 196.191406 135.429688 196.191406 C 135.582031 205.410156 142.910156 210.550781 150.847656 207.453125 C 154.550781 206.015625 156.4375 203.066406 156.4375 203.066406 L 176.769531 205.035156 C 176.84375 206.167969 176.011719 207.375 175.332031 208.433594 C 170.195312 216.066406 161.652344 221.207031 148.882812 221.433594 C 146.917969 221.433594 144.953125 221.433594 142.988281 221.433594 C 125.753906 220.675781 114.722656 210.929688 113.589844 194.300781 C 112.304688 173.441406 124.09375 161.578125 143.0625 160.21875 M 139.359375 175.863281 C 136.941406 177.976562 135.882812 181.304688 135.429688 185.6875 L 156.742188 185.6875 C 157.722656 175.484375 146.238281 169.816406 139.359375 175.863281 " fill-opacity="1" fill-rule="evenodd"/><path fill="#eaf3f8" d="M 189.539062 160.746094 C 189.539062 160.746094 224.078125 157.347656 233.828125 163.695312 C 238.511719 166.71875 240.929688 172.535156 240.929688 179.109375 C 240.929688 195.511719 227.402344 200.347656 208.660156 198.683594 L 208.433594 220.980469 L 189.617188 220.980469 L 189.617188 160.746094 Z M 222.792969 179.566406 C 222.792969 173.140625 215.992188 172.160156 208.585938 172.6875 C 207.980469 176.769531 208.507812 181.90625 208.359375 186.367188 C 215.765625 186.972656 222.867188 185.988281 222.792969 179.566406 " fill-opacity="1" fill-rule="evenodd"/><path fill="#eaf3f8" d="M 258.3125 160.746094 L 278.644531 160.746094 L 301.164062 220.675781 L 281.589844 220.902344 L 278.871094 211.15625 L 257.558594 211.15625 L 254.382812 220.902344 L 235.566406 220.902344 Z M 261.488281 198.15625 L 274.710938 198.15625 L 267.835938 176.390625 Z M 261.488281 198.15625 " fill-opacity="1" fill-rule="evenodd"/><path fill="#eaf3f8" d="M 292.019531 160.972656 L 312.121094 160.746094 L 324.59375 181 L 337.0625 160.746094 L 356.863281 160.746094 L 334.113281 195.660156 L 334.113281 220.902344 L 315.296875 220.902344 L 315.296875 195.964844 Z M 292.019531 160.972656 " fill-opacity="1" fill-rule="evenodd"/></svg>