<svg xmlns="http://www.w3.org/2000/svg" xmlns:xlink="http://www.w3.org/1999/xlink" width="500" zoomAndPan="magnify" viewBox="0 0 375 374.999991" height="500" preserveAspectRatio="xMidYMid meet" version="1.0"><path fill="#22b573" d="M 151.019531 209.78125 C 155.039062 204.390625 158.984375 199.003906 162.84375 193.53125 C 167.59375 186.855469 164.855469 181.304688 160.109375 175.59375 C 151.179688 164.65625 141.925781 153.957031 132.59375 143.339844 C 127.441406 137.46875 122.292969 131.675781 117.0625 125.886719 C 112.398438 120.816406 107.488281 114.542969 101.535156 110.761719 C 100.328125 109.394531 98.074219 108.75 96.386719 109.71875 C 90.511719 113.175781 86.007812 119.207031 81.5 124.195312 C 76.59375 129.664062 71.683594 135.214844 66.695312 140.765625 C 57.199219 151.382812 47.707031 162.082031 38.292969 172.78125 C 34.109375 177.527344 28.15625 182.511719 25.339844 188.222656 C 21.960938 195.0625 27.351562 201.175781 31.132812 206.484375 C 39.015625 217.664062 47.222656 228.523438 55.753906 239.140625 C 65.570312 251.207031 75.789062 262.949219 86.410156 274.292969 C 87.535156 275.5 88.820312 276.140625 90.109375 276.382812 C 92.441406 279.679688 97.351562 281.210938 100.328125 277.429688 C 109.097656 266.488281 116.984375 254.746094 125.429688 243.566406 C 134.039062 232.222656 142.648438 221.042969 151.019531 209.78125 Z M 151.019531 209.78125 " fill-opacity="1" fill-rule="nonzero"/><path fill="#22b573" d="M 344.042969 158.703125 C 334.46875 148.648438 324.570312 138.914062 314.59375 129.183594 C 309.203125 123.953125 303.730469 118.644531 298.261719 113.496094 C 293.191406 108.75 287.71875 102.636719 281.363281 99.339844 C 280.15625 97.972656 278.144531 97.25 276.457031 98.457031 C 276.292969 98.535156 276.132812 98.695312 275.972656 98.859375 C 275.8125 98.9375 275.652344 99.097656 275.488281 99.179688 C 270.261719 103.203125 266.398438 109.152344 262.375 114.382812 C 258.03125 120.011719 253.683594 125.722656 249.339844 131.433594 C 240.328125 143.179688 231.316406 155.003906 222.386719 166.828125 C 220.292969 169.5625 218.203125 172.296875 216.109375 175.03125 C 214.179688 177.605469 211.765625 180.179688 210.878906 183.316406 C 208.867188 190.234375 215.0625 195.945312 219.085938 200.691406 C 227.859375 211.148438 237.109375 221.121094 246.765625 230.777344 C 257.789062 241.796875 269.214844 252.492188 280.640625 263.03125 C 281.605469 263.914062 282.652344 264.480469 283.617188 264.71875 C 286.351562 267.375 291.339844 267.777344 294.238281 263.511719 C 301.960938 252.171875 308.882812 240.105469 316.285156 228.441406 C 323.6875 216.777344 331.25 205.195312 338.570312 193.53125 C 342.109375 187.984375 345.8125 182.433594 348.949219 176.640625 C 353.132812 169.242188 349.191406 164.09375 344.042969 158.703125 Z M 344.042969 158.703125 " fill-opacity="1" fill-rule="nonzero"/><path fill="#22b573" d="M 152.0625 132 C 162.441406 143.582031 173.226562 154.84375 184.328125 165.703125 C 185.535156 166.90625 186.824219 167.472656 188.191406 167.710938 C 190.765625 170.769531 196.316406 171.492188 199.453125 167.148438 C 207.5 156.050781 214.660156 144.304688 222.386719 132.964844 C 230.351562 121.378906 238.398438 109.796875 246.203125 98.214844 C 249.902344 92.746094 253.605469 87.195312 257.144531 81.644531 C 261.652344 74.644531 258.109375 69.097656 253.203125 63.707031 C 243.867188 53.410156 234.375 43.355469 224.640625 33.382812 C 219.167969 27.75 213.777344 22.199219 208.226562 16.652344 C 203.316406 11.824219 198.085938 5.710938 191.972656 2.171875 C 190.765625 0.722656 188.59375 0 186.902344 1.125 C 181.191406 4.90625 177.007812 11.019531 172.742188 16.167969 C 168.074219 21.878906 163.410156 27.671875 158.742188 33.382812 C 149.730469 44.480469 140.800781 55.582031 131.867188 66.683594 C 127.84375 71.667969 122.292969 76.816406 119.636719 82.609375 C 116.339844 89.6875 121.972656 95.480469 126.074219 100.707031 C 134.441406 111.324219 143.050781 121.863281 152.0625 132 Z M 152.0625 132 " fill-opacity="1" fill-rule="nonzero"/><path fill="#22b573" d="M 132.511719 287.082031 C 132.429688 287.164062 132.429688 287.164062 132.351562 287.242188 C 132.351562 287.242188 132.429688 287.324219 132.429688 287.324219 C 132.59375 287.242188 132.59375 287.164062 132.511719 287.082031 Z M 132.511719 287.082031 " fill-opacity="1" fill-rule="nonzero"/><path fill="#22b573" d="M 223.433594 235.921875 C 217.800781 230.453125 212.25 225.0625 206.535156 219.675781 C 201.464844 214.929688 195.996094 208.894531 189.640625 205.519531 C 188.433594 204.152344 186.421875 203.425781 184.730469 204.554688 C 184.570312 204.632812 184.410156 204.792969 184.246094 204.953125 C 184.085938 205.035156 183.925781 205.195312 183.765625 205.277344 C 178.535156 209.296875 174.59375 215.25 170.648438 220.480469 C 166.304688 226.109375 161.960938 231.820312 157.617188 237.53125 C 148.765625 249.113281 139.914062 260.699219 131.144531 272.28125 C 129.050781 275.015625 126.960938 277.75 124.867188 280.484375 C 122.855469 283.140625 120.363281 285.714844 119.316406 288.933594 C 117.0625 296.011719 122.777344 301.320312 126.878906 306.386719 C 135.488281 316.925781 144.421875 327.140625 153.832031 336.953125 C 164.375 348.054688 175.316406 358.832031 186.582031 369.128906 C 187.867188 370.335938 189.238281 370.898438 190.605469 371.058594 C 193.257812 374.195312 198.648438 375 201.789062 370.496094 C 209.511719 359.152344 216.351562 347.25 223.753906 335.667969 C 231.316406 323.839844 239.042969 312.097656 246.605469 300.191406 C 250.144531 294.5625 253.683594 289.011719 257.066406 283.300781 C 261.328125 276.222656 257.949219 270.832031 252.800781 265.445312 C 243.226562 255.390625 233.410156 245.574219 223.433594 235.921875 Z M 223.433594 235.921875 " fill-opacity="1" fill-rule="nonzero"/></svg>