<svg xmlns="http://www.w3.org/2000/svg" width="500" height="500" version="1.0" viewBox="0 0 375 375"><path fill="#22b573" d="M151.02 209.781c4.02-5.39 7.964-10.777 11.824-16.25 4.75-6.676 2.011-12.226-2.735-17.937-8.93-10.938-18.183-21.637-27.515-32.254a1611.631 1611.631 0 0 0-15.531-17.453c-4.665-5.07-9.575-11.344-15.528-15.125-1.207-1.367-3.46-2.012-5.148-1.043-5.875 3.457-10.38 9.488-14.887 14.476-4.906 5.47-9.816 11.02-14.805 16.57a5272.457 5272.457 0 0 0-28.402 32.016c-4.184 4.746-10.137 9.73-12.953 15.442-3.38 6.84 2.012 12.953 5.793 18.261a651.19 651.19 0 0 0 24.62 32.657 670.759 670.759 0 0 0 30.657 35.152c1.125 1.207 2.41 1.848 3.7 2.09 2.331 3.297 7.242 4.828 10.218 1.047 8.77-10.942 16.656-22.684 25.102-33.864 8.61-11.343 17.218-22.523 25.59-33.785ZM344.043 158.703c-9.574-10.055-19.473-19.789-29.45-29.52-5.39-5.23-10.863-10.538-16.331-15.687-5.07-4.746-10.543-10.86-16.899-14.156-1.207-1.367-3.218-2.09-4.906-.883-.164.078-.324.238-.484.402-.16.079-.32.239-.485.32-5.226 4.024-9.09 9.973-13.113 15.204a3081.998 3081.998 0 0 0-13.035 17.05 5859.507 5859.507 0 0 0-26.953 35.395c-2.094 2.734-4.184 5.469-6.278 8.203-1.93 2.574-4.343 5.149-5.23 8.285-2.012 6.918 4.184 12.63 8.207 17.375 8.773 10.457 18.023 20.43 27.68 30.086 11.023 11.02 22.449 21.715 33.875 32.254.964.883 2.011 1.45 2.976 1.688 2.735 2.656 7.723 3.058 10.621-1.207 7.723-11.34 14.645-23.407 22.047-35.07 7.402-11.665 14.965-23.247 22.285-34.91 3.54-5.548 7.243-11.098 10.38-16.891 4.183-7.399.241-12.547-4.907-17.938ZM152.063 132a710.403 710.403 0 0 0 32.265 33.703c1.207 1.203 2.496 1.77 3.863 2.008 2.575 3.059 8.125 3.781 11.262-.563 8.047-11.097 15.207-22.843 22.934-34.183 7.965-11.586 16.011-23.168 23.816-34.75 3.7-5.469 7.402-11.02 10.942-16.57 4.507-7 .964-12.547-3.942-17.938a1129.156 1129.156 0 0 0-28.562-30.324c-5.473-5.633-10.864-11.184-16.414-16.73-4.91-4.829-10.141-10.942-16.254-14.481-1.207-1.45-3.38-2.172-5.07-1.047-5.712 3.781-9.895 9.895-14.16 15.043-4.669 5.71-9.333 11.504-14 17.215-9.013 11.097-17.942 22.199-26.876 33.3-4.023 4.985-9.574 10.133-12.23 15.926-3.297 7.079 2.336 12.871 6.437 18.098 8.367 10.617 16.977 21.156 25.989 31.293ZM132.512 287.082l-.16.16.078.082c.164-.082.164-.16.082-.242Zm0 0"/><path fill="#22b573" d="M223.434 235.922c-5.633-5.469-11.184-10.86-16.899-16.246-5.07-4.746-10.539-10.781-16.894-14.156-1.207-1.368-3.22-2.094-4.91-.965-.16.078-.32.238-.485.398-.16.082-.32.242-.48.324-5.23 4.02-9.172 9.973-13.118 15.203a3081.862 3081.862 0 0 0-13.03 17.051c-8.852 11.582-17.704 23.168-26.473 34.75-2.094 2.735-4.184 5.469-6.278 8.203-2.012 2.657-4.504 5.23-5.55 8.45-2.254 7.078 3.46 12.386 7.562 17.453 8.61 10.539 17.543 20.754 26.953 30.566 10.543 11.102 21.484 21.879 32.75 32.176 1.285 1.207 2.656 1.77 4.023 1.93 2.653 3.136 8.043 3.941 11.184-.563 7.723-11.344 14.563-23.246 21.965-34.828 7.562-11.828 15.289-23.57 22.851-35.477 3.54-5.628 7.079-11.18 10.461-16.89 4.262-7.078.883-12.469-4.265-17.856-9.574-10.054-19.39-19.87-29.367-29.523Zm0 0"/></svg>