<svg xmlns="http://www.w3.org/2000/svg" width="500" height="500" version="1.0" viewBox="0 0 375 375"><path fill="#00529e" d="M0 187.5C0 83.965 83.965 0 187.5 0S375 83.965 375 187.5 291.035 375 187.5 375 0 291.035 0 187.5Zm0 0"/><path fill="#fff" d="M200.8 185.008c29.778.148 56.985-24.262 56.985-54.04 0-32.495-27.207-54.94-56.984-54.94H175.18c-30.153 0-54.942 22.445-54.942 54.94 0 29.704 24.79 54.114 54.942 54.04Zm0 0"/><path fill="#00529e" d="M186.668 159.992V100.97c11.867 4.531 20.254 16.02 20.332 29.472-.078 13.454-8.543 24.942-20.332 29.551m-42.926-29.55c0-13.454 8.465-24.942 20.254-29.473v59.023c-11.863-4.61-20.254-16.097-20.254-29.55m31.59-49.88c-27.508 0-49.879 22.293-49.879 49.88 0 27.507 22.293 49.878 49.879 49.878 27.508 0 49.879-22.293 49.879-49.879s-22.371-49.879-49.879-49.879"/><path fill="#fff" d="M64.54 222.188c0 4.46 3.175 4.914 5.972 4.914 12.468 0 16.55-9.372 16.55-17.989 0-10.804-6.878-18.515-17.988-18.515-2.344 0-3.476.152-4.457.226v31.363Zm-5.669-26.981c0-5.215-2.719-4.836-5.289-4.91v-1.512c2.266.074 4.535.074 6.8.074 2.419 0 5.669-.074 9.977-.074 14.887 0 23.051 9.977 23.051 20.18 0 5.742-3.324 20.027-23.73 20.027-2.95 0-5.668-.152-8.39-.152-2.567 0-5.138.074-7.708.152v-1.512c3.477-.378 5.14-.457 5.29-4.386ZM101.57 193.773c-1.511 0-2.793-1.359-2.793-2.87 0-1.438 1.36-2.798 2.793-2.798a2.789 2.789 0 0 1 2.797 2.797c.078 1.586-1.207 2.871-2.797 2.871m-6.12 33.707h1.136c1.586 0 2.719 0 2.719-1.89v-15.57c0-2.567-.832-2.872-3.024-4.004v-.907c2.723-.832 5.895-1.89 6.121-2.043.38-.226.758-.3 1.059-.3.3 0 .379.379.379.832v22.144c0 1.887 1.285 1.887 2.87 1.887h.985v1.512c-1.965 0-4.007-.149-6.047-.149-2.043 0-4.156.074-6.273.149v-1.66ZM113.21 210.324c0-2.117-.605-2.722-3.323-3.781v-1.055c2.492-.832 4.836-1.59 7.633-2.797.148 0 .375.149.375.606v3.777c3.328-2.344 6.12-4.308 9.976-4.308 4.914 0 6.652 3.55 6.652 8.086v14.89c0 1.887 1.286 1.887 2.872 1.887h1.058v1.512c-2.043 0-4.008-.149-6.121-.149-2.043 0-4.156.074-6.2.149v-1.512h1.06c1.585 0 2.796 0 2.796-1.887v-14.89c0-3.25-2.039-4.91-5.289-4.91-1.816 0-4.761 1.511-6.726 2.796v17.004c0 1.887 1.285 1.887 2.87 1.887h1.06v1.512c-2.044 0-4.008-.149-6.122-.149-2.043 0-4.156.074-6.199.149v-1.512h1.059c1.586 0 2.722 0 2.722-1.887v-15.418ZM152.887 211.23c1.437 0 1.586-.757 1.586-1.437 0-2.945-1.813-5.29-4.989-5.29-3.55 0-5.894 2.571-6.648 6.727Zm-10.203 1.891c-.149.527-.149 1.36 0 3.324.379 5.442 3.855 9.977 8.464 9.977 3.176 0 5.668-1.738 7.786-3.856l.832.832c-2.649 3.477-5.895 6.5-10.657 6.5-9.144 0-11.035-8.843-11.035-12.546 0-11.262 7.633-14.66 11.637-14.66 4.687 0 9.676 2.945 9.75 9.066 0 .379 0 .683-.074 1.058l-.532.38h-16.171ZM160.82 227.48h1.59c1.586 0 2.797 0 2.797-1.89v-16.172c0-1.816-2.117-2.117-3.023-2.57v-.832c4.23-1.813 6.5-3.325 7.027-3.325.379 0 .527.149.527.754v5.215h.153c1.437-2.265 3.855-5.894 7.406-5.894 1.437 0 3.25.984 3.25 3.023 0 1.512-1.133 2.95-2.719 2.95-1.816 0-1.816-1.438-3.781-1.438-.98 0-4.23 1.36-4.23 4.762v13.527c0 1.89 1.132 1.89 2.796 1.89h3.25v1.512c-3.175-.078-5.593-.152-8.09-.152-2.34 0-4.757.074-6.875.152v-1.512ZM182.965 220.98c.758 3.778 3.023 7.028 7.254 7.028 3.402 0 4.687-2.04 4.687-4.082 0-6.801-12.547-4.61-12.547-13.906 0-3.25 2.57-7.407 8.918-7.407 1.817 0 4.309.532 6.578 1.664l.375 5.895h-1.285c-.601-3.629-2.566-5.668-6.27-5.668-2.269 0-4.46 1.285-4.46 3.777 0 6.727 13.379 4.688 13.379 13.68 0 3.781-3.024 7.86-9.903 7.86-2.265 0-4.988-.829-7.027-1.966l-.605-6.648ZM251.512 199.215h-1.438c-1.133-6.727-5.894-9.45-12.316-9.45-6.653 0-16.25 4.462-16.25 18.29 0 11.64 8.312 19.953 17.156 19.953 5.668 0 10.43-3.93 11.563-9.977l1.359.38-1.36 8.386c-2.417 1.512-8.917 3.023-12.773 3.023-13.45 0-21.992-8.691-21.992-21.687 0-11.79 10.508-20.254 21.844-20.254 4.683 0 9.144 1.512 13.601 3.098ZM253.55 227.48h1.06c1.585 0 2.796 0 2.796-1.89v-32.043c0-3.781-.832-3.856-3.023-4.461v-.906c2.27-.754 4.687-1.813 5.894-2.493.606-.304 1.059-.605 1.286-.605.378 0 .453.379.453.832v39.75c0 1.89 1.285 1.89 2.87 1.89h.985v1.512c-1.965 0-3.93-.152-6.047-.152-2.039 0-4.156.078-6.273.152ZM290.582 225.816c0 1.059.606 1.133 1.59 1.133.68 0 1.512-.074 2.265-.074v1.207c-2.492.227-7.18 1.438-8.312 1.816l-.305-.152v-4.687c-3.472 2.796-6.12 4.84-10.199 4.84-3.101 0-6.351-2.044-6.351-6.88v-14.738c0-1.511-.227-2.945-3.473-3.246v-1.137c2.039-.074 6.648-.375 7.406-.375.602 0 .602.375.602 1.66v14.891c0 1.738 0 6.723 4.988 6.723 1.965 0 4.535-1.508 6.953-3.55v-15.493c0-1.133-2.797-1.738-4.836-2.344v-1.058c5.14-.375 8.387-.829 8.992-.829.453 0 .453.375.453 1.055v21.238ZM301.996 222.492c0 2.192 2.04 5.895 5.895 5.895 6.195 0 8.765-6.047 8.765-11.188 0-6.195-4.761-11.41-9.219-11.41-2.117 0-3.93 1.36-5.44 2.719Zm0-15.644c2.266-1.965 5.442-4.157 8.613-4.157 6.653 0 10.735 5.817 10.735 12.09 0 7.559-5.52 15.117-13.758 15.117-4.23 0-6.496-1.363-8.008-2.043l-1.738 1.364-1.211-.606c.531-3.402.832-6.726.832-10.277v-24.79c0-3.78-.832-3.855-3.024-4.46v-.906c2.344-.754 4.688-1.813 5.895-2.493.606-.378 1.059-.605 1.285-.605.38 0 .453.379.453.832v20.934ZM53.582 262.469h.453c1.133 0 2.344-.149 2.344-1.813v-16.398c0-1.664-1.211-1.817-2.344-1.817h-.453v-.906c1.211 0 3.098.153 4.61.153 1.59 0 3.476-.153 4.913-.153v.906h-.453c-1.136 0-2.343.153-2.343 1.817v16.398c0 1.664 1.207 1.813 2.343 1.813h.453v.906c-1.511 0-3.402-.148-4.914-.148-1.511 0-3.398.148-4.609.148Zm0 0"/><path fill="#fff" d="M62.953 263.3v-.679h-.3c-1.137 0-2.419-.226-2.497-1.89v-16.399c0-1.738 1.36-1.89 2.496-1.89h.301v-.68c-1.437 0-3.25.152-4.762.152-1.511 0-3.324-.152-4.535-.152v.68h.305c1.133 0 2.418.226 2.418 1.89v16.398c0 1.739-1.36 1.891-2.418 1.891h-.305v.68c1.211 0 2.95-.153 4.461-.153 1.586 0 3.399.153 4.836.153m.152.226c-1.511 0-3.402-.152-4.914-.152-1.511 0-3.398.152-4.609.152h-.152v-1.207h.605c1.133 0 2.192-.152 2.192-1.664v-16.398c0-1.512-1.059-1.664-2.192-1.664h-.605v-1.211h.152c1.211 0 3.098.152 4.61.152 1.59 0 3.402-.152 4.913-.152h.149v1.21h-.602c-1.136 0-2.191.153-2.191 1.665v16.398c0 1.512 1.055 1.664 2.191 1.664h.602v1.207ZM84.645 257.254l.074-11.79c0-2.57-1.813-2.944-2.719-2.944h-.684v-.91c1.512 0 2.95.152 4.387.152 1.281 0 2.567-.153 3.852-.153v.91h-.453c-1.286 0-2.797.227-2.797 4.004v14.286c0 1.132 0 2.191.152 3.171h-1.21l-16.173-17.984v12.922c0 2.719.531 3.703 2.95 3.703h.527v.906c-1.36 0-2.719-.152-4.004-.152-1.438 0-2.871.152-4.234.152v-.906h.453c2.191 0 2.796-1.512 2.796-4.004v-13.226c0-1.739-1.433-2.797-2.87-2.797h-.38v-.906c1.211 0 2.418.152 3.63.152.906 0 1.812-.153 2.796-.153Zm0 0"/><path fill="#fff" d="m84.645 257.254.074-.074Zm.601 6.5h1.059c-.149-.906-.149-1.965-.149-3.024v-14.28c0-3.782 1.586-4.083 2.946-4.083h.304v-.68c-1.21 0-2.496.153-3.703.153-1.437 0-2.797-.153-4.234-.153v.68H82c.98 0 2.871.453 2.871 3.098v11.867l-.078.074-.074.074-13.906-15.793c-.907 0-1.813.153-2.797.153-1.133 0-2.34-.153-3.477-.153v.68h.305c1.433 0 2.945 1.133 2.945 2.946v13.226c0 2.496-.68 4.082-2.945 4.156h-.305v.68c1.363 0 2.723-.148 4.156-.148 1.285 0 2.649.148 3.934.148v-.68h-.379c-2.496 0-3.098-1.058-3.098-3.777v-13.227Zm1.211.305-1.285-.079L69.3 246.223v12.543c0 2.722.453 3.476 2.797 3.554h.68v1.207h-.15c-1.362 0-2.722-.152-4.007-.152-1.433 0-2.871.152-4.23.152h-.153v-1.207h.528c2.043 0 2.648-1.363 2.648-3.855v-13.227c0-1.664-1.363-2.644-2.723-2.644h-.527v-1.211h.148c1.211 0 2.418.152 3.63.152.906 0 1.812-.152 2.87-.074l13.754 15.492v-11.562c0-2.496-1.66-2.797-2.566-2.797h-.832v-1.211h.148c1.512 0 2.95.152 4.387.152 1.281 0 2.567-.152 3.852-.152h.152v1.21h-.605c-1.286 0-2.645.153-2.645 3.856v14.281c0 1.133 0 2.192.152 3.176v.153ZM94.242 243.121c-2.344 0-2.418.606-2.949 2.875h-.906c.152-.91.3-1.738.379-2.648.148-.907.226-1.739.226-2.645h.754c.227.906 1.059.906 1.89.906h16.173c.832 0 1.664 0 1.664-.98l.754.152c-.149.828-.227 1.66-.375 2.567-.079.832-.079 1.664-.079 2.57l-.906.379c-.074-1.133-.226-3.024-2.344-3.024h-5.136v16.704c0 2.418 1.058 2.718 2.57 2.718h.602v.907c-1.207 0-3.399-.149-5.137-.149-1.89 0-4.082.149-5.293.149v-.907h.605c1.739 0 2.57-.148 2.57-2.644v-16.703h-5.062Zm0 0"/><path fill="#fff" d="M106.559 263.527c-1.207 0-3.399-.152-5.137-.152-1.89 0-4.082.152-5.293.152h-.074v-1.207h.757c1.739-.078 2.418-.078 2.493-2.496V243.2h-4.989v-.304h5.29v16.855c0 2.492-.981 2.797-2.72 2.797h-.452v.68c1.207 0 3.324-.153 5.136-.153 1.664 0 3.703.153 4.989.153v-.68h-.454c-1.511 0-2.718-.379-2.718-2.875v-16.777h5.289c2.117 0 2.344 1.816 2.418 2.949l.68-.227c0-.832 0-1.664.078-2.496.074-.828.226-1.586.3-2.418l-.453-.074c-.152.906-1.058.98-1.812.98H93.562c-.757 0-1.511 0-1.816-.906h-.527c0 .832-.074 1.664-.227 2.57-.078.832-.226 1.665-.379 2.497h.68c.453-2.196.68-2.875 3.023-2.875v.304c-2.343.074-2.265.453-2.796 2.719v.078h-1.207v-.152c.148-.906.3-1.739.374-2.645.153-.906.153-1.738.153-2.644v-.153h.984v.075c.227.832.754.832 1.586.832h16.324c.907 0 1.512 0 1.586-.832v-.149h.153l.906.149v.152c-.152.832-.227 1.664-.379 2.492-.074.832-.074 1.664-.074 2.496v.074l-.074.079-1.137.375v-.149c-.074-1.21-.227-2.875-2.192-2.875h-4.988v16.55c0 2.345.985 2.571 2.496 2.571h.754v1.211h-.226ZM113.21 262.469h.454c1.133 0 2.344-.149 2.344-1.813v-16.398c0-1.664-1.211-1.817-2.344-1.817h-.453v-.906c1.89 0 5.137.153 7.785.153 2.645 0 5.895-.153 8.008-.153-.074 1.36 0 3.403.078 4.762l-.984.226c-.149-2.039-.528-3.628-3.778-3.628h-4.382v8.238h3.703c1.886 0 2.265-1.059 2.492-2.719h.906c-.074 1.207-.074 2.418-.074 3.703 0 1.207 0 2.418.074 3.551l-.906.152c-.227-1.89-.301-3.101-2.418-3.101h-3.778v7.332c0 2.043 1.813 2.043 3.778 2.043 3.777 0 5.441-.23 6.347-3.856l.907.227c-.375 1.66-.754 3.324-1.055 4.988-2.043 0-5.594-.152-8.465-.152-2.797 0-6.578.152-8.312.152v-.984Zm0 0"/><path fill="#fff" d="M129.836 263.3c.305-1.585.605-3.175.984-4.76l-.605-.15c-.906 3.473-2.723 3.778-6.426 3.778-1.965 0-3.93 0-3.93-2.191v-7.407h3.93c2.195 0 2.422 1.285 2.57 3.098l.68-.152c-.074-1.133-.074-2.34-.074-3.477 0-1.207 0-2.34.074-3.55h-.754c-.152 1.663-.68 2.796-2.57 2.796h-3.856v-8.465h4.536c3.25 0 3.78 1.664 3.93 3.63l.679-.153c-.074-.906-.074-2.04-.074-3.098v-1.512c-2.118 0-5.29.153-7.86.153-2.57 0-5.742-.153-7.632-.153v.68h.3c1.133 0 2.418.227 2.418 1.89v16.4c0 1.738-1.36 1.89-2.418 1.964h-.3v.68c1.812 0 5.44-.153 8.16-.153 2.722 0 6.199.153 8.238.153m.078.226c-2.043 0-5.594-.152-8.465-.152-2.797 0-6.578.152-8.312.152h-.153v-1.207h.606c1.133 0 2.191-.152 2.191-1.664v-16.398c0-1.512-1.058-1.664-2.191-1.664h-.606v-1.211h.153c1.886 0 5.136.152 7.781.152 2.644 0 5.894-.152 8.012-.152h.152v1.738c0 1.059 0 2.27.074 3.176v.152h-.074l-1.133.301v-.152c-.152-2.04-.457-3.551-3.703-3.551h-4.234v7.933h3.629c1.812 0 2.113-.906 2.343-2.644v-.149h1.207v.149c-.074 1.21-.074 2.418-.074 3.703 0 1.211.074 2.344.074 3.555v.074h-.074l-1.058.227v-.153c-.227-1.887-.227-2.945-2.344-2.945h-3.63v7.18c0 1.886 1.665 1.886 3.704 1.886 3.781 0 5.293-.226 6.2-3.703v-.148h.152l.98.226v.149c-.379 1.664-.754 3.328-1.059 4.988v.078h-.148ZM139.285 252.117h1.512c3.172 0 4.836-1.21 4.836-4.914 0-2.797-1.817-4.535-4.61-4.535-.91 0-1.363.078-1.816.152v9.297Zm-4.082-7.258c0-2.265-1.285-2.34-2.191-2.34h-.532v-.984c.985 0 2.95.153 4.84.153 1.887 0 3.399-.153 5.063-.153 3.93 0 7.48 1.059 7.48 5.516 0 2.797-1.89 4.535-4.383 5.52l5.368 8.011c.906 1.36 1.511 1.66 3.023 1.887v.906c-1.059 0-2.043-.148-3.101-.148-.98 0-1.965.148-2.946.148-2.418-3.172-4.46-6.574-6.5-10.125h-2.039v6.727c0 2.418 1.133 2.492 2.567 2.492h.53v.906c-1.816 0-3.628-.148-5.366-.148-1.512 0-2.946.148-4.536.148v-.906h.532c1.133 0 2.191-.528 2.191-1.66Zm0 0"/><path fill="#fff" d="M140.797 251.965c3.098 0 4.683-1.133 4.683-4.762 0-2.719-1.738-4.457-4.457-4.457-.832 0-1.21.074-1.664.149v9.07Zm-1.512.3h-.152v-9.597h.152c.453 0 .828-.148 1.813-.148 2.87 0 4.683 1.812 4.683 4.683 0 3.777-1.812 4.988-4.984 4.988h-1.512Zm0 .833h2.113v.078c2.043 3.625 4.082 6.949 6.426 10.05.98 0 1.965-.152 2.946-.152.984 0 1.964.074 2.949.153v-.68c-1.512-.152-2.192-.606-3.024-1.89l-5.441-8.165.152-.074c2.418-.98 4.23-2.645 4.305-5.367 0-4.383-3.399-5.363-7.328-5.363-1.664 0-3.176.152-5.063.152-1.816 0-3.703-.153-4.761-.153v.68h.453c.98 0 2.343.153 2.343 2.492v15.95c0 1.285-1.21 1.812-2.343 1.812h-.453v.68c1.511 0 2.945-.153 4.382-.153 1.739 0 3.551.153 5.29.153v-.68h-.454c-1.437 0-2.718-.152-2.718-2.644v-6.801h.226Zm14.586 10.43c-1.059 0-2.043-.153-3.101-.153-.98 0-1.965.152-3.024.078-2.418-3.176-4.457-6.5-6.496-10.129h-1.816v6.574c0 2.344.984 2.344 2.418 2.344h.683v1.211h-.152c-1.817 0-3.63-.152-5.367-.152-1.512 0-2.946.152-4.536.152h-.148v-1.133h.68c1.133 0 2.113-.53 2.113-1.59v-15.945c0-2.191-1.133-2.191-2.113-2.265h-.68v-1.211h.148c.985 0 2.95.152 4.84.152 1.887 0 3.399-.152 5.063-.152 3.93 0 7.558 1.058 7.633 5.668 0 2.796-1.891 4.609-4.309 5.593l5.29 7.86c.91 1.285 1.437 1.664 2.948 1.812h.075v1.211h-.149ZM175.105 257.254l.075-11.79c0-2.57-1.813-2.944-2.72-2.944h-.679v-.91c1.512 0 2.946.152 4.383.152 1.285 0 2.57-.153 3.856-.153v.91h-.454c-1.285 0-2.796.227-2.796 4.004v14.286c0 1.132 0 2.191.226 3.171h-1.21l-16.173-17.984v12.922c0 2.719.528 3.703 2.946 3.703h.53v.906c-1.359 0-2.722-.152-4.003-.152-1.438 0-2.875.152-4.234.152v-.906h.453c2.191 0 2.797-1.512 2.797-4.004v-13.226c0-1.739-1.438-2.797-2.872-2.797h-.378v-.906c1.21 0 2.418.152 3.628.152.907 0 1.813-.153 2.797-.153Zm0 0"/><path fill="#fff" d="m175.105 257.254.075-.074Zm.68 6.5h1.059c-.153-.906-.153-1.965-.153-3.024v-14.28c0-3.782 1.59-4.083 2.95-4.083h.3v-.68c-1.207 0-2.492.153-3.703.153-1.433 0-2.87-.153-4.23-.153v.68h.527c.985 0 2.871.453 2.871 3.098l-.074 11.867-.074.074-.078.074-13.98-15.793c-.907 0-1.813.153-2.798.153-1.132 0-2.34-.153-3.476-.153v.68h.304c1.434 0 2.946 1.133 2.946 2.946v13.226c0 2.496-.68 4.082-2.946 4.156h-.304v.68c1.363 0 2.722-.148 4.16-.148 1.281 0 2.644.148 3.93.148v-.68h-.457c-2.493 0-3.098-1.058-3.098-3.777v-13.227Zm1.133.305-1.281-.079-15.871-17.757v12.543c.074 2.722.453 3.476 2.793 3.554h.683v1.207h-.152c-1.36 0-2.723-.152-4.004-.152-1.438 0-2.875.152-4.234.152h-.153v-1.207h.606c2.043 0 2.644-1.363 2.722-3.855v-13.227c0-1.664-1.363-2.644-2.722-2.644h-.528v-1.211h.149c1.21 0 2.422.152 3.629.152.906 0 1.812-.152 2.87-.074l13.755 15.492v-11.562c0-2.496-1.66-2.797-2.567-2.797h-.984v-1.211h.152c1.512 0 2.946.152 4.383.152 1.285 0 2.57-.152 3.856-.152h.148v1.21h-.602c-1.285 0-2.648.153-2.648 3.856v14.281c0 1.133 0 2.192.152 3.176v.153ZM189.617 245.086l-2.949 8.844h5.894Zm-4.535 13.832c-.305 1.059-.68 1.89-.68 2.418 0 .906 1.286 1.133 2.344 1.133h.375v.906c-1.285-.074-2.57-.148-3.777-.148-1.133 0-2.27.074-3.403.148v-.906h.227c1.21 0 2.27-.754 2.723-2.04l4.988-14.359c.375-1.132.98-2.722 1.133-3.855.98-.375 2.265-.98 2.87-1.36.075 0 .153-.074.227-.074.078 0 .153 0 .227.074.078.227.152.528.305.754l5.742 16.403c.379 1.133.754 2.265 1.133 3.172.379.91 1.058 1.285 2.117 1.285h.152v.906c-1.437-.074-2.797-.148-4.308-.148-1.512 0-3.098.074-4.688.148v-.906h.379c.68 0 1.965-.149 1.965-.906 0-.38-.301-1.286-.606-2.266l-1.207-3.629h-7.105Zm0 0"/><path fill="#fff" d="M186.82 253.777h5.516l-2.719-8.386Zm-.379.305 3.024-9.144h.152v.148-.149h.074l2.95 9.145Zm6.426 9.219c1.586-.074 3.098-.153 4.61-.153 1.433 0 2.796.079 4.156.153v-.68h-.074c-1.059 0-1.817-.453-2.196-1.36-.375-.984-.754-2.116-1.133-3.175l-5.742-16.399c-.074-.226-.152-.53-.3-.757h-.153c-.078 0-.078 0-.152.078-.606.375-1.89.98-2.797 1.285-.227 1.207-.754 2.719-1.133 3.93l-4.988 14.359c-.453 1.36-1.586 2.113-2.871 2.113h-.074v.68c1.054-.074 2.19-.148 3.25-.148 1.207 0 2.417.074 3.625.148v-.68h-.149c-.984 0-2.422-.148-2.496-1.207 0-.605.379-1.437.68-2.496l.152.078-.152-.078 1.058-3.324h7.332l1.285 3.703c.375.984.602 1.813.602 2.266-.074.984-1.36 1.058-2.113 1.058h-.227Zm8.918.226c-1.437-.074-2.797-.152-4.308-.152-1.512 0-3.098.078-4.688.152h-.148v-1.207h.527c.754 0 1.812-.152 1.812-.757 0-.38-.3-1.208-.601-2.192l-1.211-3.55h-6.953l-.98 3.171c-.305 1.059-.684 1.89-.684 2.418 0 .758 1.21.985 2.195.985h.453v1.207h-.152c-1.285-.075-2.57-.149-3.777-.149-1.137 0-2.27.074-3.403.149h-.152v-1.282h.305c1.207 0 2.113-.683 2.566-1.965l4.988-14.359c.38-1.137.985-2.723 1.285-4.008.985-.3 2.27-.98 2.871-1.36.079 0 .153-.073.305-.073.074 0 .227 0 .38.148.073.227.226.531.3.758l5.742 16.398c.379 1.133.758 2.27 1.137 3.176.375.828.906 1.133 1.965 1.133h.3v1.207ZM203.145 243.121c-2.344 0-2.418.606-2.95 2.875h-.98c.148-.91.3-1.738.379-2.648.148-.907.226-1.739.226-2.645h.754c.227.906 1.059.906 1.89.906h16.173c.832 0 1.664 0 1.664-.98l.754.152c-.153.828-.227 1.66-.38 2.567-.073.832-.073 1.664-.073 2.57l-.907.379c-.078-1.133-.226-3.024-2.343-3.024h-5.141v16.704c0 2.418 1.137 2.718 2.57 2.718h.606v.907c-1.211 0-3.403-.149-5.14-.149-1.888 0-4.079.149-5.29.149v-.907h.606c1.738 0 2.644-.148 2.644-2.644v-16.703h-5.062Zm0 0"/><path fill="#fff" d="M215.46 263.527c-1.206 0-3.398-.152-5.136-.152-1.89 0-4.082.152-5.289.152h-.152v-1.207h.754c1.738-.078 2.418-.078 2.496-2.496V243.2h-4.988v-.304h5.289v16.855c0 2.492-.98 2.719-2.72 2.797h-.452v.68c1.207 0 3.324-.153 5.136-.153 1.665 0 3.704.153 4.989.153v-.68h-.453c-1.512 0-2.723-.379-2.723-2.797v-16.777h5.293c2.113 0 2.418 1.812 2.418 2.945l.68-.227c0-.832 0-1.66.074-2.492.078-.832.226-1.59.304-2.418l-.453-.078c-.152.906-1.058.984-1.816.984h-16.324c-.754 0-1.512 0-1.813-.906h-.527c0 .828-.078 1.739-.227 2.567-.078.832-.226 1.664-.379 2.496h.68c.379-2.192.68-2.871 3.024-2.871v.3c-2.344.075-2.27.454-2.797 2.723v.074h-1.211v-.152c.152-.906.304-1.738.379-2.645a15.5 15.5 0 0 0 .226-2.644v-.152h.985v.078c.226.828.753.828 1.585.828h16.325c.832 0 1.511 0 1.586-.828v-.153h.152l.906.153v.148c-.152.832-.226 1.664-.379 2.496-.074.832-.074 1.66-.074 2.492v.079l-.074.074-1.137.379v-.153c-.074-1.21-.226-2.87-2.191-2.87h-4.985v16.55c0 2.344.98 2.57 2.493 2.57h.754v1.207ZM222.266 262.469h.453c1.133 0 2.34-.149 2.34-1.813v-16.398c0-1.664-1.207-1.817-2.34-1.817h-.453v-.906c1.207 0 3.097.153 4.609.153 1.586 0 3.477-.153 4.91-.153v.906h-.453c-1.133 0-2.34.153-2.34 1.817v16.398c0 1.664 1.207 1.813 2.34 1.813h.453v.906c-1.512 0-3.398-.148-4.988-.148-1.508 0-3.399.148-4.61.148v-.906Zm0 0"/><path fill="#fff" d="M231.71 263.3v-.679h-.3c-1.137 0-2.496-.226-2.496-1.89v-16.399c0-1.738 1.36-1.89 2.496-1.89h.3v-.68c-1.437 0-3.25.152-4.76.152-1.512 0-3.25-.152-4.536-.152v.68h.305c1.133 0 2.418.226 2.492 1.89v16.398c0 1.739-1.36 1.891-2.492 1.891h-.305v.68c1.211 0 2.95-.153 4.461-.153 1.512 0 3.324.153 4.836.153m.074.226c-1.512 0-3.398-.152-4.91-.152s-3.402.152-4.61.152h-.152v-1.207h.606c1.133 0 2.191-.152 2.191-1.664v-16.398c0-1.512-1.058-1.664-2.191-1.664h-.606v-1.211h.153c1.207 0 3.097.152 4.609.152 1.586 0 3.477-.152 4.91-.152h.153v1.21h-.606c-1.133 0-2.191.153-2.191 1.665v16.398c0 1.512 1.058 1.664 2.191 1.664h.606v1.207ZM244.785 262.547c6.047 0 7.106-5.367 7.106-9.902 0-4.61-2.496-10.125-7.711-10.125-5.516 0-7.102 4.91-7.102 9.066.074 5.594 2.645 10.96 7.707 10.96m-.453-21.464c6.727 0 12.016 4.156 12.016 10.809 0 7.18-5.137 12.015-11.864 12.015-6.652 0-11.714-4.535-11.714-11.261 0-6.5 4.988-11.563 11.562-11.563"/><path fill="#fff" d="M237 251.512c0-4.23 1.664-9.219 7.258-9.219 5.289 0 7.781 5.668 7.781 10.277 0 4.535-1.055 10.051-7.254 10.051v-.3c5.969 0 7.028-5.216 7.028-9.829 0-4.531-2.418-9.972-7.555-9.972-5.367 0-6.953 4.757-6.953 8.917 0 5.59 2.566 10.805 7.48 10.805v.305c-5.215.074-7.785-5.367-7.785-11.035m-4.383 1.133c0-6.575 5.14-11.715 11.715-11.715v.304c-6.426 0-11.41 4.989-11.41 11.41 0 6.653 4.984 11.11 11.562 11.11 6.575 0 11.711-4.762 11.711-11.863 0-6.578-5.215-10.657-11.863-10.657v-.304c6.727 0 12.168 4.156 12.168 10.96 0 7.255-5.215 12.09-11.941 12.169-6.801-.079-11.942-4.614-11.942-11.414M277.434 257.254l.074-11.79c0-2.57-1.813-2.944-2.719-2.944h-.68v-.91c1.434 0 2.946.152 4.383.152 1.285 0 2.57-.153 3.856-.153v.91h-.457c-1.282 0-2.793.227-2.793 4.004v14.286c0 1.132 0 2.191.226 3.171h-1.21l-16.173-17.984v12.922c0 2.719.528 3.703 2.946 3.703h.531v.906c-1.36 0-2.723-.152-4.008-.152-1.433 0-2.87.152-4.305.152v-.906h.454c2.191 0 2.796-1.512 2.796-4.004v-13.226c0-1.739-1.437-2.797-2.875-2.797h-.375v-.906c1.207 0 2.418.152 3.625.152.907 0 1.817-.153 2.797-.153Zm0 0"/><path fill="#fff" d="m277.434 257.254.074-.074Zm.605 6.5h1.059c-.153-.906-.153-1.965-.153-3.024v-14.28c0-3.782 1.586-4.083 2.946-4.083h.304v-.68c-1.21 0-2.496.153-3.703.153-1.437 0-2.797-.153-4.234-.153v.68h.531c.98 0 2.871.453 2.871 3.098v11.867l-.074.074-.078.074-13.98-15.793c-.907 0-1.813.153-2.798.153-1.132 0-2.34-.153-3.476-.153v.68h.305c1.511 0 3.023 1.133 3.023 2.946v13.226c0 2.496-.684 4.082-2.95 4.156h-.3v.68c1.36 0 2.719-.148 4.156-.148 1.285 0 2.57.148 3.93.148v-.68h-.379c-2.492 0-3.098-1.058-3.098-3.777v-13.227Zm1.207.305-1.285-.079-15.867-17.757v12.543c.074 2.722.453 3.476 2.793 3.554h.68v1.207h-.149c-1.36 0-2.723-.152-4.008-.152-1.433 0-2.87.152-4.305.152h-.152v-1.207h.606c2.039 0 2.644-1.363 2.644-3.855v-13.227c0-1.664-1.36-2.644-2.723-2.644h-.527v-1.211h.152c1.207 0 2.418.152 3.625.152.907 0 1.817-.152 2.872-.074l13.757 15.492v-11.562c0-2.496-1.664-2.797-2.57-2.797h-.832v-1.211h.152c1.512 0 2.946.152 4.383.152 1.285 0 2.57-.152 3.856-.152h.148v1.21h-.605c-1.282 0-2.645.153-2.645 3.856v14.281c0 1.133 0 2.192.152 3.176v.153ZM291.945 245.086l-2.949 8.844h5.895Zm-4.613 13.832c-.3 1.059-.68 1.89-.68 2.418 0 .906 1.286 1.133 2.344 1.133h.379v.906c-1.285-.074-2.57-.148-3.781-.148-1.133 0-2.266.074-3.399.148v-.906h.153c1.207 0 2.265-.754 2.718-2.04l4.989-14.359c.379-1.132.98-2.722 1.132-3.855.985-.375 2.27-.98 2.872-1.36.078 0 .152-.074.226-.074.078 0 .152 0 .227.074.078.227.226.528.304.754l5.743 16.403c.378 1.133.757 2.265 1.132 3.172.38.91 1.059 1.285 2.043 1.285h.149v.906c-1.434-.074-2.793-.148-4.305-.148-1.512 0-3.101.074-4.687.148v-.906h.379c.68 0 1.964-.149 1.964-.906 0-.38-.3-1.286-.605-2.266l-1.207-3.629h-7.106Zm0 0"/><path fill="#fff" d="M289.148 253.777h5.442l-2.723-8.386Zm-.378.305 3.023-9.144h.152v.148-.149h.075l2.945 9.145Zm6.425 9.219c1.508-.074 3.098-.153 4.532-.153 1.437 0 2.796.079 4.156.153v-.68c-1.055 0-1.813-.453-2.192-1.36-.375-.984-.753-2.116-1.132-3.175l-5.743-16.399c-.078-.226-.226-.53-.304-.757h-.149c-.078 0-.078 0-.152.078-.606.375-1.89.98-2.797 1.285-.226 1.207-.754 2.719-1.133 3.93l-4.988 14.359c-.453 1.36-1.586 2.113-2.871 2.113h-.074v.68c1.054-.074 2.191-.148 3.246-.148 1.21 0 2.422.074 3.629.148v-.68h-.227c-.98 0-2.418-.148-2.492-1.207 0-.605.375-1.437.68-2.496l.148.078-.148-.078 1.058-3.324h7.328l1.285 3.703c.38.984.606 1.813.606 2.266-.074.984-1.36 1.058-2.04 1.058h-.226Zm8.84.226c-1.433-.074-2.797-.152-4.308-.152-1.512 0-3.098.078-4.684.152h-.152v-1.207h.53c.755 0 1.813-.152 1.813-.757 0-.38-.3-1.208-.605-2.192l-1.207-3.55h-6.953l-.985 3.171c-.3 1.059-.68 1.89-.68 2.418 0 .758 1.212.985 2.192.985h.453v1.207h-.152c-1.281-.075-2.567-.149-3.777-.149-1.133 0-2.266.074-3.403.149h-.148v-1.282h.3c1.133 0 2.118-.683 2.57-1.965l4.99-14.359c.378-1.137.98-2.723 1.206-4.008.985-.379 2.27-.98 2.875-1.36.074 0 .149-.073.3-.073.075 0 .228 0 .38.148.074.227.148.531.3.758l5.747 16.398c.375 1.133.754 2.27 1.133 3.176.375.828.906 1.133 1.964 1.207h.301ZM311.973 260.355c0 1.282.828 1.66 1.886 1.739 1.286.074 2.723.074 4.157-.078 1.285-.153 2.418-.907 3.023-1.66.531-.684.758-1.59.984-2.27h.907c-.38 1.812-.758 3.55-1.133 5.367-2.723 0-5.52-.152-8.238-.152-2.797 0-5.516.152-8.239.152v-.906h.453c1.133 0 2.344-.152 2.344-2.117v-16.098c0-1.664-1.21-1.812-2.344-1.812h-.453v-.91c1.664 0 3.325.152 4.914.152 1.586 0 3.172-.153 4.758-.153v.91h-.754c-1.21 0-2.117 0-2.117 1.66v16.176Zm0 0"/><path fill="#fff" d="M321.57 263.3c.375-1.663.754-3.323 1.133-5.062h-.605c-.227.68-.453 1.512-.98 2.192-.606.832-1.74 1.586-3.102 1.738-.829.074-1.66.152-2.418.152-.606 0-1.207 0-1.739-.078-1.058-.074-2.039-.527-2.039-1.887V244.18c0-1.739 1.133-1.813 2.266-1.813h.605v-.68c-1.511 0-3.023.153-4.609.153-1.586 0-3.25-.153-4.836-.153v.68h.3c1.134 0 2.497.227 2.497 1.89v16.098c0 2.04-1.363 2.266-2.496 2.266h-.3v.68c2.718 0 5.44-.153 8.16-.153 2.722 0 5.44.153 8.163.153m.149.226c-2.797 0-5.516-.152-8.239-.152-2.718 0-5.515.152-8.312.152h-.148v-1.207h.601c1.137 0 2.192-.078 2.192-1.965v-16.097c0-1.512-1.055-1.664-2.192-1.664h-.601v-1.211h.148c1.664 0 3.328.152 4.988.152 1.59 0 3.176-.152 4.762-.152h.152v1.21h-.906c-1.21 0-1.965 0-1.965 1.587v16.175c0 1.133.754 1.508 1.738 1.66.528.079 1.133.079 1.739.079.754 0 1.586-.078 2.34-.153 1.285-.152 2.343-.906 2.949-1.664.453-.68.754-1.511.906-2.191v-.074h1.133v.148a597.254 597.254 0 0 1-1.133 5.293v.074ZM321.945 243.953h.38c.452 0 .605-.3.605-.832 0-.527-.305-.68-.68-.68h-.379v1.512Zm-1.132 1.738v-.148c.378-.078.453-.078.453-.305v-2.418c0-.379 0-.453-.454-.453v-.152h1.665c.605 0 1.132.305 1.132.906 0 .531-.3.832-.754.984l.528.754c.226.305.527.684.754.758v.074h-.602c-.305 0-.605-.68-1.21-1.511h-.38v1.058c0 .227.078.227.453.305v.148Zm1.664.907c1.511 0 2.644-1.286 2.644-2.645 0-1.433-1.133-2.719-2.644-2.719-1.512 0-2.645 1.286-2.645 2.72a2.627 2.627 0 0 0 2.645 2.644m0-5.97c1.886 0 3.324 1.438 3.324 3.325 0 1.89-1.438 3.328-3.324 3.328-1.891 0-3.325-1.437-3.325-3.328a3.304 3.304 0 0 1 3.325-3.324"/></svg>