<svg xmlns="http://www.w3.org/2000/svg" xmlns:xlink="http://www.w3.org/1999/xlink" width="500" zoomAndPan="magnify" viewBox="0 0 375 374.999991" height="500" preserveAspectRatio="xMidYMid meet" version="1.0"><path fill="#00529e" d="M 0 187.5 C 0 83.964844 83.964844 0 187.5 0 C 291.035156 0 375 83.964844 375 187.5 C 375 291.035156 291.035156 375 187.5 375 C 83.964844 375 0 291.035156 0 187.5 Z M 0 187.5 " fill-opacity="1" fill-rule="nonzero"/><path fill="#ffffff" d="M 200.800781 185.007812 C 230.578125 185.15625 257.785156 160.746094 257.785156 130.96875 C 257.785156 98.472656 230.578125 76.027344 200.800781 76.027344 L 175.179688 76.027344 C 145.027344 76.027344 120.238281 98.472656 120.238281 130.96875 C 120.238281 160.671875 145.027344 185.082031 175.179688 185.007812 Z M 200.800781 185.007812 " fill-opacity="1" fill-rule="nonzero"/><path fill="#00529e" d="M 186.667969 159.992188 L 186.667969 100.96875 C 198.535156 105.5 206.921875 116.988281 207 130.441406 C 206.921875 143.894531 198.457031 155.382812 186.667969 159.992188 M 143.742188 130.441406 C 143.742188 116.988281 152.207031 105.5 163.996094 100.96875 L 163.996094 159.992188 C 152.132812 155.382812 143.742188 143.894531 143.742188 130.441406 M 175.332031 80.5625 C 147.824219 80.5625 125.453125 102.855469 125.453125 130.441406 C 125.453125 157.949219 147.746094 180.320312 175.332031 180.320312 C 202.839844 180.320312 225.210938 158.027344 225.210938 130.441406 C 225.210938 102.855469 202.839844 80.5625 175.332031 80.5625 " fill-opacity="1" fill-rule="nonzero"/><path fill="#ffffff" d="M 64.539062 222.1875 C 64.539062 226.648438 67.714844 227.101562 70.511719 227.101562 C 82.980469 227.101562 87.0625 217.730469 87.0625 209.113281 C 87.0625 198.308594 80.183594 190.597656 69.074219 190.597656 C 66.730469 190.597656 65.597656 190.75 64.617188 190.824219 L 64.617188 222.1875 Z M 58.871094 195.207031 C 58.871094 189.992188 56.152344 190.371094 53.582031 190.296875 L 53.582031 188.785156 C 55.847656 188.859375 58.117188 188.859375 60.382812 188.859375 C 62.800781 188.859375 66.050781 188.785156 70.359375 188.785156 C 85.246094 188.785156 93.410156 198.761719 93.410156 208.964844 C 93.410156 214.707031 90.085938 228.992188 69.679688 228.992188 C 66.730469 228.992188 64.011719 228.839844 61.289062 228.839844 C 58.722656 228.839844 56.152344 228.914062 53.582031 228.992188 L 53.582031 227.480469 C 57.058594 227.101562 58.722656 227.023438 58.871094 223.09375 Z M 58.871094 195.207031 " fill-opacity="1" fill-rule="nonzero"/><path fill="#ffffff" d="M 101.570312 193.773438 C 100.058594 193.773438 98.777344 192.414062 98.777344 190.902344 C 98.777344 189.464844 100.136719 188.105469 101.570312 188.105469 C 103.082031 188.105469 104.367188 189.3125 104.367188 190.902344 C 104.445312 192.488281 103.160156 193.773438 101.570312 193.773438 M 95.449219 227.480469 L 96.585938 227.480469 C 98.171875 227.480469 99.304688 227.480469 99.304688 225.589844 L 99.304688 210.019531 C 99.304688 207.453125 98.472656 207.148438 96.28125 206.015625 L 96.28125 205.109375 C 99.003906 204.277344 102.175781 203.21875 102.402344 203.066406 C 102.78125 202.839844 103.160156 202.765625 103.460938 202.765625 C 103.761719 202.765625 103.839844 203.144531 103.839844 203.597656 L 103.839844 225.742188 C 103.839844 227.628906 105.125 227.628906 106.710938 227.628906 L 107.695312 227.628906 L 107.695312 229.140625 C 105.730469 229.140625 103.6875 228.992188 101.648438 228.992188 C 99.605469 228.992188 97.492188 229.066406 95.375 229.140625 L 95.375 227.480469 Z M 95.449219 227.480469 " fill-opacity="1" fill-rule="nonzero"/><path fill="#ffffff" d="M 113.210938 210.324219 C 113.210938 208.207031 112.605469 207.601562 109.886719 206.542969 L 109.886719 205.488281 C 112.378906 204.65625 114.722656 203.898438 117.519531 202.691406 C 117.667969 202.691406 117.894531 202.839844 117.894531 203.296875 L 117.894531 207.074219 C 121.222656 204.730469 124.015625 202.765625 127.871094 202.765625 C 132.785156 202.765625 134.523438 206.316406 134.523438 210.851562 L 134.523438 225.742188 C 134.523438 227.628906 135.808594 227.628906 137.394531 227.628906 L 138.453125 227.628906 L 138.453125 229.140625 C 136.410156 229.140625 134.445312 228.992188 132.332031 228.992188 C 130.289062 228.992188 128.175781 229.066406 126.132812 229.140625 L 126.132812 227.628906 L 127.191406 227.628906 C 128.777344 227.628906 129.988281 227.628906 129.988281 225.742188 L 129.988281 210.851562 C 129.988281 207.601562 127.949219 205.941406 124.699219 205.941406 C 122.882812 205.941406 119.9375 207.453125 117.972656 208.738281 L 117.972656 225.742188 C 117.972656 227.628906 119.257812 227.628906 120.84375 227.628906 L 121.902344 227.628906 L 121.902344 229.140625 C 119.859375 229.140625 117.894531 228.992188 115.78125 228.992188 C 113.738281 228.992188 111.625 229.066406 109.582031 229.140625 L 109.582031 227.628906 L 110.640625 227.628906 C 112.226562 227.628906 113.363281 227.628906 113.363281 225.742188 L 113.363281 210.324219 Z M 113.210938 210.324219 " fill-opacity="1" fill-rule="nonzero"/><path fill="#ffffff" d="M 152.886719 211.230469 C 154.324219 211.230469 154.472656 210.472656 154.472656 209.792969 C 154.472656 206.847656 152.660156 204.503906 149.484375 204.503906 C 145.933594 204.503906 143.589844 207.074219 142.835938 211.230469 Z M 142.683594 213.121094 C 142.535156 213.648438 142.535156 214.480469 142.683594 216.445312 C 143.0625 221.886719 146.539062 226.421875 151.148438 226.421875 C 154.324219 226.421875 156.816406 224.683594 158.933594 222.566406 L 159.765625 223.398438 C 157.117188 226.875 153.871094 229.898438 149.109375 229.898438 C 139.964844 229.898438 138.074219 221.054688 138.074219 217.351562 C 138.074219 206.089844 145.707031 202.691406 149.710938 202.691406 C 154.398438 202.691406 159.386719 205.636719 159.460938 211.757812 C 159.460938 212.136719 159.460938 212.441406 159.386719 212.816406 L 158.855469 213.195312 L 142.683594 213.195312 Z M 142.683594 213.121094 " fill-opacity="1" fill-rule="nonzero"/><path fill="#ffffff" d="M 160.820312 227.480469 L 162.410156 227.480469 C 163.996094 227.480469 165.207031 227.480469 165.207031 225.589844 L 165.207031 209.417969 C 165.207031 207.601562 163.089844 207.300781 162.183594 206.847656 L 162.183594 206.015625 C 166.414062 204.203125 168.683594 202.691406 169.210938 202.691406 C 169.589844 202.691406 169.738281 202.839844 169.738281 203.445312 L 169.738281 208.660156 L 169.890625 208.660156 C 171.328125 206.394531 173.746094 202.765625 177.296875 202.765625 C 178.734375 202.765625 180.546875 203.75 180.546875 205.789062 C 180.546875 207.300781 179.414062 208.738281 177.828125 208.738281 C 176.011719 208.738281 176.011719 207.300781 174.046875 207.300781 C 173.066406 207.300781 169.816406 208.660156 169.816406 212.0625 L 169.816406 225.589844 C 169.816406 227.480469 170.949219 227.480469 172.613281 227.480469 L 175.863281 227.480469 L 175.863281 228.992188 C 172.6875 228.914062 170.269531 228.839844 167.773438 228.839844 C 165.433594 228.839844 163.015625 228.914062 160.898438 228.992188 L 160.898438 227.480469 Z M 160.820312 227.480469 " fill-opacity="1" fill-rule="nonzero"/><path fill="#ffffff" d="M 182.964844 220.980469 C 183.722656 224.757812 185.988281 228.007812 190.21875 228.007812 C 193.621094 228.007812 194.90625 225.96875 194.90625 223.925781 C 194.90625 217.125 182.359375 219.316406 182.359375 210.019531 C 182.359375 206.769531 184.929688 202.613281 191.277344 202.613281 C 193.09375 202.613281 195.585938 203.144531 197.855469 204.277344 L 198.230469 210.171875 L 196.945312 210.171875 C 196.34375 206.542969 194.378906 204.503906 190.675781 204.503906 C 188.40625 204.503906 186.214844 205.789062 186.214844 208.28125 C 186.214844 215.007812 199.59375 212.96875 199.59375 221.960938 C 199.59375 225.742188 196.570312 229.820312 189.691406 229.820312 C 187.425781 229.820312 184.703125 228.992188 182.664062 227.855469 L 182.058594 221.207031 Z M 182.964844 220.980469 " fill-opacity="1" fill-rule="nonzero"/><path fill="#ffffff" d="M 251.511719 199.214844 L 250.074219 199.214844 C 248.941406 192.488281 244.179688 189.765625 237.757812 189.765625 C 231.105469 189.765625 221.507812 194.226562 221.507812 208.054688 C 221.507812 219.695312 229.820312 228.007812 238.664062 228.007812 C 244.332031 228.007812 249.09375 224.078125 250.226562 218.03125 L 251.585938 218.410156 L 250.226562 226.796875 C 247.808594 228.308594 241.308594 229.820312 237.453125 229.820312 C 224.003906 229.820312 215.460938 221.128906 215.460938 208.132812 C 215.460938 196.34375 225.96875 187.878906 237.304688 187.878906 C 241.988281 187.878906 246.449219 189.390625 250.90625 190.976562 Z M 251.511719 199.214844 " fill-opacity="1" fill-rule="nonzero"/><path fill="#ffffff" d="M 253.550781 227.480469 L 254.609375 227.480469 C 256.195312 227.480469 257.40625 227.480469 257.40625 225.589844 L 257.40625 193.546875 C 257.40625 189.765625 256.574219 189.691406 254.382812 189.085938 L 254.382812 188.179688 C 256.652344 187.425781 259.070312 186.367188 260.277344 185.6875 C 260.882812 185.382812 261.335938 185.082031 261.5625 185.082031 C 261.941406 185.082031 262.015625 185.460938 262.015625 185.914062 L 262.015625 225.664062 C 262.015625 227.554688 263.300781 227.554688 264.886719 227.554688 L 265.871094 227.554688 L 265.871094 229.066406 C 263.90625 229.066406 261.941406 228.914062 259.824219 228.914062 C 257.785156 228.914062 255.667969 228.992188 253.550781 229.066406 Z M 253.550781 227.480469 " fill-opacity="1" fill-rule="nonzero"/><path fill="#ffffff" d="M 290.582031 225.816406 C 290.582031 226.875 291.1875 226.949219 292.171875 226.949219 C 292.851562 226.949219 293.683594 226.875 294.4375 226.875 L 294.4375 228.082031 C 291.945312 228.308594 287.257812 229.519531 286.125 229.898438 L 285.820312 229.746094 L 285.820312 225.058594 C 282.347656 227.855469 279.699219 229.898438 275.621094 229.898438 C 272.519531 229.898438 269.269531 227.855469 269.269531 223.019531 L 269.269531 208.28125 C 269.269531 206.769531 269.042969 205.335938 265.796875 205.035156 L 265.796875 203.898438 C 267.835938 203.824219 272.445312 203.523438 273.203125 203.523438 C 273.804688 203.523438 273.804688 203.898438 273.804688 205.183594 L 273.804688 220.074219 C 273.804688 221.8125 273.804688 226.796875 278.792969 226.796875 C 280.757812 226.796875 283.328125 225.289062 285.746094 223.246094 L 285.746094 207.753906 C 285.746094 206.621094 282.949219 206.015625 280.910156 205.410156 L 280.910156 204.351562 C 286.050781 203.976562 289.296875 203.523438 289.902344 203.523438 C 290.355469 203.523438 290.355469 203.898438 290.355469 204.578125 L 290.355469 225.816406 Z M 290.582031 225.816406 " fill-opacity="1" fill-rule="nonzero"/><path fill="#ffffff" d="M 301.996094 222.492188 C 301.996094 224.683594 304.035156 228.386719 307.890625 228.386719 C 314.085938 228.386719 316.65625 222.339844 316.65625 217.199219 C 316.65625 211.003906 311.894531 205.789062 307.4375 205.789062 C 305.320312 205.789062 303.507812 207.148438 301.996094 208.507812 Z M 301.996094 206.847656 C 304.261719 204.882812 307.4375 202.691406 310.609375 202.691406 C 317.261719 202.691406 321.34375 208.507812 321.34375 214.78125 C 321.34375 222.339844 315.824219 229.898438 307.585938 229.898438 C 303.355469 229.898438 301.089844 228.535156 299.578125 227.855469 L 297.839844 229.21875 L 296.628906 228.613281 C 297.160156 225.210938 297.460938 221.886719 297.460938 218.335938 L 297.460938 193.546875 C 297.460938 189.765625 296.628906 189.691406 294.4375 189.085938 L 294.4375 188.179688 C 296.78125 187.425781 299.125 186.367188 300.332031 185.6875 C 300.9375 185.308594 301.390625 185.082031 301.617188 185.082031 C 301.996094 185.082031 302.070312 185.460938 302.070312 185.914062 L 302.070312 206.847656 Z M 301.996094 206.847656 " fill-opacity="1" fill-rule="nonzero"/><path fill="#ffffff" d="M 53.582031 262.46875 L 54.035156 262.46875 C 55.167969 262.46875 56.378906 262.320312 56.378906 260.65625 L 56.378906 244.257812 C 56.378906 242.59375 55.167969 242.441406 54.035156 242.441406 L 53.582031 242.441406 L 53.582031 241.535156 C 54.792969 241.535156 56.679688 241.6875 58.191406 241.6875 C 59.78125 241.6875 61.667969 241.535156 63.105469 241.535156 L 63.105469 242.441406 L 62.652344 242.441406 C 61.515625 242.441406 60.308594 242.59375 60.308594 244.257812 L 60.308594 260.65625 C 60.308594 262.320312 61.515625 262.46875 62.652344 262.46875 L 63.105469 262.46875 L 63.105469 263.375 C 61.59375 263.375 59.703125 263.226562 58.191406 263.226562 C 56.679688 263.226562 54.792969 263.375 53.582031 263.375 Z M 53.582031 262.46875 " fill-opacity="1" fill-rule="nonzero"/><path fill="#ffffff" d="M 62.953125 263.300781 L 62.953125 262.621094 L 62.652344 262.621094 C 61.515625 262.621094 60.234375 262.394531 60.15625 260.730469 L 60.15625 244.332031 C 60.15625 242.59375 61.515625 242.441406 62.652344 242.441406 L 62.953125 242.441406 L 62.953125 241.761719 C 61.515625 241.761719 59.703125 241.914062 58.191406 241.914062 C 56.679688 241.914062 54.867188 241.761719 53.65625 241.761719 L 53.65625 242.441406 L 53.960938 242.441406 C 55.09375 242.441406 56.378906 242.667969 56.378906 244.332031 L 56.378906 260.730469 C 56.378906 262.46875 55.019531 262.621094 53.960938 262.621094 L 53.65625 262.621094 L 53.65625 263.300781 C 54.867188 263.300781 56.605469 263.148438 58.117188 263.148438 C 59.703125 263.148438 61.515625 263.300781 62.953125 263.300781 M 63.105469 263.527344 C 61.59375 263.527344 59.703125 263.375 58.191406 263.375 C 56.679688 263.375 54.792969 263.527344 53.582031 263.527344 L 53.429688 263.527344 L 53.429688 262.320312 L 54.035156 262.320312 C 55.167969 262.320312 56.226562 262.167969 56.226562 260.65625 L 56.226562 244.257812 C 56.226562 242.746094 55.167969 242.59375 54.035156 242.59375 L 53.429688 242.59375 L 53.429688 241.382812 L 53.582031 241.382812 C 54.792969 241.382812 56.679688 241.535156 58.191406 241.535156 C 59.78125 241.535156 61.59375 241.382812 63.105469 241.382812 L 63.253906 241.382812 L 63.253906 242.59375 L 62.652344 242.59375 C 61.515625 242.59375 60.460938 242.746094 60.460938 244.257812 L 60.460938 260.65625 C 60.460938 262.167969 61.515625 262.320312 62.652344 262.320312 L 63.253906 262.320312 L 63.253906 263.527344 Z M 63.105469 263.527344 " fill-opacity="1" fill-rule="nonzero"/><path fill="#ffffff" d="M 84.644531 257.253906 L 84.71875 245.464844 C 84.71875 242.894531 82.90625 242.519531 82 242.519531 L 81.316406 242.519531 L 81.316406 241.609375 C 82.828125 241.609375 84.265625 241.761719 85.703125 241.761719 C 86.984375 241.761719 88.269531 241.609375 89.554688 241.609375 L 89.554688 242.519531 L 89.101562 242.519531 C 87.816406 242.519531 86.304688 242.746094 86.304688 246.523438 L 86.304688 260.808594 C 86.304688 261.941406 86.304688 263 86.457031 263.980469 L 85.246094 263.980469 L 69.074219 245.996094 L 69.074219 258.917969 C 69.074219 261.636719 69.605469 262.621094 72.023438 262.621094 L 72.550781 262.621094 L 72.550781 263.527344 C 71.191406 263.527344 69.832031 263.375 68.546875 263.375 C 67.109375 263.375 65.675781 263.527344 64.3125 263.527344 L 64.3125 262.621094 L 64.765625 262.621094 C 66.957031 262.621094 67.5625 261.109375 67.5625 258.617188 L 67.5625 245.390625 C 67.5625 243.652344 66.128906 242.59375 64.691406 242.59375 L 64.3125 242.59375 L 64.3125 241.6875 C 65.523438 241.6875 66.730469 241.839844 67.941406 241.839844 C 68.847656 241.839844 69.753906 241.6875 70.738281 241.6875 Z M 84.644531 257.253906 " fill-opacity="1" fill-rule="nonzero"/><path fill="#ffffff" d="M 84.644531 257.253906 L 84.71875 257.179688 Z M 85.246094 263.753906 L 86.304688 263.753906 C 86.15625 262.847656 86.15625 261.789062 86.15625 260.730469 L 86.15625 246.449219 C 86.15625 242.667969 87.742188 242.367188 89.101562 242.367188 L 89.40625 242.367188 L 89.40625 241.6875 C 88.195312 241.6875 86.910156 241.839844 85.703125 241.839844 C 84.265625 241.839844 82.90625 241.6875 81.46875 241.6875 L 81.46875 242.367188 L 82 242.367188 C 82.980469 242.367188 84.871094 242.820312 84.871094 245.464844 L 84.871094 257.332031 L 84.792969 257.40625 L 84.71875 257.480469 L 70.8125 241.6875 C 69.90625 241.6875 69 241.839844 68.015625 241.839844 C 66.882812 241.839844 65.675781 241.6875 64.539062 241.6875 L 64.539062 242.367188 L 64.84375 242.367188 C 66.277344 242.367188 67.789062 243.5 67.789062 245.3125 L 67.789062 258.539062 C 67.789062 261.035156 67.109375 262.621094 64.84375 262.695312 L 64.539062 262.695312 L 64.539062 263.375 C 65.902344 263.375 67.261719 263.226562 68.695312 263.226562 C 69.980469 263.226562 71.34375 263.375 72.628906 263.375 L 72.628906 262.695312 L 72.25 262.695312 C 69.753906 262.695312 69.152344 261.636719 69.152344 258.917969 L 69.152344 245.691406 Z M 86.457031 264.058594 L 85.171875 263.980469 L 69.300781 246.222656 L 69.300781 258.765625 C 69.300781 261.488281 69.753906 262.242188 72.097656 262.320312 L 72.777344 262.320312 L 72.777344 263.527344 L 72.628906 263.527344 C 71.265625 263.527344 69.90625 263.375 68.621094 263.375 C 67.1875 263.375 65.75 263.527344 64.390625 263.527344 L 64.238281 263.527344 L 64.238281 262.320312 L 64.765625 262.320312 C 66.808594 262.320312 67.414062 260.957031 67.414062 258.464844 L 67.414062 245.238281 C 67.414062 243.574219 66.050781 242.59375 64.691406 242.59375 L 64.164062 242.59375 L 64.164062 241.382812 L 64.3125 241.382812 C 65.523438 241.382812 66.730469 241.535156 67.941406 241.535156 C 68.847656 241.535156 69.753906 241.382812 70.8125 241.460938 L 84.566406 256.953125 L 84.566406 245.390625 C 84.566406 242.894531 82.90625 242.59375 82 242.59375 L 81.167969 242.59375 L 81.167969 241.382812 L 81.316406 241.382812 C 82.828125 241.382812 84.265625 241.535156 85.703125 241.535156 C 86.984375 241.535156 88.269531 241.382812 89.554688 241.382812 L 89.707031 241.382812 L 89.707031 242.59375 L 89.101562 242.59375 C 87.816406 242.59375 86.457031 242.746094 86.457031 246.449219 L 86.457031 260.730469 C 86.457031 261.863281 86.457031 262.921875 86.609375 263.90625 L 86.609375 264.058594 Z M 86.457031 264.058594 " fill-opacity="1" fill-rule="nonzero"/><path fill="#ffffff" d="M 94.242188 243.121094 C 91.898438 243.121094 91.824219 243.726562 91.292969 245.996094 L 90.386719 245.996094 C 90.539062 245.085938 90.6875 244.257812 90.765625 243.347656 C 90.914062 242.441406 90.992188 241.609375 90.992188 240.703125 L 91.746094 240.703125 C 91.972656 241.609375 92.804688 241.609375 93.636719 241.609375 L 109.808594 241.609375 C 110.640625 241.609375 111.472656 241.609375 111.472656 240.628906 L 112.226562 240.78125 C 112.078125 241.609375 112 242.441406 111.851562 243.347656 C 111.773438 244.179688 111.773438 245.011719 111.773438 245.917969 L 110.867188 246.296875 C 110.792969 245.164062 110.640625 243.273438 108.523438 243.273438 L 103.386719 243.273438 L 103.386719 259.976562 C 103.386719 262.394531 104.445312 262.695312 105.957031 262.695312 L 106.558594 262.695312 L 106.558594 263.601562 C 105.351562 263.601562 103.160156 263.453125 101.421875 263.453125 C 99.53125 263.453125 97.339844 263.601562 96.128906 263.601562 L 96.128906 262.695312 L 96.734375 262.695312 C 98.472656 262.695312 99.304688 262.546875 99.304688 260.050781 L 99.304688 243.347656 L 94.242188 243.347656 Z M 94.242188 243.121094 " fill-opacity="1" fill-rule="nonzero"/><path fill="#ffffff" d="M 106.558594 263.527344 C 105.351562 263.527344 103.160156 263.375 101.421875 263.375 C 99.53125 263.375 97.339844 263.527344 96.128906 263.527344 L 96.054688 263.527344 L 96.054688 262.320312 L 96.8125 262.320312 C 98.550781 262.242188 99.230469 262.242188 99.304688 259.824219 L 99.304688 243.199219 L 94.316406 243.199219 L 94.316406 242.894531 L 99.605469 242.894531 L 99.605469 259.75 C 99.605469 262.242188 98.625 262.546875 96.886719 262.546875 L 96.433594 262.546875 L 96.433594 263.226562 C 97.640625 263.226562 99.757812 263.074219 101.570312 263.074219 C 103.234375 263.074219 105.273438 263.226562 106.558594 263.226562 L 106.558594 262.546875 L 106.105469 262.546875 C 104.59375 262.546875 103.386719 262.167969 103.386719 259.671875 L 103.386719 242.894531 L 108.675781 242.894531 C 110.792969 242.894531 111.019531 244.710938 111.09375 245.84375 L 111.773438 245.617188 C 111.773438 244.785156 111.773438 243.953125 111.851562 243.121094 C 111.925781 242.292969 112.078125 241.535156 112.152344 240.703125 L 111.699219 240.628906 C 111.546875 241.535156 110.640625 241.609375 109.886719 241.609375 L 93.5625 241.609375 C 92.804688 241.609375 92.050781 241.609375 91.746094 240.703125 L 91.21875 240.703125 C 91.21875 241.535156 91.144531 242.367188 90.992188 243.273438 C 90.914062 244.105469 90.765625 244.9375 90.613281 245.769531 L 91.292969 245.769531 C 91.746094 243.574219 91.972656 242.894531 94.316406 242.894531 L 94.316406 243.199219 C 91.972656 243.273438 92.050781 243.652344 91.519531 245.917969 L 91.519531 245.996094 L 90.3125 245.996094 L 90.3125 245.84375 C 90.460938 244.9375 90.613281 244.105469 90.6875 243.199219 C 90.839844 242.292969 90.839844 241.460938 90.839844 240.554688 L 90.839844 240.402344 L 91.824219 240.402344 L 91.824219 240.476562 C 92.050781 241.308594 92.578125 241.308594 93.410156 241.308594 L 109.734375 241.308594 C 110.640625 241.308594 111.246094 241.308594 111.320312 240.476562 L 111.320312 240.328125 L 111.472656 240.328125 L 112.378906 240.476562 L 112.378906 240.628906 C 112.226562 241.460938 112.152344 242.292969 112 243.121094 C 111.925781 243.953125 111.925781 244.785156 111.925781 245.617188 L 111.925781 245.691406 L 111.851562 245.769531 L 110.714844 246.144531 L 110.714844 245.996094 C 110.640625 244.785156 110.488281 243.121094 108.523438 243.121094 L 103.535156 243.121094 L 103.535156 259.671875 C 103.535156 262.015625 104.519531 262.242188 106.03125 262.242188 L 106.785156 262.242188 L 106.785156 263.453125 L 106.558594 263.453125 Z M 106.558594 263.527344 " fill-opacity="1" fill-rule="nonzero"/><path fill="#ffffff" d="M 113.210938 262.46875 L 113.664062 262.46875 C 114.796875 262.46875 116.007812 262.320312 116.007812 260.65625 L 116.007812 244.257812 C 116.007812 242.59375 114.796875 242.441406 113.664062 242.441406 L 113.210938 242.441406 L 113.210938 241.535156 C 115.101562 241.535156 118.347656 241.6875 120.996094 241.6875 C 123.640625 241.6875 126.890625 241.535156 129.003906 241.535156 C 128.929688 242.894531 129.003906 244.9375 129.082031 246.296875 L 128.097656 246.523438 C 127.949219 244.484375 127.570312 242.894531 124.320312 242.894531 L 119.9375 242.894531 L 119.9375 251.132812 L 123.640625 251.132812 C 125.527344 251.132812 125.90625 250.074219 126.132812 248.414062 L 127.039062 248.414062 C 126.964844 249.621094 126.964844 250.832031 126.964844 252.117188 C 126.964844 253.324219 126.964844 254.535156 127.039062 255.667969 L 126.132812 255.820312 C 125.90625 253.929688 125.832031 252.71875 123.714844 252.71875 L 119.9375 252.71875 L 119.9375 260.050781 C 119.9375 262.09375 121.75 262.09375 123.714844 262.09375 C 127.492188 262.09375 129.15625 261.863281 130.0625 258.238281 L 130.96875 258.464844 C 130.59375 260.125 130.214844 261.789062 129.914062 263.453125 C 127.871094 263.453125 124.320312 263.300781 121.449219 263.300781 C 118.652344 263.300781 114.871094 263.453125 113.136719 263.453125 L 113.136719 262.46875 Z M 113.210938 262.46875 " fill-opacity="1" fill-rule="nonzero"/><path fill="#ffffff" d="M 129.835938 263.300781 C 130.140625 261.714844 130.441406 260.125 130.820312 258.539062 L 130.214844 258.390625 C 129.308594 261.863281 127.492188 262.167969 123.789062 262.167969 C 121.824219 262.167969 119.859375 262.167969 119.859375 259.976562 L 119.859375 252.570312 L 123.789062 252.570312 C 125.984375 252.570312 126.210938 253.855469 126.359375 255.667969 L 127.039062 255.515625 C 126.964844 254.382812 126.964844 253.175781 126.964844 252.039062 C 126.964844 250.832031 126.964844 249.699219 127.039062 248.488281 L 126.285156 248.488281 C 126.132812 250.152344 125.605469 251.285156 123.714844 251.285156 L 119.859375 251.285156 L 119.859375 242.820312 L 124.394531 242.820312 C 127.644531 242.820312 128.175781 244.484375 128.324219 246.449219 L 129.003906 246.296875 C 128.929688 245.390625 128.929688 244.257812 128.929688 243.199219 C 128.929688 242.667969 128.929688 242.140625 128.929688 241.6875 C 126.8125 241.6875 123.640625 241.839844 121.070312 241.839844 C 118.5 241.839844 115.328125 241.6875 113.4375 241.6875 L 113.4375 242.367188 L 113.738281 242.367188 C 114.871094 242.367188 116.15625 242.59375 116.15625 244.257812 L 116.15625 260.65625 C 116.15625 262.394531 114.796875 262.546875 113.738281 262.621094 L 113.4375 262.621094 L 113.4375 263.300781 C 115.25 263.300781 118.878906 263.148438 121.597656 263.148438 C 124.320312 263.148438 127.796875 263.300781 129.835938 263.300781 M 129.914062 263.527344 C 127.871094 263.527344 124.320312 263.375 121.449219 263.375 C 118.652344 263.375 114.871094 263.527344 113.136719 263.527344 L 112.984375 263.527344 L 112.984375 262.320312 L 113.589844 262.320312 C 114.722656 262.320312 115.78125 262.167969 115.78125 260.65625 L 115.78125 244.257812 C 115.78125 242.746094 114.722656 242.59375 113.589844 242.59375 L 112.984375 242.59375 L 112.984375 241.382812 L 113.136719 241.382812 C 115.023438 241.382812 118.273438 241.535156 120.917969 241.535156 C 123.5625 241.535156 126.8125 241.382812 128.929688 241.382812 L 129.082031 241.382812 L 129.082031 243.121094 C 129.082031 244.179688 129.082031 245.390625 129.15625 246.296875 L 129.15625 246.449219 L 129.082031 246.449219 L 127.949219 246.75 L 127.949219 246.597656 C 127.796875 244.558594 127.492188 243.046875 124.246094 243.046875 L 120.011719 243.046875 L 120.011719 250.980469 L 123.640625 250.980469 C 125.453125 250.980469 125.753906 250.074219 125.984375 248.335938 L 125.984375 248.1875 L 127.191406 248.1875 L 127.191406 248.335938 C 127.117188 249.546875 127.117188 250.753906 127.117188 252.039062 C 127.117188 253.25 127.191406 254.382812 127.191406 255.59375 L 127.191406 255.667969 L 127.117188 255.667969 L 126.058594 255.894531 L 126.058594 255.742188 C 125.832031 253.855469 125.832031 252.796875 123.714844 252.796875 L 120.085938 252.796875 L 120.085938 259.976562 C 120.085938 261.863281 121.75 261.863281 123.789062 261.863281 C 127.570312 261.863281 129.082031 261.636719 129.988281 258.160156 L 129.988281 258.011719 L 130.140625 258.011719 L 131.121094 258.238281 L 131.121094 258.386719 C 130.742188 260.050781 130.367188 261.714844 130.0625 263.375 L 130.0625 263.453125 L 129.914062 263.453125 Z M 129.914062 263.527344 " fill-opacity="1" fill-rule="nonzero"/><path fill="#ffffff" d="M 139.285156 252.117188 L 140.796875 252.117188 C 143.96875 252.117188 145.632812 250.90625 145.632812 247.203125 C 145.632812 244.40625 143.816406 242.667969 141.023438 242.667969 C 140.113281 242.667969 139.660156 242.746094 139.207031 242.820312 L 139.207031 252.117188 Z M 135.203125 244.859375 C 135.203125 242.59375 133.917969 242.519531 133.011719 242.519531 L 132.480469 242.519531 L 132.480469 241.535156 C 133.464844 241.535156 135.429688 241.6875 137.320312 241.6875 C 139.207031 241.6875 140.71875 241.535156 142.382812 241.535156 C 146.3125 241.535156 149.863281 242.59375 149.863281 247.050781 C 149.863281 249.847656 147.972656 251.585938 145.480469 252.570312 L 150.847656 260.582031 C 151.753906 261.941406 152.359375 262.242188 153.871094 262.46875 L 153.871094 263.375 C 152.8125 263.375 151.828125 263.226562 150.769531 263.226562 C 149.789062 263.226562 148.804688 263.375 147.824219 263.375 C 145.40625 260.203125 143.363281 256.800781 141.324219 253.25 L 139.285156 253.25 L 139.285156 259.976562 C 139.285156 262.394531 140.417969 262.46875 141.851562 262.46875 L 142.382812 262.46875 L 142.382812 263.375 C 140.566406 263.375 138.753906 263.226562 137.015625 263.226562 C 135.503906 263.226562 134.070312 263.375 132.480469 263.375 L 132.480469 262.46875 L 133.011719 262.46875 C 134.144531 262.46875 135.203125 261.941406 135.203125 260.808594 Z M 135.203125 244.859375 " fill-opacity="1" fill-rule="nonzero"/><path fill="#ffffff" d="M 140.796875 251.964844 C 143.894531 251.964844 145.480469 250.832031 145.480469 247.203125 C 145.480469 244.484375 143.742188 242.746094 141.023438 242.746094 C 140.191406 242.746094 139.8125 242.820312 139.359375 242.894531 L 139.359375 251.964844 Z M 139.285156 252.265625 L 139.132812 252.265625 L 139.132812 242.667969 L 139.285156 242.667969 C 139.738281 242.667969 140.113281 242.519531 141.097656 242.519531 C 143.96875 242.519531 145.78125 244.332031 145.78125 247.203125 C 145.78125 250.980469 143.96875 252.191406 140.796875 252.191406 L 139.285156 252.191406 Z M 139.285156 253.097656 L 141.398438 253.097656 L 141.398438 253.175781 C 143.441406 256.800781 145.480469 260.125 147.824219 263.226562 C 148.804688 263.226562 149.789062 263.074219 150.769531 263.074219 C 151.753906 263.074219 152.734375 263.148438 153.71875 263.226562 L 153.71875 262.546875 C 152.207031 262.394531 151.527344 261.941406 150.695312 260.65625 L 145.253906 252.492188 L 145.40625 252.417969 C 147.824219 251.4375 149.636719 249.773438 149.710938 247.050781 C 149.710938 242.667969 146.3125 241.6875 142.382812 241.6875 C 140.71875 241.6875 139.207031 241.839844 137.320312 241.839844 C 135.503906 241.839844 133.617188 241.6875 132.558594 241.6875 L 132.558594 242.367188 L 133.011719 242.367188 C 133.992188 242.367188 135.355469 242.519531 135.355469 244.859375 L 135.355469 260.808594 C 135.355469 262.09375 134.144531 262.621094 133.011719 262.621094 L 132.558594 262.621094 L 132.558594 263.300781 C 134.070312 263.300781 135.503906 263.148438 136.941406 263.148438 C 138.679688 263.148438 140.492188 263.300781 142.230469 263.300781 L 142.230469 262.621094 L 141.777344 262.621094 C 140.339844 262.621094 139.058594 262.46875 139.058594 259.976562 L 139.058594 253.175781 L 139.285156 253.175781 Z M 153.871094 263.527344 C 152.8125 263.527344 151.828125 263.375 150.769531 263.375 C 149.789062 263.375 148.804688 263.527344 147.746094 263.453125 C 145.328125 260.277344 143.289062 256.953125 141.25 253.324219 L 139.433594 253.324219 L 139.433594 259.898438 C 139.433594 262.242188 140.417969 262.242188 141.851562 262.242188 L 142.535156 262.242188 L 142.535156 263.453125 L 142.382812 263.453125 C 140.566406 263.453125 138.753906 263.300781 137.015625 263.300781 C 135.503906 263.300781 134.070312 263.453125 132.480469 263.453125 L 132.332031 263.453125 L 132.332031 262.320312 L 133.011719 262.320312 C 134.144531 262.320312 135.125 261.789062 135.125 260.730469 L 135.125 244.785156 C 135.125 242.59375 133.992188 242.59375 133.011719 242.519531 L 132.332031 242.519531 L 132.332031 241.308594 L 132.480469 241.308594 C 133.464844 241.308594 135.429688 241.460938 137.320312 241.460938 C 139.207031 241.460938 140.71875 241.308594 142.382812 241.308594 C 146.3125 241.308594 149.941406 242.367188 150.015625 246.976562 C 150.015625 249.773438 148.125 251.585938 145.707031 252.570312 L 150.996094 260.429688 C 151.90625 261.714844 152.433594 262.09375 153.945312 262.242188 L 154.019531 262.242188 L 154.019531 263.453125 L 153.871094 263.453125 Z M 153.871094 263.527344 " fill-opacity="1" fill-rule="nonzero"/><path fill="#ffffff" d="M 175.105469 257.253906 L 175.179688 245.464844 C 175.179688 242.894531 173.367188 242.519531 172.460938 242.519531 L 171.78125 242.519531 L 171.78125 241.609375 C 173.292969 241.609375 174.726562 241.761719 176.164062 241.761719 C 177.449219 241.761719 178.734375 241.609375 180.019531 241.609375 L 180.019531 242.519531 L 179.566406 242.519531 C 178.28125 242.519531 176.769531 242.746094 176.769531 246.523438 L 176.769531 260.808594 C 176.769531 261.941406 176.769531 263 176.996094 263.980469 L 175.785156 263.980469 L 159.613281 245.996094 L 159.613281 258.917969 C 159.613281 261.636719 160.140625 262.621094 162.558594 262.621094 L 163.089844 262.621094 L 163.089844 263.527344 C 161.730469 263.527344 160.367188 263.375 159.085938 263.375 C 157.648438 263.375 156.210938 263.527344 154.851562 263.527344 L 154.851562 262.621094 L 155.304688 262.621094 C 157.496094 262.621094 158.101562 261.109375 158.101562 258.617188 L 158.101562 245.390625 C 158.101562 243.652344 156.664062 242.59375 155.230469 242.59375 L 154.851562 242.59375 L 154.851562 241.6875 C 156.0625 241.6875 157.269531 241.839844 158.480469 241.839844 C 159.386719 241.839844 160.292969 241.6875 161.277344 241.6875 Z M 175.105469 257.253906 " fill-opacity="1" fill-rule="nonzero"/><path fill="#ffffff" d="M 175.105469 257.253906 L 175.179688 257.179688 Z M 175.785156 263.753906 L 176.84375 263.753906 C 176.691406 262.847656 176.691406 261.789062 176.691406 260.730469 L 176.691406 246.449219 C 176.691406 242.667969 178.28125 242.367188 179.640625 242.367188 L 179.941406 242.367188 L 179.941406 241.6875 C 178.734375 241.6875 177.449219 241.839844 176.238281 241.839844 C 174.804688 241.839844 173.367188 241.6875 172.007812 241.6875 L 172.007812 242.367188 L 172.535156 242.367188 C 173.519531 242.367188 175.40625 242.820312 175.40625 245.464844 L 175.332031 257.332031 L 175.257812 257.40625 L 175.179688 257.480469 L 161.199219 241.6875 C 160.292969 241.6875 159.386719 241.839844 158.402344 241.839844 C 157.269531 241.839844 156.0625 241.6875 154.925781 241.6875 L 154.925781 242.367188 L 155.230469 242.367188 C 156.664062 242.367188 158.175781 243.5 158.175781 245.3125 L 158.175781 258.539062 C 158.175781 261.035156 157.496094 262.621094 155.230469 262.695312 L 154.925781 262.695312 L 154.925781 263.375 C 156.289062 263.375 157.648438 263.226562 159.085938 263.226562 C 160.367188 263.226562 161.730469 263.375 163.015625 263.375 L 163.015625 262.695312 L 162.558594 262.695312 C 160.066406 262.695312 159.460938 261.636719 159.460938 258.917969 L 159.460938 245.691406 Z M 176.917969 264.058594 L 175.636719 263.980469 L 159.765625 246.222656 L 159.765625 258.765625 C 159.839844 261.488281 160.21875 262.242188 162.558594 262.320312 L 163.242188 262.320312 L 163.242188 263.527344 L 163.089844 263.527344 C 161.730469 263.527344 160.367188 263.375 159.085938 263.375 C 157.648438 263.375 156.210938 263.527344 154.851562 263.527344 L 154.699219 263.527344 L 154.699219 262.320312 L 155.304688 262.320312 C 157.347656 262.320312 157.949219 260.957031 158.027344 258.464844 L 158.027344 245.238281 C 158.027344 243.574219 156.664062 242.59375 155.304688 242.59375 L 154.777344 242.59375 L 154.777344 241.382812 L 154.925781 241.382812 C 156.136719 241.382812 157.347656 241.535156 158.554688 241.535156 C 159.460938 241.535156 160.367188 241.382812 161.425781 241.460938 L 175.179688 256.953125 L 175.179688 245.390625 C 175.179688 242.894531 173.519531 242.59375 172.613281 242.59375 L 171.628906 242.59375 L 171.628906 241.382812 L 171.78125 241.382812 C 173.292969 241.382812 174.726562 241.535156 176.164062 241.535156 C 177.449219 241.535156 178.734375 241.382812 180.019531 241.382812 L 180.167969 241.382812 L 180.167969 242.59375 L 179.566406 242.59375 C 178.28125 242.59375 176.917969 242.746094 176.917969 246.449219 L 176.917969 260.730469 C 176.917969 261.863281 176.917969 262.921875 177.070312 263.90625 L 177.070312 264.058594 Z M 176.917969 264.058594 " fill-opacity="1" fill-rule="nonzero"/><path fill="#ffffff" d="M 189.617188 245.085938 L 186.667969 253.929688 L 192.5625 253.929688 Z M 185.082031 258.917969 C 184.777344 259.976562 184.402344 260.808594 184.402344 261.335938 C 184.402344 262.242188 185.6875 262.46875 186.746094 262.46875 L 187.121094 262.46875 L 187.121094 263.375 C 185.835938 263.300781 184.550781 263.226562 183.34375 263.226562 C 182.210938 263.226562 181.074219 263.300781 179.941406 263.375 L 179.941406 262.46875 L 180.167969 262.46875 C 181.378906 262.46875 182.4375 261.714844 182.890625 260.429688 L 187.878906 246.070312 C 188.253906 244.9375 188.859375 243.347656 189.011719 242.214844 C 189.992188 241.839844 191.277344 241.234375 191.882812 240.855469 C 191.957031 240.855469 192.035156 240.78125 192.109375 240.78125 C 192.1875 240.78125 192.261719 240.78125 192.335938 240.855469 C 192.414062 241.082031 192.488281 241.382812 192.640625 241.609375 L 198.382812 258.011719 C 198.761719 259.144531 199.136719 260.277344 199.515625 261.183594 C 199.894531 262.09375 200.574219 262.46875 201.632812 262.46875 L 201.785156 262.46875 L 201.785156 263.375 C 200.347656 263.300781 198.988281 263.226562 197.476562 263.226562 C 195.964844 263.226562 194.378906 263.300781 192.789062 263.375 L 192.789062 262.46875 L 193.167969 262.46875 C 193.847656 262.46875 195.132812 262.320312 195.132812 261.5625 C 195.132812 261.183594 194.832031 260.277344 194.527344 259.296875 L 193.320312 255.667969 L 186.214844 255.667969 Z M 185.082031 258.917969 " fill-opacity="1" fill-rule="nonzero"/><path fill="#ffffff" d="M 186.820312 253.777344 L 192.335938 253.777344 L 189.617188 245.390625 Z M 186.441406 254.082031 L 189.464844 244.9375 L 189.617188 244.9375 L 189.617188 245.085938 L 189.617188 244.9375 L 189.691406 244.9375 L 192.640625 254.082031 Z M 192.867188 263.300781 C 194.453125 263.226562 195.964844 263.148438 197.476562 263.148438 C 198.910156 263.148438 200.273438 263.226562 201.632812 263.300781 L 201.632812 262.621094 L 201.558594 262.621094 C 200.5 262.621094 199.742188 262.167969 199.363281 261.261719 C 198.988281 260.277344 198.609375 259.144531 198.230469 258.085938 L 192.488281 241.6875 C 192.414062 241.460938 192.335938 241.15625 192.1875 240.929688 C 192.1875 240.929688 192.1875 240.929688 192.109375 240.929688 L 192.035156 240.929688 C 191.957031 240.929688 191.957031 240.929688 191.882812 241.007812 C 191.277344 241.382812 189.992188 241.988281 189.085938 242.292969 C 188.859375 243.5 188.332031 245.011719 187.953125 246.222656 L 182.964844 260.582031 C 182.511719 261.941406 181.378906 262.695312 180.09375 262.695312 L 180.019531 262.695312 L 180.019531 263.375 C 181.074219 263.300781 182.210938 263.226562 183.269531 263.226562 C 184.476562 263.226562 185.6875 263.300781 186.894531 263.375 L 186.894531 262.695312 L 186.746094 262.695312 C 185.761719 262.695312 184.324219 262.546875 184.25 261.488281 C 184.25 260.882812 184.628906 260.050781 184.929688 258.992188 L 185.082031 259.070312 L 184.929688 258.992188 L 185.988281 255.667969 L 193.320312 255.667969 L 194.605469 259.371094 C 194.980469 260.355469 195.207031 261.183594 195.207031 261.636719 C 195.132812 262.621094 193.847656 262.695312 193.09375 262.695312 L 192.867188 262.695312 Z M 201.785156 263.527344 C 200.347656 263.453125 198.988281 263.375 197.476562 263.375 C 195.964844 263.375 194.378906 263.453125 192.789062 263.527344 L 192.640625 263.527344 L 192.640625 262.320312 L 193.167969 262.320312 C 193.921875 262.320312 194.980469 262.167969 194.980469 261.5625 C 194.980469 261.183594 194.679688 260.355469 194.378906 259.371094 L 193.167969 255.820312 L 186.214844 255.820312 L 185.234375 258.992188 C 184.929688 260.050781 184.550781 260.882812 184.550781 261.410156 C 184.550781 262.167969 185.761719 262.394531 186.746094 262.394531 L 187.199219 262.394531 L 187.199219 263.601562 L 187.046875 263.601562 C 185.761719 263.527344 184.476562 263.453125 183.269531 263.453125 C 182.132812 263.453125 181 263.527344 179.867188 263.601562 L 179.714844 263.601562 L 179.714844 262.320312 L 180.019531 262.320312 C 181.226562 262.320312 182.132812 261.636719 182.585938 260.355469 L 187.574219 245.996094 C 187.953125 244.859375 188.558594 243.273438 188.859375 241.988281 C 189.84375 241.6875 191.128906 241.007812 191.730469 240.628906 C 191.808594 240.628906 191.882812 240.554688 192.035156 240.554688 C 192.109375 240.554688 192.261719 240.554688 192.414062 240.703125 C 192.488281 240.929688 192.640625 241.234375 192.714844 241.460938 L 198.457031 257.859375 C 198.835938 258.992188 199.214844 260.128906 199.59375 261.035156 C 199.96875 261.863281 200.5 262.167969 201.558594 262.167969 L 201.859375 262.167969 L 201.859375 263.375 Z M 201.785156 263.527344 " fill-opacity="1" fill-rule="nonzero"/><path fill="#ffffff" d="M 203.144531 243.121094 C 200.800781 243.121094 200.726562 243.726562 200.195312 245.996094 L 199.214844 245.996094 C 199.363281 245.085938 199.515625 244.257812 199.59375 243.347656 C 199.742188 242.441406 199.820312 241.609375 199.820312 240.703125 L 200.574219 240.703125 C 200.800781 241.609375 201.632812 241.609375 202.464844 241.609375 L 218.636719 241.609375 C 219.46875 241.609375 220.300781 241.609375 220.300781 240.628906 L 221.054688 240.78125 C 220.902344 241.609375 220.828125 242.441406 220.675781 243.347656 C 220.601562 244.179688 220.601562 245.011719 220.601562 245.917969 L 219.695312 246.296875 C 219.617188 245.164062 219.46875 243.273438 217.351562 243.273438 L 212.210938 243.273438 L 212.210938 259.976562 C 212.210938 262.394531 213.347656 262.695312 214.78125 262.695312 L 215.386719 262.695312 L 215.386719 263.601562 C 214.175781 263.601562 211.984375 263.453125 210.246094 263.453125 C 208.359375 263.453125 206.167969 263.601562 204.957031 263.601562 L 204.957031 262.695312 L 205.5625 262.695312 C 207.300781 262.695312 208.207031 262.546875 208.207031 260.050781 L 208.207031 243.347656 L 203.144531 243.347656 Z M 203.144531 243.121094 " fill-opacity="1" fill-rule="nonzero"/><path fill="#ffffff" d="M 215.460938 263.527344 C 214.253906 263.527344 212.0625 263.375 210.324219 263.375 C 208.433594 263.375 206.242188 263.527344 205.035156 263.527344 L 204.882812 263.527344 L 204.882812 262.320312 L 205.636719 262.320312 C 207.375 262.242188 208.054688 262.242188 208.132812 259.824219 L 208.132812 243.199219 L 203.144531 243.199219 L 203.144531 242.894531 L 208.433594 242.894531 L 208.433594 259.75 C 208.433594 262.242188 207.453125 262.46875 205.714844 262.546875 L 205.261719 262.546875 L 205.261719 263.226562 C 206.46875 263.226562 208.585938 263.074219 210.398438 263.074219 C 212.0625 263.074219 214.101562 263.226562 215.386719 263.226562 L 215.386719 262.546875 L 214.933594 262.546875 C 213.421875 262.546875 212.210938 262.167969 212.210938 259.75 L 212.210938 242.972656 L 217.503906 242.972656 C 219.617188 242.972656 219.921875 244.785156 219.921875 245.917969 L 220.601562 245.691406 C 220.601562 244.859375 220.601562 244.03125 220.675781 243.199219 C 220.753906 242.367188 220.902344 241.609375 220.980469 240.78125 L 220.527344 240.703125 C 220.375 241.609375 219.46875 241.6875 218.710938 241.6875 L 202.386719 241.6875 C 201.632812 241.6875 200.875 241.6875 200.574219 240.78125 L 200.046875 240.78125 C 200.046875 241.609375 199.96875 242.519531 199.820312 243.347656 C 199.742188 244.179688 199.59375 245.011719 199.441406 245.84375 L 200.121094 245.84375 C 200.5 243.652344 200.800781 242.972656 203.144531 242.972656 L 203.144531 243.273438 C 200.800781 243.347656 200.875 243.726562 200.347656 245.996094 L 200.347656 246.070312 L 199.136719 246.070312 L 199.136719 245.917969 C 199.289062 245.011719 199.441406 244.179688 199.515625 243.273438 C 199.667969 242.367188 199.742188 241.535156 199.742188 240.628906 L 199.742188 240.476562 L 200.726562 240.476562 L 200.726562 240.554688 C 200.953125 241.382812 201.480469 241.382812 202.3125 241.382812 L 218.636719 241.382812 C 219.46875 241.382812 220.148438 241.382812 220.222656 240.554688 L 220.222656 240.402344 L 220.375 240.402344 L 221.28125 240.554688 L 221.28125 240.703125 C 221.128906 241.535156 221.054688 242.367188 220.902344 243.199219 C 220.828125 244.03125 220.828125 244.859375 220.828125 245.691406 L 220.828125 245.769531 L 220.753906 245.84375 L 219.617188 246.222656 L 219.617188 246.070312 C 219.542969 244.859375 219.390625 243.199219 217.425781 243.199219 L 212.441406 243.199219 L 212.441406 259.75 C 212.441406 262.09375 213.421875 262.320312 214.933594 262.320312 L 215.6875 262.320312 L 215.6875 263.527344 Z M 215.460938 263.527344 " fill-opacity="1" fill-rule="nonzero"/><path fill="#ffffff" d="M 222.265625 262.46875 L 222.71875 262.46875 C 223.851562 262.46875 225.058594 262.320312 225.058594 260.65625 L 225.058594 244.257812 C 225.058594 242.59375 223.851562 242.441406 222.71875 242.441406 L 222.265625 242.441406 L 222.265625 241.535156 C 223.472656 241.535156 225.363281 241.6875 226.875 241.6875 C 228.460938 241.6875 230.351562 241.535156 231.785156 241.535156 L 231.785156 242.441406 L 231.332031 242.441406 C 230.199219 242.441406 228.992188 242.59375 228.992188 244.257812 L 228.992188 260.65625 C 228.992188 262.320312 230.199219 262.46875 231.332031 262.46875 L 231.785156 262.46875 L 231.785156 263.375 C 230.273438 263.375 228.386719 263.226562 226.796875 263.226562 C 225.289062 263.226562 223.398438 263.375 222.1875 263.375 L 222.1875 262.46875 Z M 222.265625 262.46875 " fill-opacity="1" fill-rule="nonzero"/><path fill="#ffffff" d="M 231.710938 263.300781 L 231.710938 262.621094 L 231.410156 262.621094 C 230.273438 262.621094 228.914062 262.394531 228.914062 260.730469 L 228.914062 244.332031 C 228.914062 242.59375 230.273438 242.441406 231.410156 242.441406 L 231.710938 242.441406 L 231.710938 241.761719 C 230.273438 241.761719 228.460938 241.914062 226.949219 241.914062 C 225.4375 241.914062 223.699219 241.761719 222.414062 241.761719 L 222.414062 242.441406 L 222.71875 242.441406 C 223.851562 242.441406 225.136719 242.667969 225.210938 244.332031 L 225.210938 260.730469 C 225.210938 262.46875 223.851562 262.621094 222.71875 262.621094 L 222.414062 262.621094 L 222.414062 263.300781 C 223.625 263.300781 225.363281 263.148438 226.875 263.148438 C 228.386719 263.148438 230.199219 263.300781 231.710938 263.300781 M 231.785156 263.527344 C 230.273438 263.527344 228.386719 263.375 226.875 263.375 C 225.363281 263.375 223.472656 263.527344 222.265625 263.527344 L 222.113281 263.527344 L 222.113281 262.320312 L 222.71875 262.320312 C 223.851562 262.320312 224.910156 262.167969 224.910156 260.65625 L 224.910156 244.257812 C 224.910156 242.746094 223.851562 242.59375 222.71875 242.59375 L 222.113281 242.59375 L 222.113281 241.382812 L 222.265625 241.382812 C 223.472656 241.382812 225.363281 241.535156 226.875 241.535156 C 228.460938 241.535156 230.351562 241.382812 231.785156 241.382812 L 231.9375 241.382812 L 231.9375 242.59375 L 231.332031 242.59375 C 230.199219 242.59375 229.140625 242.746094 229.140625 244.257812 L 229.140625 260.65625 C 229.140625 262.167969 230.199219 262.320312 231.332031 262.320312 L 231.9375 262.320312 L 231.9375 263.527344 Z M 231.785156 263.527344 " fill-opacity="1" fill-rule="nonzero"/><path fill="#ffffff" d="M 244.785156 262.546875 C 250.832031 262.546875 251.890625 257.179688 251.890625 252.644531 C 251.890625 248.035156 249.394531 242.519531 244.179688 242.519531 C 238.664062 242.519531 237.078125 247.429688 237.078125 251.585938 C 237.152344 257.179688 239.722656 262.546875 244.785156 262.546875 M 244.332031 241.082031 C 251.058594 241.082031 256.347656 245.238281 256.347656 251.890625 C 256.347656 259.070312 251.210938 263.90625 244.484375 263.90625 C 237.832031 263.90625 232.769531 259.371094 232.769531 252.644531 C 232.769531 246.144531 237.757812 241.082031 244.332031 241.082031 " fill-opacity="1" fill-rule="nonzero"/><path fill="#ffffff" d="M 237 251.511719 C 237 247.28125 238.664062 242.292969 244.257812 242.292969 C 249.546875 242.292969 252.039062 247.960938 252.039062 252.570312 C 252.039062 257.105469 250.984375 262.621094 244.785156 262.621094 L 244.785156 262.320312 C 250.753906 262.320312 251.8125 257.105469 251.8125 252.492188 C 251.8125 247.960938 249.394531 242.519531 244.257812 242.519531 C 238.890625 242.519531 237.304688 247.277344 237.304688 251.4375 C 237.304688 257.027344 239.871094 262.242188 244.785156 262.242188 L 244.785156 262.546875 C 239.570312 262.621094 237 257.179688 237 251.511719 M 232.617188 252.644531 C 232.617188 246.070312 237.757812 240.929688 244.332031 240.929688 L 244.332031 241.234375 C 237.90625 241.234375 232.921875 246.222656 232.921875 252.644531 C 232.921875 259.296875 237.90625 263.753906 244.484375 263.753906 C 251.058594 263.753906 256.195312 258.992188 256.195312 251.890625 C 256.195312 245.3125 250.980469 241.234375 244.332031 241.234375 L 244.332031 240.929688 C 251.058594 240.929688 256.5 245.085938 256.5 251.890625 C 256.5 259.144531 251.285156 263.980469 244.558594 264.058594 C 237.757812 263.980469 232.617188 259.445312 232.617188 252.644531 " fill-opacity="1" fill-rule="nonzero"/><path fill="#ffffff" d="M 277.433594 257.253906 L 277.507812 245.464844 C 277.507812 242.894531 275.695312 242.519531 274.789062 242.519531 L 274.109375 242.519531 L 274.109375 241.609375 C 275.542969 241.609375 277.054688 241.761719 278.492188 241.761719 C 279.777344 241.761719 281.0625 241.609375 282.347656 241.609375 L 282.347656 242.519531 L 281.890625 242.519531 C 280.609375 242.519531 279.097656 242.746094 279.097656 246.523438 L 279.097656 260.808594 C 279.097656 261.941406 279.097656 263 279.324219 263.980469 L 278.113281 263.980469 L 261.941406 245.996094 L 261.941406 258.917969 C 261.941406 261.636719 262.46875 262.621094 264.886719 262.621094 L 265.417969 262.621094 L 265.417969 263.527344 C 264.058594 263.527344 262.695312 263.375 261.410156 263.375 C 259.976562 263.375 258.539062 263.527344 257.105469 263.527344 L 257.105469 262.621094 L 257.558594 262.621094 C 259.75 262.621094 260.355469 261.109375 260.355469 258.617188 L 260.355469 245.390625 C 260.355469 243.652344 258.917969 242.59375 257.480469 242.59375 L 257.105469 242.59375 L 257.105469 241.6875 C 258.3125 241.6875 259.523438 241.839844 260.730469 241.839844 C 261.636719 241.839844 262.546875 241.6875 263.527344 241.6875 Z M 277.433594 257.253906 " fill-opacity="1" fill-rule="nonzero"/><path fill="#ffffff" d="M 277.433594 257.253906 L 277.507812 257.179688 Z M 278.039062 263.753906 L 279.097656 263.753906 C 278.945312 262.847656 278.945312 261.789062 278.945312 260.730469 L 278.945312 246.449219 C 278.945312 242.667969 280.53125 242.367188 281.890625 242.367188 L 282.195312 242.367188 L 282.195312 241.6875 C 280.984375 241.6875 279.699219 241.839844 278.492188 241.839844 C 277.054688 241.839844 275.695312 241.6875 274.257812 241.6875 L 274.257812 242.367188 L 274.789062 242.367188 C 275.769531 242.367188 277.660156 242.820312 277.660156 245.464844 L 277.660156 257.332031 L 277.585938 257.40625 L 277.507812 257.480469 L 263.527344 241.6875 C 262.621094 241.6875 261.714844 241.839844 260.730469 241.839844 C 259.597656 241.839844 258.390625 241.6875 257.253906 241.6875 L 257.253906 242.367188 L 257.558594 242.367188 C 259.070312 242.367188 260.582031 243.5 260.582031 245.3125 L 260.582031 258.539062 C 260.582031 261.035156 259.898438 262.621094 257.632812 262.695312 L 257.332031 262.695312 L 257.332031 263.375 C 258.691406 263.375 260.050781 263.226562 261.488281 263.226562 C 262.773438 263.226562 264.058594 263.375 265.417969 263.375 L 265.417969 262.695312 L 265.039062 262.695312 C 262.546875 262.695312 261.941406 261.636719 261.941406 258.917969 L 261.941406 245.691406 Z M 279.246094 264.058594 L 277.960938 263.980469 L 262.09375 246.222656 L 262.09375 258.765625 C 262.167969 261.488281 262.546875 262.242188 264.886719 262.320312 L 265.566406 262.320312 L 265.566406 263.527344 L 265.417969 263.527344 C 264.058594 263.527344 262.695312 263.375 261.410156 263.375 C 259.976562 263.375 258.539062 263.527344 257.105469 263.527344 L 256.953125 263.527344 L 256.953125 262.320312 L 257.558594 262.320312 C 259.597656 262.320312 260.203125 260.957031 260.203125 258.464844 L 260.203125 245.238281 C 260.203125 243.574219 258.84375 242.59375 257.480469 242.59375 L 256.953125 242.59375 L 256.953125 241.382812 L 257.105469 241.382812 C 258.3125 241.382812 259.523438 241.535156 260.730469 241.535156 C 261.636719 241.535156 262.546875 241.382812 263.601562 241.460938 L 277.359375 256.953125 L 277.359375 245.390625 C 277.359375 242.894531 275.695312 242.59375 274.789062 242.59375 L 273.957031 242.59375 L 273.957031 241.382812 L 274.109375 241.382812 C 275.621094 241.382812 277.054688 241.535156 278.492188 241.535156 C 279.777344 241.535156 281.0625 241.382812 282.347656 241.382812 L 282.496094 241.382812 L 282.496094 242.59375 L 281.890625 242.59375 C 280.609375 242.59375 279.246094 242.746094 279.246094 246.449219 L 279.246094 260.730469 C 279.246094 261.863281 279.246094 262.921875 279.398438 263.90625 L 279.398438 264.058594 Z M 279.246094 264.058594 " fill-opacity="1" fill-rule="nonzero"/><path fill="#ffffff" d="M 291.945312 245.085938 L 288.996094 253.929688 L 294.890625 253.929688 Z M 287.332031 258.917969 C 287.03125 259.976562 286.652344 260.808594 286.652344 261.335938 C 286.652344 262.242188 287.9375 262.46875 288.996094 262.46875 L 289.375 262.46875 L 289.375 263.375 C 288.089844 263.300781 286.804688 263.226562 285.59375 263.226562 C 284.460938 263.226562 283.328125 263.300781 282.195312 263.375 L 282.195312 262.46875 L 282.347656 262.46875 C 283.554688 262.46875 284.613281 261.714844 285.066406 260.429688 L 290.054688 246.070312 C 290.433594 244.9375 291.035156 243.347656 291.1875 242.214844 C 292.171875 241.839844 293.457031 241.234375 294.058594 240.855469 C 294.136719 240.855469 294.210938 240.78125 294.285156 240.78125 C 294.363281 240.78125 294.4375 240.78125 294.511719 240.855469 C 294.589844 241.082031 294.738281 241.382812 294.816406 241.609375 L 300.558594 258.011719 C 300.9375 259.144531 301.316406 260.277344 301.691406 261.183594 C 302.070312 262.09375 302.75 262.46875 303.734375 262.46875 L 303.882812 262.46875 L 303.882812 263.375 C 302.449219 263.300781 301.089844 263.226562 299.578125 263.226562 C 298.066406 263.226562 296.476562 263.300781 294.890625 263.375 L 294.890625 262.46875 L 295.269531 262.46875 C 295.949219 262.46875 297.234375 262.320312 297.234375 261.5625 C 297.234375 261.183594 296.933594 260.277344 296.628906 259.296875 L 295.421875 255.667969 L 288.316406 255.667969 Z M 287.332031 258.917969 " fill-opacity="1" fill-rule="nonzero"/><path fill="#ffffff" d="M 289.148438 253.777344 L 294.589844 253.777344 L 291.867188 245.390625 Z M 288.769531 254.082031 L 291.792969 244.9375 L 291.945312 244.9375 L 291.945312 245.085938 L 291.945312 244.9375 L 292.019531 244.9375 L 294.964844 254.082031 Z M 295.195312 263.300781 C 296.703125 263.226562 298.292969 263.148438 299.726562 263.148438 C 301.164062 263.148438 302.523438 263.226562 303.882812 263.300781 L 303.882812 262.621094 C 302.828125 262.621094 302.070312 262.167969 301.691406 261.261719 C 301.316406 260.277344 300.9375 259.144531 300.558594 258.085938 L 294.816406 241.6875 C 294.738281 241.460938 294.589844 241.15625 294.511719 240.929688 C 294.511719 240.929688 294.511719 240.929688 294.4375 240.929688 L 294.363281 240.929688 C 294.285156 240.929688 294.285156 240.929688 294.210938 241.007812 C 293.605469 241.382812 292.320312 241.988281 291.414062 242.292969 C 291.1875 243.5 290.660156 245.011719 290.28125 246.222656 L 285.292969 260.582031 C 284.839844 261.941406 283.707031 262.695312 282.421875 262.695312 L 282.347656 262.695312 L 282.347656 263.375 C 283.402344 263.300781 284.539062 263.226562 285.59375 263.226562 C 286.804688 263.226562 288.015625 263.300781 289.222656 263.375 L 289.222656 262.695312 L 288.996094 262.695312 C 288.015625 262.695312 286.578125 262.546875 286.503906 261.488281 C 286.503906 260.882812 286.878906 260.050781 287.183594 258.992188 L 287.332031 259.070312 L 287.183594 258.992188 L 288.242188 255.667969 L 295.570312 255.667969 L 296.855469 259.371094 C 297.234375 260.355469 297.460938 261.183594 297.460938 261.636719 C 297.386719 262.621094 296.101562 262.695312 295.421875 262.695312 L 295.195312 262.695312 Z M 304.035156 263.527344 C 302.601562 263.453125 301.238281 263.375 299.726562 263.375 C 298.214844 263.375 296.628906 263.453125 295.042969 263.527344 L 294.890625 263.527344 L 294.890625 262.320312 L 295.421875 262.320312 C 296.175781 262.320312 297.234375 262.167969 297.234375 261.5625 C 297.234375 261.183594 296.933594 260.355469 296.628906 259.371094 L 295.421875 255.820312 L 288.46875 255.820312 L 287.484375 258.992188 C 287.183594 260.050781 286.804688 260.882812 286.804688 261.410156 C 286.804688 262.167969 288.015625 262.394531 288.996094 262.394531 L 289.449219 262.394531 L 289.449219 263.601562 L 289.296875 263.601562 C 288.015625 263.527344 286.730469 263.453125 285.519531 263.453125 C 284.386719 263.453125 283.253906 263.527344 282.117188 263.601562 L 281.96875 263.601562 L 281.96875 262.320312 L 282.269531 262.320312 C 283.402344 262.320312 284.386719 261.636719 284.839844 260.355469 L 289.828125 245.996094 C 290.207031 244.859375 290.808594 243.273438 291.035156 241.988281 C 292.019531 241.609375 293.304688 241.007812 293.910156 240.628906 C 293.984375 240.628906 294.058594 240.554688 294.210938 240.554688 C 294.285156 240.554688 294.4375 240.554688 294.589844 240.703125 C 294.664062 240.929688 294.738281 241.234375 294.890625 241.460938 L 300.636719 257.859375 C 301.011719 258.992188 301.390625 260.128906 301.769531 261.035156 C 302.144531 261.863281 302.675781 262.167969 303.734375 262.242188 L 304.035156 262.242188 Z M 304.035156 263.527344 " fill-opacity="1" fill-rule="nonzero"/><path fill="#ffffff" d="M 311.972656 260.355469 C 311.972656 261.636719 312.800781 262.015625 313.859375 262.09375 C 315.144531 262.167969 316.582031 262.167969 318.015625 262.015625 C 319.300781 261.863281 320.433594 261.109375 321.039062 260.355469 C 321.570312 259.671875 321.796875 258.765625 322.023438 258.085938 L 322.929688 258.085938 C 322.550781 259.898438 322.171875 261.636719 321.796875 263.453125 C 319.074219 263.453125 316.277344 263.300781 313.558594 263.300781 C 310.761719 263.300781 308.042969 263.453125 305.320312 263.453125 L 305.320312 262.546875 L 305.773438 262.546875 C 306.90625 262.546875 308.117188 262.394531 308.117188 260.429688 L 308.117188 244.332031 C 308.117188 242.667969 306.90625 242.519531 305.773438 242.519531 L 305.320312 242.519531 L 305.320312 241.609375 C 306.984375 241.609375 308.644531 241.761719 310.234375 241.761719 C 311.820312 241.761719 313.40625 241.609375 314.992188 241.609375 L 314.992188 242.519531 L 314.238281 242.519531 C 313.027344 242.519531 312.121094 242.519531 312.121094 244.179688 L 312.121094 260.355469 Z M 311.972656 260.355469 " fill-opacity="1" fill-rule="nonzero"/><path fill="#ffffff" d="M 321.570312 263.300781 C 321.945312 261.636719 322.324219 259.976562 322.703125 258.238281 L 322.097656 258.238281 C 321.871094 258.917969 321.644531 259.75 321.117188 260.429688 C 320.511719 261.261719 319.378906 262.015625 318.015625 262.167969 C 317.1875 262.242188 316.355469 262.320312 315.597656 262.320312 C 314.992188 262.320312 314.390625 262.320312 313.859375 262.242188 C 312.800781 262.167969 311.820312 261.714844 311.820312 260.355469 L 311.820312 244.179688 C 311.820312 242.441406 312.953125 242.367188 314.085938 242.367188 L 314.691406 242.367188 L 314.691406 241.6875 C 313.179688 241.6875 311.667969 241.839844 310.082031 241.839844 C 308.496094 241.839844 306.832031 241.6875 305.246094 241.6875 L 305.246094 242.367188 L 305.546875 242.367188 C 306.679688 242.367188 308.042969 242.59375 308.042969 244.257812 L 308.042969 260.355469 C 308.042969 262.394531 306.679688 262.621094 305.546875 262.621094 L 305.246094 262.621094 L 305.246094 263.300781 C 307.964844 263.300781 310.6875 263.148438 313.40625 263.148438 C 316.128906 263.148438 318.847656 263.300781 321.570312 263.300781 M 321.71875 263.527344 C 318.921875 263.527344 316.203125 263.375 313.480469 263.375 C 310.761719 263.375 307.964844 263.527344 305.167969 263.527344 L 305.019531 263.527344 L 305.019531 262.320312 L 305.621094 262.320312 C 306.757812 262.320312 307.8125 262.242188 307.8125 260.355469 L 307.8125 244.257812 C 307.8125 242.746094 306.757812 242.59375 305.621094 242.59375 L 305.019531 242.59375 L 305.019531 241.382812 L 305.167969 241.382812 C 306.832031 241.382812 308.496094 241.535156 310.15625 241.535156 C 311.746094 241.535156 313.332031 241.382812 314.917969 241.382812 L 315.070312 241.382812 L 315.070312 242.59375 L 314.164062 242.59375 C 312.953125 242.59375 312.199219 242.59375 312.199219 244.179688 L 312.199219 260.355469 C 312.199219 261.488281 312.953125 261.863281 313.9375 262.015625 C 314.464844 262.09375 315.070312 262.09375 315.675781 262.09375 C 316.429688 262.09375 317.261719 262.015625 318.015625 261.941406 C 319.300781 261.789062 320.359375 261.035156 320.964844 260.277344 C 321.417969 259.597656 321.71875 258.765625 321.871094 258.085938 L 321.871094 258.011719 L 323.003906 258.011719 L 323.003906 258.160156 C 322.625 259.976562 322.25 261.714844 321.871094 263.453125 L 321.871094 263.527344 Z M 321.71875 263.527344 " fill-opacity="1" fill-rule="nonzero"/><path fill="#ffffff" d="M 321.945312 243.953125 L 322.324219 243.953125 C 322.777344 243.953125 322.929688 243.652344 322.929688 243.121094 C 322.929688 242.59375 322.625 242.441406 322.25 242.441406 L 321.871094 242.441406 L 321.871094 243.953125 Z M 320.8125 245.691406 L 320.8125 245.542969 C 321.191406 245.464844 321.265625 245.464844 321.265625 245.238281 L 321.265625 242.820312 C 321.265625 242.441406 321.265625 242.367188 320.8125 242.367188 L 320.8125 242.214844 L 322.476562 242.214844 C 323.082031 242.214844 323.609375 242.519531 323.609375 243.121094 C 323.609375 243.652344 323.308594 243.953125 322.855469 244.105469 L 323.382812 244.859375 C 323.609375 245.164062 323.910156 245.542969 324.136719 245.617188 L 324.136719 245.691406 L 323.535156 245.691406 C 323.230469 245.691406 322.929688 245.011719 322.324219 244.179688 L 321.945312 244.179688 L 321.945312 245.238281 C 321.945312 245.464844 322.023438 245.464844 322.398438 245.542969 L 322.398438 245.691406 Z M 322.476562 246.597656 C 323.988281 246.597656 325.121094 245.3125 325.121094 243.953125 C 325.121094 242.519531 323.988281 241.234375 322.476562 241.234375 C 320.964844 241.234375 319.832031 242.519531 319.832031 243.953125 C 319.832031 245.390625 320.964844 246.597656 322.476562 246.597656 M 322.476562 240.628906 C 324.363281 240.628906 325.800781 242.066406 325.800781 243.953125 C 325.800781 245.84375 324.363281 247.28125 322.476562 247.28125 C 320.585938 247.28125 319.152344 245.84375 319.152344 243.953125 C 319.152344 242.140625 320.585938 240.628906 322.476562 240.628906 " fill-opacity="1" fill-rule="nonzero"/></svg>