<svg xmlns="http://www.w3.org/2000/svg" width="500" height="500" version="1.0" viewBox="0 0 375 375"><defs><clipPath id="d"><path d="M.238.922h356.64V335H.239Zm0 0"/></clipPath><clipPath id="c"><path d="M0 0h357v335H0z"/></clipPath><clipPath id="g"><path d="M1 .04h295.2V308H1Zm0 0"/></clipPath><clipPath id="f"><path d="M0 0h297v309H0z"/></clipPath><mask id="b"><g filter="url(#a)"><path fill-opacity=".6" d="M-37.5-37.5h450v450h-450z"/></g></mask><mask id="e"><g filter="url(#a)"><path fill-opacity=".5" d="M-37.5-37.5h450v450h-450z"/></g></mask><filter id="a" width="100%" height="100%" x="0%" y="0%"><feColorMatrix color-interpolation-filters="sRGB" values="0 0 0 0 1 0 0 0 0 1 0 0 0 0 1 0 0 0 1 0"/></filter></defs><path fill="#fff" d="M36.492 97.652c-126.89 198.305 181.496 362.344 301.82 171.688C452.579 88.273 128.177-85 36.493 97.652"/><g mask="url(#b)"><g clip-path="url(#c)" transform="translate(6 19)"><g clip-path="url(#d)"><path fill="#004aad" d="M30.492 78.652c-126.89 198.305 181.496 362.344 301.82 171.688C446.579 69.273 122.177-104 30.493 78.652"/></g></g></g><g mask="url(#e)"><g clip-path="url(#f)" transform="translate(35 35)"><g clip-path="url(#g)"><path fill="#004aad" d="M125.063 5.016C-80.458 36.106-9.98 336.414 186.667 305.32c186.691-29.504 113.11-345.68-61.606-300.304"/></g></g></g><path fill="#fff" d="M200.746 151.035v-17.89c0-2.668.145-4.762.363-6.204.215-1.445.793-2.886 1.73-4.328.864-1.445 2.31-2.383 4.255-2.957 1.949-.578 4.617-.797 7.863-.797h17.89V83.082h-28.566c-16.52 0-28.422 3.895-35.636 11.758-7.211 7.863-10.82 19.406-10.82 34.7v21.495h-21.423v35.778h21.422v103.734h42.922V186.812h28.566l3.75-35.777Zm0 0"/></svg>