<svg xmlns="http://www.w3.org/2000/svg" width="500" height="500" version="1.0" viewBox="0 0 375 375"><path fill="#1b7ec1" d="M0 187.5C0 83.965 83.965 0 187.5 0S375 83.965 375 187.5 291.035 375 187.5 375 0 291.035 0 187.5Zm0 0"/><path fill="#eaf3f8" fill-rule="evenodd" d="M23.883 160.445c5.441-.605 12.015-.078 17.836-.226 2.113 11.258 4.304 22.445 6.347 33.781 3.625-10.957 6.348-22.672 9.746-33.781h17.383c3.024 11.336 6.348 22.367 9.297 33.781 2.645-10.809 4.535-22.371 6.574-33.781h17.836c-4.609 20.328-8.992 40.808-13.453 61.136H77.313c-3.403-12.468-7.333-24.484-11.036-36.726-3.93 11.941-7.254 24.562-11.03 36.726H37.104c-4.003-20.48-8.539-40.734-13.222-60.91M143.063 160.219h5.14c21.16.98 31.137 13.074 30.305 35.972H135.43c.152 9.22 7.48 14.36 15.418 11.262 3.703-1.437 5.59-4.387 5.59-4.387l20.332 1.97c.074 1.132-.758 2.339-1.438 3.398-5.137 7.632-13.68 12.773-26.45 13h-5.894c-17.234-.758-28.265-10.504-29.398-27.133-1.285-20.86 10.504-32.723 29.472-34.082m-3.703 15.644c-2.418 2.114-3.476 5.442-3.93 9.825h21.313c.98-10.204-10.504-15.872-17.383-9.825M189.54 160.746s34.538-3.398 44.288 2.95c4.684 3.023 7.102 8.84 7.102 15.413 0 16.403-13.528 21.239-32.27 19.575l-.226 22.296h-18.817v-60.234Zm33.253 18.82c0-6.425-6.8-7.406-14.207-6.879-.606 4.083-.078 9.22-.227 13.68 7.407.606 14.508-.379 14.434-6.8M258.313 160.746h20.332l22.52 59.93-19.575.226-2.719-9.746H257.56l-3.176 9.746h-18.817Zm3.175 37.41h13.223l-6.875-21.765ZM292.02 160.973l20.101-.227L324.594 181l12.469-20.254h19.8l-22.75 34.914v25.242h-18.816v-24.937Zm0 0"/></svg>