<svg xmlns="http://www.w3.org/2000/svg" width="500" height="500" version="1.0" viewBox="0 0 375 375"><path fill="#f5e11c" d="M0 187.5C0 83.965 83.965 0 187.5 0S375 83.965 375 187.5 291.035 375 187.5 375 0 291.035 0 187.5Zm0 0"/><path fill="#0356a2" d="M52.75 161.879c1.816-.754 3.855-1.059 5.746-1.059 3.852 0 7.102 1.211 9.445 3.555 2.493 2.344 3.856 5.742 4.309 9.898.3 2.95 0 6.2-.906 9.598-.758 3.402-1.89 6.348-3.555 8.844-1.738 3.097-4.156 5.441-7.102 7.105-2.343 1.512-4.988 2.192-8.011 2.493v-5.895c1.058-.3 2.039-.758 2.945-1.211 1.89-1.207 3.555-2.945 4.914-5.289 1.36-2.344 2.344-4.91 3.098-7.707.758-2.797.906-5.441.758-8.012-.305-2.644-1.211-4.762-2.645-6.347-1.59-1.59-3.703-2.344-6.047-2.344a9.316 9.316 0 0 0-2.949.453Zm-26.148 54.719 10.203-44.817c.3-1.738.605-3.402.906-5.14.152-1.739.305-3.399.453-5.137h7.106l-.606 6.043c2.191-2.192 4.461-4.004 6.652-4.988.454-.301 1.055-.454 1.512-.602v4.156c-1.058.301-2.043.907-3.101 1.512-1.887 1.36-3.551 3.25-4.762 5.59-1.36 2.344-2.34 5.14-3.098 8.238-.754 3.25-.906 5.746-.754 7.86.149 2.343 1.059 4.156 2.492 5.593 1.512 1.36 3.403 2.04 5.747 2.04 1.207 0 2.34-.15 3.398-.454v5.895h-1.36c-2.796 0-4.988-.602-7.105-1.66-1.887-1.059-3.703-2.645-5.137-4.762l-4.761 20.555h-7.785ZM242.441 167.852c-.906 0-1.586.148-2.492.3v-5.742c.453-.152.754-.305 1.059-.453 2.039-1.059 4.457-1.512 6.953-1.512 3.851 0 6.953 1.207 9.144 3.399 2.192 2.191 3.551 5.441 3.852 9.75.758 8.011-.754 14.812-4.61 20.254-3.702 5.593-8.69 8.464-14.964 8.464-.453 0-1.055-.152-1.508-.152v-7.707c.906-.152 1.734-.605 2.492-1.21 1.36-1.055 2.344-2.493 3.403-4.61 1.054-2.192 1.886-4.762 2.492-7.406.605-2.645.754-4.91.605-6.801-.152-2.192-.906-3.856-1.89-4.914-1.133-1.055-2.645-1.66-4.536-1.66m-2.492.3c-2.344.758-4.46 2.645-6.047 5.442-2.343 4.008-3.25 8.465-2.797 13.3.305 2.497.907 4.461 2.192 5.747 1.21 1.359 2.797 2.039 4.84 2.039.601 0 1.207-.153 1.812-.301v7.707c-2.191-.152-4.156-.758-5.746-1.586-2.039-1.059-3.703-2.797-4.91-4.988l-4.762 21.16H212.29l9.445-42.852c1.211-5.441 1.891-9.597 2.192-12.242h11.11l-.302 4.914c1.739-1.664 3.403-2.949 5.137-4.008v5.668ZM288.543 182.438c-.3-.153-.606-.153-.906-.153h-1.36c-1.89 0-3.703.153-5.14.606v-6.5c1.586-.153 3.55-.153 5.441-.153h3.402c.301-1.511.602-2.492.602-3.398.152-.758.152-1.363.152-1.89-.152-1.212-.605-2.04-1.511-2.645-.754-.606-1.891-.907-3.403-.907-1.734 0-3.097.454-4.004 1.207-.3.305-.605.454-.753.907v-8.313c1.511-.3 3.097-.3 4.757-.3 5.14 0 8.996.753 11.868 2.492 2.644 1.738 4.156 4.308 4.457 7.71.152 1.06.152 2.04 0 3.25-.149 1.055-.454 2.34-.754 3.704l-3.098 13.601c-.453 1.586-.606 3.25-.906 5.063-.153 1.738-.153 3.402-.153 5.14h-11.261v-2.797c0-1.058.152-1.89.152-2.945-1.512 2.04-3.25 3.703-4.988 4.61v-6.2c1.21-.605 2.343-1.511 3.55-2.797 1.965-2.492 3.25-5.59 3.856-9.292m-7.406.453c-1.664.453-2.95 1.058-4.157 1.886-2.496 1.59-3.55 3.707-3.25 6.047 0 1.363.454 2.344 1.36 3.098.758.758 1.738 1.058 3.098 1.058 1.058 0 2.042-.148 2.949-.601v6.195l-.301.153c-1.89 1.058-4.008 1.66-6.5 1.66-3.555 0-6.348-1.055-8.54-2.946-2.194-1.89-3.401-4.46-3.702-7.71-.457-4.985 1.508-8.84 5.59-11.563 3.25-2.04 7.71-3.398 13.453-3.852Zm0-21.692v8.313c-.606.758-.907 1.738-1.211 2.949h-11.637c.3-3.703 2.04-6.5 4.988-8.54 2.266-1.437 4.762-2.343 7.86-2.722M304.262 216.445l9.75-14.738-7.106-40.508H319l3.398 27.738 15.645-27.738h11.562l-25.09 42.098-7.253 13.148ZM95.45 165.281c-1.06 0-1.888.153-2.946.453v-5.14c1.207-.149 2.492-.149 3.851-.149 4.762 0 8.465 1.207 11.262 3.399 2.95 2.344 4.461 5.594 4.836 9.75.305 3.25 0 6.8-1.055 10.504-.91 3.703-2.195 6.953-4.007 9.597-2.04 3.102-4.457 5.293-7.407 6.653-2.039 1.058-4.609 1.664-7.558 1.89v-5.14c1.21-.301 2.344-.754 3.25-1.36 1.738-1.058 3.25-2.644 4.613-4.914 1.508-2.492 2.492-5.289 3.246-8.387.758-3.25 1.059-5.894.91-8.312-.304-3.102-1.21-5.293-2.648-6.652-1.434-1.438-3.477-2.192-6.348-2.192m-2.945.453c-1.059.301-2.192.758-3.25 1.36-1.738 1.363-3.402 3.101-4.762 5.441-1.36 2.192-2.344 4.836-3.097 8.086-.758 3.25-.907 6.047-.758 8.465.152 2.644 1.21 4.61 2.644 6.047 1.664 1.512 3.703 2.191 6.352 2.191 1.055 0 1.887-.152 2.793-.3v5.136c-1.055 0-2.192.153-3.399.153-4.761 0-8.539-1.211-11.414-3.704-2.945-2.343-4.61-5.742-4.91-10.05-.305-3.551 0-7.106 1.207-10.957 1.059-3.856 2.496-7.106 4.613-9.903 1.887-2.492 4.305-4.308 7.254-5.594 1.891-.753 4.309-1.359 6.649-1.585v5.214ZM120.617 188.559c-.305.754-.453 1.359-.453 1.89-.152.602-.152 1.055 0 1.508.148 1.664.754 2.797 1.887 3.555 1.21.906 2.797 1.207 5.14 1.207 3.098 0 5.442-.602 7.254-1.813 1.739-1.36 2.496-2.949 2.344-4.836 0-1.21-.605-2.191-1.66-3.097-1.059-.91-3.102-2.043-6.352-3.555-4.156-1.887-7.101-3.703-8.691-5.29-1.738-1.51-2.645-3.401-2.793-5.44-.305-3.551 1.055-6.348 3.852-8.692 2.949-2.191 6.953-3.402 11.94-3.402 4.61 0 8.013.758 10.204 2.043 2.344 1.36 3.55 3.25 3.856 6.047v1.511c0 .453 0 1.207-.153 2.192h-7.254v-2.27c-.152-1.512-.758-2.644-1.89-3.398-1.059-.758-2.645-1.211-4.914-1.211-2.493 0-4.457.605-5.743 1.664-1.511 1.058-2.039 2.492-1.89 4.305.152 1.058.605 2.043 1.664 2.796.906.907 3.097 2.043 6.5 3.704 4.762 2.191 8.012 4.156 9.297 5.593 1.36 1.512 2.191 3.403 2.34 5.594.304 3.703-1.207 6.953-4.762 9.445-3.399 2.493-8.008 3.856-13.602 3.856-4.457 0-7.86-.906-10.504-2.344-2.496-1.664-3.855-3.855-4.156-6.8-.152-.606-.152-1.364 0-2.192.149-.758.3-1.664.453-2.496h8.086ZM169.285 201.86c-1.512.152-2.793.3-4.004.452-1.21 0-2.344.153-3.402.153-2.945 0-5.137-.453-6.496-1.512-1.512-.906-2.196-2.496-2.344-4.762-.152-.757 0-2.039.149-3.703.152-1.738.605-3.55.91-5.441l4.609-20.102h-7.484l1.363-5.14h7.254l2.039-9.145 7.86-1.89-2.34 11.109h8.69l-1.21 5.14h-8.691l-4.458 21.008c-.453 1.59-.757 2.797-.757 3.555-.153.906-.301 1.512-.153 1.887 0 1.21.457 1.89 1.211 2.344.758.605 2.04.906 3.856.906.605 0 1.511-.149 2.343-.301.754 0 1.66-.3 2.34-.453ZM194.832 176.996h10.05c.153-1.36.302-2.344.302-3.098.152-.757.152-1.363 0-1.89-.149-2.192-1.059-3.856-2.493-4.988-1.59-1.211-3.703-1.891-6.347-1.891-.453 0-1.059.152-1.512.152v-4.988h1.586c5.14 0 9.144 1.059 11.863 2.95 2.496 1.886 4.16 5.062 4.461 9.292a24.85 24.85 0 0 1 0 4.762c0 1.586-.3 3.402-.758 5.14h-17.152Zm0 25.09v-6.047c.906-.3 1.738-.754 2.492-1.207 1.738-1.21 3.098-2.95 3.856-5.14h8.691c-1.059 4.003-3.25 7.105-6.652 9.296-2.344 1.66-5.137 2.719-8.387 3.098m-10.355-25.09h10.355v5.441h-11.715c-.453 1.208-.605 2.192-.758 3.399-.148 1.059-.148 2.043-.148 2.95.3 2.491 1.207 4.456 2.644 5.741 1.586 1.364 3.704 2.043 6.5 2.043 1.208 0 2.34-.152 3.399-.605v6.047c-1.36.148-2.797.3-4.305.3-4.762 0-8.39-1.21-11.262-3.402-2.644-2.191-4.308-5.441-4.609-9.597-.305-3.098 0-6.649 1.059-10.657.906-3.851 2.34-7.254 4.004-10.05 1.738-2.645 4.156-4.836 6.953-6.196 2.344-1.36 5.062-1.89 8.16-2.191v4.836c-2.34.3-4.457 1.207-6.043 2.945-2.043 2.043-3.477 4.988-4.234 8.996"/></svg>