<svg xmlns="http://www.w3.org/2000/svg" width="500" height="500" version="1.0" viewBox="0 0 375 375"><defs><clipPath id="a"><path d="M187.5 0C83.945 0 0 83.945 0 187.5S83.945 375 187.5 375 375 291.055 375 187.5 291.055 0 187.5 0Zm0 0"/></clipPath></defs><g clip-path="url(#a)"><path fill="#e28100" d="M-37.5-37.5h450v450h-450z"/></g><path fill="#fff" d="M261.926 109.71c-13.278-13.284-30.93-20.585-49.7-20.585-18.785 0-36.437 7.3-49.722 20.586-13.281 13.27-20.598 30.934-20.598 49.719 0 16.328 5.551 31.793 15.719 44.285l-13.574 13.574-3.09-3.094-41.172 41.16 16.48 16.48 41.157-41.16-3.078-3.093 13.57-13.57c12.496 10.18 27.96 15.715 44.289 15.715 18.781 0 36.434-7.313 49.719-20.598 27.418-27.41 27.418-72.008 0-99.418Zm-7.59 91.817c-11.254 11.258-26.207 17.446-42.129 17.446-15.91 0-30.863-6.196-42.117-17.446-11.246-11.242-17.442-26.191-17.442-42.105 0-15.91 6.196-30.875 17.446-42.117 11.242-11.254 26.195-17.446 42.117-17.446 15.914 0 30.863 6.196 42.121 17.446 23.219 23.23 23.219 61.015.004 84.222Zm0 0"/><path fill="#fff" d="M212.21 107.871c-13.769 0-26.706 5.371-36.444 15.098a3.767 3.767 0 0 0 0 5.324 3.77 3.77 0 0 0 5.32 0c8.316-8.316 19.371-12.887 31.125-12.887 11.77 0 22.816 4.57 31.14 12.887a3.71 3.71 0 0 0 2.665 1.098c.953 0 1.918-.36 2.664-1.098a3.775 3.775 0 0 0 0-5.324c-9.746-9.727-22.696-15.098-36.47-15.098ZM90.137 265.02c-4.207 4.19-4.207 11.007 0 15.19l1.273 1.29c4.207 4.191 11.008 4.191 15.203 0l5.66-5.656-16.48-16.48Zm0 0"/></svg>