<svg xmlns="http://www.w3.org/2000/svg" xmlns:xlink="http://www.w3.org/1999/xlink" width="500" zoomAndPan="magnify" viewBox="0 0 375 374.999991" height="500" preserveAspectRatio="xMidYMid meet" version="1.0"><defs><clipPath id="b9d4a1bb4c"><path d="M 187.5 0 C 83.945312 0 0 83.945312 0 187.5 C 0 291.054688 83.945312 375 187.5 375 C 291.054688 375 375 291.054688 375 187.5 C 375 83.945312 291.054688 0 187.5 0 Z M 187.5 0 " clip-rule="nonzero"/></clipPath></defs><g clip-path="url(#b9d4a1bb4c)"><rect x="-37.5" width="450" fill="#e28100" y="-37.499999" height="449.999989" fill-opacity="1"/></g><path fill="#ffffff" d="M 261.925781 109.710938 C 248.648438 96.425781 230.996094 89.125 212.226562 89.125 C 193.441406 89.125 175.789062 96.425781 162.503906 109.710938 C 149.222656 122.980469 141.90625 140.644531 141.90625 159.429688 C 141.90625 175.757812 147.457031 191.222656 157.625 203.714844 L 144.050781 217.289062 L 140.960938 214.195312 L 99.789062 255.355469 L 116.269531 271.835938 L 157.425781 230.675781 L 154.347656 227.582031 L 167.917969 214.011719 C 180.414062 224.191406 195.878906 229.726562 212.207031 229.726562 C 230.988281 229.726562 248.640625 222.414062 261.925781 209.128906 C 289.34375 181.71875 289.34375 137.121094 261.925781 109.710938 Z M 254.335938 201.527344 C 243.082031 212.785156 228.128906 218.972656 212.207031 218.972656 C 196.296875 218.972656 181.34375 212.777344 170.089844 201.527344 C 158.84375 190.285156 152.648438 175.335938 152.648438 159.421875 C 152.648438 143.511719 158.84375 128.546875 170.09375 117.304688 C 181.335938 106.050781 196.289062 99.859375 212.210938 99.859375 C 228.125 99.859375 243.074219 106.054688 254.332031 117.304688 C 277.550781 140.535156 277.550781 178.320312 254.335938 201.527344 Z M 254.335938 201.527344 " fill-opacity="1" fill-rule="nonzero"/><path fill="#ffffff" d="M 212.210938 107.871094 C 198.441406 107.871094 185.503906 113.242188 175.765625 122.96875 C 174.296875 124.4375 174.296875 126.824219 175.765625 128.292969 C 177.230469 129.757812 179.621094 129.757812 181.085938 128.292969 C 189.402344 119.976562 200.457031 115.40625 212.210938 115.40625 C 223.980469 115.40625 235.027344 119.976562 243.351562 128.292969 C 244.078125 129.03125 245.042969 129.390625 246.015625 129.390625 C 246.96875 129.390625 247.933594 129.03125 248.679688 128.292969 C 250.144531 126.824219 250.144531 124.4375 248.679688 122.96875 C 238.933594 113.242188 225.984375 107.871094 212.210938 107.871094 Z M 212.210938 107.871094 " fill-opacity="1" fill-rule="nonzero"/><path fill="#ffffff" d="M 90.136719 265.019531 C 85.929688 269.210938 85.929688 276.027344 90.136719 280.210938 L 91.410156 281.5 C 95.617188 285.691406 102.417969 285.691406 106.613281 281.5 L 112.273438 275.84375 L 95.792969 259.363281 Z M 90.136719 265.019531 " fill-opacity="1" fill-rule="nonzero"/></svg>