<svg xmlns="http://www.w3.org/2000/svg" width="1000" height="1000" version="1.0" viewBox="0 0 750 750"><defs><clipPath id="a"><path d="M375 0C167.895 0 0 167.895 0 375s167.895 375 375 375 375-167.895 375-375S582.105 0 375 0Zm0 0"/></clipPath><clipPath id="b"><path d="M166.23 166.23h417.75v417.75H166.23Zm0 0"/></clipPath></defs><g clip-path="url(#a)"><path fill="#ff914d" d="M-75-75h900v900H-75z"/></g><g clip-path="url(#b)"><path d="M375.105 166.316c-115.308 0-208.789 93.48-208.789 208.79 0 115.312 93.48 208.789 208.79 208.789 115.312 0 208.789-93.477 208.789-208.79 0-115.308-93.477-208.789-208.79-208.789Zm0 393.473c-101.996 0-184.683-82.684-184.683-184.684 0-101.996 82.687-184.683 184.683-184.683 102 0 184.684 82.687 184.684 184.683 0 102-82.684 184.684-184.684 184.684Zm0 0"/></g><path d="M408.293 375.105a33.543 33.543 0 0 1-.637 6.477 33.588 33.588 0 0 1-1.89 6.223 32.666 32.666 0 0 1-3.067 5.738 33.623 33.623 0 0 1-4.125 5.031 33.623 33.623 0 0 1-5.031 4.125 32.605 32.605 0 0 1-5.738 3.067 33.588 33.588 0 0 1-6.223 1.89 33.199 33.199 0 0 1-6.477.637 33.543 33.543 0 0 1-6.472-.637 33.667 33.667 0 0 1-3.16-.793 32.922 32.922 0 0 1-3.067-1.097 33.176 33.176 0 0 1-2.945-1.391 33.22 33.22 0 0 1-10.008-8.215 32.618 32.618 0 0 1-1.941-2.617 33.6 33.6 0 0 1-3.067-5.738 33.66 33.66 0 0 1-1.097-3.067 33.57 33.57 0 0 1-1.27-6.379 33.539 33.539 0 0 1-.156-3.254c0-1.085.05-2.171.156-3.25a33.648 33.648 0 0 1 1.27-6.383c.316-1.038.683-2.062 1.097-3.066a34.347 34.347 0 0 1 1.395-2.945 34.253 34.253 0 0 1 1.672-2.793 33.268 33.268 0 0 1 4.129-5.027 33.677 33.677 0 0 1 5.027-4.13 34.253 34.253 0 0 1 2.793-1.671c.96-.512 1.941-.977 2.945-1.395a34.087 34.087 0 0 1 3.067-1.097 33.648 33.648 0 0 1 6.379-1.27 33.539 33.539 0 0 1 3.253-.156c1.086 0 2.172.05 3.254.156a33.57 33.57 0 0 1 6.379 1.27 33.66 33.66 0 0 1 3.067 1.097 33.6 33.6 0 0 1 5.738 3.066c.906.606 1.777 1.25 2.617 1.942a32.776 32.776 0 0 1 4.598 4.602 33.22 33.22 0 0 1 3.617 5.406c.512.96.977 1.941 1.39 2.945a32.922 32.922 0 0 1 1.098 3.067c.317 1.039.578 2.093.793 3.16a33.199 33.199 0 0 1 .637 6.472ZM295.5 375.105a33.544 33.544 0 0 1-.637 6.477 33.588 33.588 0 0 1-1.89 6.223 32.666 32.666 0 0 1-3.067 5.738 32.572 32.572 0 0 1-1.937 2.617 34.63 34.63 0 0 1-2.188 2.414 33.623 33.623 0 0 1-5.031 4.125 32.013 32.013 0 0 1-2.793 1.676c-.957.512-1.937.977-2.945 1.39a33.588 33.588 0 0 1-6.223 1.89 33.199 33.199 0 0 1-9.726.478 33.199 33.199 0 0 1-3.223-.477 33.667 33.667 0 0 1-3.16-.793 32.922 32.922 0 0 1-3.067-1.097 32.595 32.595 0 0 1-2.941-1.391 32.672 32.672 0 0 1-5.41-3.617 33.623 33.623 0 0 1-2.414-2.184 33.677 33.677 0 0 1-2.188-2.414 33.587 33.587 0 0 1-1.941-2.617 33.601 33.601 0 0 1-3.067-5.738 33.66 33.66 0 0 1-1.097-3.067 33.2 33.2 0 0 1-1.426-9.633 33.2 33.2 0 0 1 2.523-12.7 34.347 34.347 0 0 1 1.395-2.944 34.254 34.254 0 0 1 1.672-2.793 33.677 33.677 0 0 1 4.129-5.027 33.677 33.677 0 0 1 5.027-4.13 33.67 33.67 0 0 1 5.738-3.066 34.087 34.087 0 0 1 3.067-1.097 33.648 33.648 0 0 1 6.382-1.27 33.459 33.459 0 0 1 3.25-.156c1.09 0 2.172.05 3.254.156a33.57 33.57 0 0 1 6.379 1.27 33.27 33.27 0 0 1 8.805 4.164c.906.605 1.777 1.25 2.617 1.941.84.688 1.645 1.418 2.414 2.188a33.22 33.22 0 0 1 9.082 16.992 33.199 33.199 0 0 1 .637 6.472ZM521.086 375.105a33.543 33.543 0 0 1-.637 6.477 33.589 33.589 0 0 1-1.89 6.223 32.666 32.666 0 0 1-3.067 5.738 32.618 32.618 0 0 1-1.941 2.617 32.776 32.776 0 0 1-2.188 2.414 32.747 32.747 0 0 1-2.41 2.184c-.84.691-1.715 1.34-2.617 1.941a32.605 32.605 0 0 1-5.738 3.067 32.524 32.524 0 0 1-3.067 1.097c-1.039.317-2.094.578-3.156.793a33.199 33.199 0 0 1-6.477.637 33.543 33.543 0 0 1-6.472-.637 33.667 33.667 0 0 1-3.16-.793 32.921 32.921 0 0 1-3.067-1.097 32.605 32.605 0 0 1-5.738-3.066 33.08 33.08 0 0 1-5.027-4.126c-.77-.77-1.5-1.574-2.188-2.414a32.618 32.618 0 0 1-1.941-2.617 33.601 33.601 0 0 1-3.067-5.738 33.66 33.66 0 0 1-1.097-3.067 32.404 32.404 0 0 1-.79-3.156 33.21 33.21 0 0 1-.64-6.477 33.211 33.211 0 0 1 .64-6.473 32.48 32.48 0 0 1 .79-3.16 33.212 33.212 0 0 1 2.492-6.012 34.253 34.253 0 0 1 1.672-2.792 33.267 33.267 0 0 1 4.129-5.027 32.8 32.8 0 0 1 5.027-4.13 34.253 34.253 0 0 1 2.793-1.671c.96-.512 1.941-.977 2.945-1.395a34.087 34.087 0 0 1 3.067-1.097 33.648 33.648 0 0 1 6.379-1.27 33.539 33.539 0 0 1 3.253-.156c1.086 0 2.172.05 3.254.156 1.082.11 2.157.27 3.223.48 1.063.212 2.117.477 3.156.79a33.66 33.66 0 0 1 3.067 1.097 33.6 33.6 0 0 1 5.738 3.066c.902.606 1.777 1.25 2.617 1.942.84.688 1.645 1.418 2.41 2.188a33.267 33.267 0 0 1 4.129 5.027c.606.906 1.16 1.836 1.676 2.793.512.96.977 1.941 1.39 2.945a32.922 32.922 0 0 1 1.098 3.067c.317 1.039.578 2.093.793 3.16a33.2 33.2 0 0 1 .637 6.472Zm0 0"/></svg>