<svg xmlns="http://www.w3.org/2000/svg" width="500" height="500" version="1.0" viewBox="0 0 375 375"><defs><clipPath id="a"><path d="M187.5 0C83.945 0 0 83.945 0 187.5S83.945 375 187.5 375 375 291.055 375 187.5 291.055 0 187.5 0Zm0 0"/></clipPath><clipPath id="b"><path d="M84 78.215h208V178H84Zm0 0"/></clipPath><clipPath id="c"><path d="M216 189h50v107.465h-50Zm0 0"/></clipPath><clipPath id="d"><path d="M109 189h50v107.465h-50Zm0 0"/></clipPath></defs><g clip-path="url(#a)"><path fill="#e28100" d="M-37.5-37.5h450v450h-450z"/></g><path fill="#fff" d="M291.727 181.738h-6.254c.492 3.899.757 7.89.757 11.907 0 6.3-.82 13.02-2.511 20.535l-8.024 51.363c19.703-42.211 17.055-75.82 16.032-83.805"/><g clip-path="url(#b)"><path fill="#fff" d="M284.773 177.23h6.59c-1.242-54.707-47.207-98.843-103.57-98.843-56.363 0-102.324 44.136-103.563 98.843h6.579c8.046-45.59 49.375-79.742 96.984-79.742 47.586 0 88.914 34.149 96.98 79.742"/></g><path fill="#fff" d="m269.25 197.313-24.285 97.097 23.18-14.808c.285-.18.527-.422.714-.711.211-.403.286-.637.317-.848l9.965-63.809-9.891-16.922"/><g clip-path="url(#c)"><path fill="#fff" d="M252.477 189.723a14.767 14.767 0 0 0-11.465 1.77 14.763 14.763 0 0 0-6.715 9.476l-17.207 78.265a10.34 10.34 0 0 0 6.926 12.102l15.8 5.133 25.86-103.446-13.2-3.3"/></g><g clip-path="url(#d)"><path fill="#fff" d="M141.043 200.969c-.875-3.977-3.258-7.34-6.719-9.477a14.729 14.729 0 0 0-11.457-1.77l-13.195 3.305 25.86 103.442 15.792-5.133a10.336 10.336 0 0 0 6.93-12.098l-17.211-78.27"/></g><path fill="#fff" d="m96.203 214.234 10.11 64.797c.03.02.066.055.105.074l23.941 15.301-24.273-97.09-9.883 16.918M89.355 193.645a94.5 94.5 0 0 1 .762-11.907H83.84c-1.125 8.035-4.227 42.387 16.023 85.215l-8.242-52.8a93.766 93.766 0 0 1-2.266-20.508"/></svg>