<svg xmlns="http://www.w3.org/2000/svg" xmlns:xlink="http://www.w3.org/1999/xlink" width="500" zoomAndPan="magnify" viewBox="0 0 375 374.999991" height="50" preserveAspectRatio="xMidYMid meet" version="1.0"><path fill="#000000" d="M 375.011719 187.5 C 375.011719 84.011719 291 0 187.511719 0 C 84.027344 0 0.0117188 84.011719 0.0117188 187.5 C 0.0117188 290.988281 84.027344 375 187.511719 375 C 291 375 375.011719 290.988281 375.011719 187.5 Z M 348.226562 187.5 C 348.226562 276.199219 276.214844 348.214844 187.511719 348.214844 C 98.8125 348.214844 26.800781 276.199219 26.800781 187.5 C 26.800781 98.800781 98.8125 26.785156 187.511719 26.785156 C 276.214844 26.785156 348.226562 98.800781 348.226562 187.5 Z M 348.226562 187.5 " fill-opacity="1" fill-rule="evenodd"/><path fill="#000000" d="M 108.21875 237.269531 C 164.875 180.640625 157.25 188.261719 182.957031 162.554688 C 184.214844 161.300781 185.925781 160.585938 187.691406 160.585938 C 189.457031 160.585938 191.167969 161.300781 192.425781 162.554688 C 217.4375 187.570312 266.761719 236.890625 266.761719 236.890625 C 271.976562 242.125 280.484375 242.125 285.699219 236.890625 C 290.941406 231.660156 290.941406 223.179688 285.699219 217.945312 C 285.699219 217.945312 236.402344 168.625 211.363281 143.609375 C 205.078125 137.328125 196.570312 133.8125 187.691406 133.8125 C 178.808594 133.8125 170.304688 137.328125 164.019531 143.609375 C 138.3125 169.316406 145.910156 161.71875 89.28125 218.34375 C 84.066406 223.558594 84.066406 232.054688 89.28125 237.269531 C 94.523438 242.503906 103.003906 242.503906 108.21875 237.269531 Z M 108.21875 237.269531 " fill-opacity="1" fill-rule="evenodd"/></svg>