<svg xmlns="http://www.w3.org/2000/svg" version="1.0" viewBox="0 0 375 375"><defs><clipPath id="a"><path d="M4.688 0h366v370h-366Zm0 0"/></clipPath></defs><g clip-path="url(#a)"><path fill="#278d46" d="M370.676 182.836c0 100.945-81.918 182.777-182.965 182.777-7.367.012-14.711-.422-22.027-1.3a182.656 182.656 0 0 1-21.711-3.954 182.845 182.845 0 0 1-21.07-6.546 182.509 182.509 0 0 1-20.126-9.047l-.218.093-55.149 22.895c-17.258 7.164-34.664-9.895-27.824-27.266l19.883-50.5a181.383 181.383 0 0 1-14.938-24.394 181.078 181.078 0 0 1-10.93-26.43 181.382 181.382 0 0 1-6.648-27.816 181.461 181.461 0 0 1-2.207-28.512C4.746 81.89 86.664.059 187.711.059S370.676 81.89 370.676 182.836Zm0 0"/></g><path fill="#fff" d="M346.938 182.836c0 2.605-.067 5.207-.196 7.805a152.393 152.393 0 0 1-.574 7.785 159.77 159.77 0 0 1-4.004 23.059 155.248 155.248 0 0 1-2.086 7.523 153.784 153.784 0 0 1-2.45 7.414 161.093 161.093 0 0 1-2.812 7.285c-1 2.406-2.054 4.785-3.168 7.137a155.162 155.162 0 0 1-3.515 6.972 154.836 154.836 0 0 1-3.852 6.793 156.404 156.404 0 0 1-4.18 6.598 158.649 158.649 0 0 1-9.309 12.535 156.449 156.449 0 0 1-5.104 5.914 160.011 160.011 0 0 1-5.387 5.653 159.963 159.963 0 0 1-11.578 10.484 161.732 161.732 0 0 1-6.16 4.8 157.832 157.832 0 0 1-6.391 4.497 163.303 163.303 0 0 1-6.602 4.18 168.708 168.708 0 0 1-6.8 3.847 159.548 159.548 0 0 1-21.418 9.48 155.37 155.37 0 0 1-7.418 2.45 153.684 153.684 0 0 1-7.536 2.082 160.084 160.084 0 0 1-23.082 4.004c-2.59.254-5.191.445-7.793.574-2.601.125-5.207.191-7.812.191-2.606 0-5.211-.066-7.813-.191-2.601-.129-5.199-.32-7.793-.574a160.083 160.083 0 0 1-23.082-4.004 152.34 152.34 0 0 1-7.53-2.082 154.078 154.078 0 0 1-7.423-2.45 158.523 158.523 0 0 1-14.437-5.972 161.772 161.772 0 0 1-6.98-3.508 165.916 165.916 0 0 1-6.798-3.847 160.749 160.749 0 0 1-6.605-4.18 157.703 157.703 0 0 1-6.387-4.496 158.827 158.827 0 0 1-6.164-4.801 159.962 159.962 0 0 1-11.578-10.484 160.011 160.011 0 0 1-5.387-5.653 156.449 156.449 0 0 1-5.105-5.914 162.552 162.552 0 0 1-4.809-6.152c-1.55-2.09-3.05-4.219-4.5-6.383a160.476 160.476 0 0 1-8.03-13.39 157.141 157.141 0 0 1-6.68-14.11 156.63 156.63 0 0 1-5.266-14.7 157.748 157.748 0 0 1-3.797-15.14 159.767 159.767 0 0 1-2.293-15.441c-.254-2.59-.445-5.184-.574-7.785-.13-2.598-.192-5.2-.192-7.805 0-2.602.063-5.203.192-7.805.129-2.601.32-5.195.574-7.785.254-2.59.574-5.172.957-7.75a158.803 158.803 0 0 1 3.047-15.309 157.765 157.765 0 0 1 2.086-7.523c.758-2.492 1.574-4.96 2.449-7.414a161.085 161.085 0 0 1 5.98-14.422 157.272 157.272 0 0 1 3.516-6.973 157.142 157.142 0 0 1 3.852-6.793c1.34-2.234 2.734-4.43 4.18-6.597a164.61 164.61 0 0 1 4.5-6.383 159.578 159.578 0 0 1 15.3-17.719A159.962 159.962 0 0 1 86.7 59.88a162.74 162.74 0 0 1 12.551-9.297 156.587 156.587 0 0 1 6.605-4.176 157.2 157.2 0 0 1 6.797-3.847 159.381 159.381 0 0 1 21.418-9.484 154.076 154.076 0 0 1 7.422-2.45 159.112 159.112 0 0 1 38.406-6.656c2.602-.13 5.207-.196 7.813-.196 2.605 0 5.21.067 7.812.196 2.602.125 5.204.316 7.793.574a156.851 156.851 0 0 1 15.457 2.289c2.559.508 5.098 1.078 7.625 1.711a158.176 158.176 0 0 1 14.954 4.531 159.38 159.38 0 0 1 41.21 22.004c2.09 1.55 4.145 3.152 6.16 4.8A159.963 159.963 0 0 1 300.3 70.363a159.578 159.578 0 0 1 19.8 24.102 158.958 158.958 0 0 1 8.033 13.391 157.272 157.272 0 0 1 3.515 6.973 165.848 165.848 0 0 1 3.168 7.137 162.908 162.908 0 0 1 2.813 7.285 155.223 155.223 0 0 1 2.45 7.414 157.763 157.763 0 0 1 3.796 15.14c.508 2.555.953 5.118 1.336 7.692.383 2.578.703 5.16.957 7.75.258 2.59.45 5.184.574 7.785.13 2.602.195 5.203.195 7.805Zm0 0"/><path fill="#278d46" d="M324.633 182.836a137.278 137.278 0 0 1-.656 13.406c-.223 2.23-.497 4.45-.825 6.664a136.936 136.936 0 0 1-4.414 19.637 132.263 132.263 0 0 1-2.11 6.375 133.569 133.569 0 0 1-2.417 6.262 134.493 134.493 0 0 1-2.723 6.14 138.735 138.735 0 0 1-3.02 5.996 142.944 142.944 0 0 1-3.312 5.84 133.519 133.519 0 0 1-3.597 5.672 134.635 134.635 0 0 1-3.872 5.488 131.78 131.78 0 0 1-4.132 5.293 135.893 135.893 0 0 1-9.023 9.945 136.119 136.119 0 0 1-4.868 4.634c-1.66 1.5-3.355 2.964-5.09 4.382a135.558 135.558 0 0 1-10.793 7.996 136.093 136.093 0 0 1-23.672 12.641c-2.07.856-4.16 1.664-6.27 2.418a136.852 136.852 0 0 1-12.86 3.895c-2.17.542-4.358 1.035-6.553 1.472a136.217 136.217 0 0 1-19.996 2.46c-2.239.11-4.477.17-6.72.17-2.241 0-4.48-.06-6.718-.169a137.345 137.345 0 0 1-13.37-1.312c-2.22-.332-4.427-.711-6.622-1.149a138.158 138.158 0 0 1-13.035-3.262 140.14 140.14 0 0 1-6.383-2.105 138.338 138.338 0 0 1-12.414-5.137 138.673 138.673 0 0 1-11.848-6.328 137.48 137.48 0 0 1-11.176-7.457 139.213 139.213 0 0 1-10.387-8.516 139.459 139.459 0 0 1-9.5-9.492 139.3 139.3 0 0 1-4.39-5.086 135.432 135.432 0 0 1-4.133-5.293 134.636 134.636 0 0 1-7.464-11.16 134.27 134.27 0 0 1-3.313-5.84 134.481 134.481 0 0 1-5.746-12.136 133.566 133.566 0 0 1-2.418-6.262 141.494 141.494 0 0 1-2.11-6.375 136.936 136.936 0 0 1-4.414-19.637 136.06 136.06 0 0 1-.82-6.664 132.002 132.002 0 0 1-.496-6.695 137.278 137.278 0 0 1 0-13.422c.11-2.234.274-4.469.496-6.695a136.65 136.65 0 0 1 1.969-13.278c.437-2.195.93-4.379 1.473-6.55a142.986 142.986 0 0 1 1.793-6.473c.652-2.14 1.355-4.266 2.109-6.375a133.566 133.566 0 0 1 2.418-6.262c.86-2.07 1.766-4.113 2.723-6.137a136.62 136.62 0 0 1 13.8-23 135.966 135.966 0 0 1 8.523-10.375 136.17 136.17 0 0 1 14.59-13.878 137.6 137.6 0 0 1 10.794-7.997 138.752 138.752 0 0 1 11.527-6.902 136.595 136.595 0 0 1 6-3.016 136.567 136.567 0 0 1 25.273-9.035A134.64 134.64 0 0 1 161 48.684a136.829 136.829 0 0 1 13.29-1.973 137.345 137.345 0 0 1 20.14-.492c2.238.11 4.472.273 6.703.492 2.23.219 4.453.496 6.668.824 2.219.328 4.426.711 6.625 1.149a136.85 136.85 0 0 1 13.031 3.258 138.282 138.282 0 0 1 12.652 4.523c2.07.855 4.118 1.765 6.145 2.722 2.027.958 4.027 1.961 6.004 3.016a138.751 138.751 0 0 1 11.523 6.902 133.672 133.672 0 0 1 5.496 3.868 136.108 136.108 0 0 1 10.387 8.516 136.007 136.007 0 0 1 9.5 9.491 135.967 135.967 0 0 1 12.395 15.864 138.668 138.668 0 0 1 3.597 5.672 145.612 145.612 0 0 1 3.313 5.84 138.879 138.879 0 0 1 5.742 12.136c.86 2.067 1.664 4.156 2.418 6.262.758 2.11 1.46 4.234 2.11 6.375.652 2.144 1.25 4.3 1.792 6.473a139.107 139.107 0 0 1 1.473 6.55c.437 2.196.82 4.399 1.148 6.614.328 2.214.602 4.437.825 6.664a137.026 137.026 0 0 1 .656 13.406Zm0 0"/><path fill="#fff" d="M170.129 138.152 164.8 115.68a18.708 18.708 0 0 0-4.637-8.57 18.735 18.735 0 0 0-10.238-5.536 18.366 18.366 0 0 0-3.926-.297c-.66.02-1.313.075-1.965.16-.652.09-1.3.211-1.937.372-.641.156-1.27.343-1.891.566l-12.289 4.422a18.46 18.46 0 0 0-2.867 1.316c-.922.52-1.79 1.11-2.61 1.778a18.259 18.259 0 0 0-2.273 2.191c-.695.793-1.32 1.64-1.871 2.54a18.655 18.655 0 0 0-2.629 12.112c4.281 34.762 23.992 118.852 114.652 137.329.895.18 1.797.296 2.711.347a18.745 18.745 0 0 0 10.485-2.52c.789-.456 1.543-.972 2.257-1.542a18.63 18.63 0 0 0 3.719-3.977l7.055-10.18a19.99 19.99 0 0 0 .973-1.558 18.96 18.96 0 0 0 1.46-3.371 18.548 18.548 0 0 0 .778-3.586c.07-.61.11-1.223.12-1.836a19.176 19.176 0 0 0-.3-3.66 18.85 18.85 0 0 0-1.008-3.528 19 19 0 0 0-2.75-4.761 18.552 18.552 0 0 0-2.559-2.637 18.49 18.49 0 0 0-1.456-1.121l-.121-.082-15.5-10.543a18.633 18.633 0 0 0-2.621-1.488 18.731 18.731 0 0 0-11.79-1.356 18.6 18.6 0 0 0-2.89.856 18.486 18.486 0 0 0-5.188 3.03 18.723 18.723 0 0 1-5.152 3.024 18.51 18.51 0 0 1-2.871.86 18.603 18.603 0 0 1-5.969.3 18.693 18.693 0 0 1-8.375-3.059c-9.43-6.343-22.191-16.866-30.48-31.456a18.304 18.304 0 0 1-1.203-2.531 18.768 18.768 0 0 1-1.223-5.454 18.62 18.62 0 0 1 .441-5.566c.211-.914.489-1.805.836-2.676.344-.87.75-1.71 1.223-2.52.473-.808 1-1.581 1.586-2.312l3.988-4.95a18.846 18.846 0 0 0 2.274-3.593 18.554 18.554 0 0 0 1.402-4.015 18.551 18.551 0 0 0-.043-8.45Zm0 0"/></svg>