<svg xmlns="http://www.w3.org/2000/svg" width="500" height="500" version="1.0" viewBox="0 0 375 375"><defs><clipPath id="a"><path d="M76 14.063h100V144H76Zm0 0"/></clipPath><clipPath id="b"><path d="M51 146h265.773v214.879H51Zm0 0"/></clipPath></defs><path fill="#f9943b" d="M65.238 220.898a53.506 53.506 0 0 1 2.48-.207c9.024-1.203 16.973-5.59 23.055-12.336 4.93-5.378 8.157-11.875 10.02-19.492 1.57-5.96 1.863-12.625.871-19.207-1.492-13.16-6.664-25.578-15.484-36.504-2.774-3.476-5.961-6.953-9.559-9.972-8.031-6.832-16.27-10.723-25.164-12.875-5.879-1.157-11.34-1.57-17.055-.66-9.02 1.574-16.597 5.546-22.683 12.25-4.922 5.421-8.48 12.75-9.89 20.777-.907 4.223-1.364 8.402-1.036 12.543l.082 1.242c.125 1.242.207 2.48.336 3.723l.078 1.199c1.203 9.48 4.43 18.336 9.274 26.656 3.847 6.332 8.523 12.168 13.906 17.133 7.617 6.832 15.894 11.55 24.793 13.703 5.586 2.027 11.008 2.399 15.976 2.027"/><g clip-path="url(#a)"><path fill="#f9943b" d="M78.98 94.332c2.485 9.934 6.622 18.621 12 26.074 5.383 7.45 11.176 12.828 18.211 16.969 5.797 3.727 12.004 5.797 18.63 6.207h3.308c6.625 0 12.832-1.656 18.21-5.379 5.384-2.894 10.349-7.45 14.49-12.832 5.792-7.45 9.519-16.555 11.175-27.316.41-4.555.824-9.106.824-14.07 0-3.727-.414-7.45-.824-11.18-.828-6.618-2.484-12.828-4.969-19.035-4.137-10.348-9.933-19.04-17.383-25.66-5.382-4.97-11.175-8.696-17.382-10.762-7.864-2.899-15.73-3.313-23.594-1.246-7.45 1.656-14.07 5.796-19.864 12.007-4.968 5.38-8.28 11.172-11.18 18.207-2.894 8.278-4.55 16.973-4.55 26.907 0 1.652.414 3.312.414 5.793.414 4.968 1.242 10.347 2.484 15.316"/></g><path fill="#f9943b" d="M196.527 113.781c2.895 8.281 7.032 14.903 12.828 20.281 7.45 7.04 16.145 11.18 26.079 11.59h2.484c4.965 0 9.516-1.242 14.48-1.242 7.04-2.898 13.247-7.035 19.457-12.832 6.207-6.207 11.172-13.242 14.899-21.105 5.383-11.176 8.277-22.766 8.691-35.184 0-7.031-.414-14.07-2.07-20.281-2.066-8.692-4.965-15.727-9.516-21.934-7.453-10.347-17.386-16.14-28.976-17.797H244.535c-5.379.825-11.172 2.48-16.14 5.38-6.625 3.726-12.829 9.105-18.211 15.726-5.793 7.039-9.934 15.316-13.243 24.422-2.898 8.277-4.14 16.968-4.554 25.664 0 3.722 0 7.449.414 11.172.824 5.793 2.07 11.175 3.726 16.14"/><g clip-path="url(#b)"><path fill="#f9943b" d="M300.785 253.68a109.71 109.71 0 0 0-19.867-21.938c-5.379-4.965-10.762-10.347-15.313-16.14-4.968-6.207-9.523-12.832-13.246-18.625l-2.894-4.555c-2.899-4.555-5.797-8.688-8.695-13.242-4.551-6.625-8.692-12.004-13.247-16.14-7.863-7.454-16.964-12.419-27.312-14.903-6.625-1.657-13.66-2.07-20.281-2.07a46.217 46.217 0 0 0-18.211 3.726c-7.04 2.898-13.25 7.45-19.867 13.656a140.51 140.51 0 0 0-12.004 13.66c-4.141 5.38-7.864 10.758-11.59 16.141l-2.07 3.313c-4.965 6.62-9.934 14.07-15.727 20.695a157.773 157.773 0 0 1-14.074 14.484c-5.793 4.965-11.586 10.766-16.14 16.969a100.293 100.293 0 0 0-14.9 27.734c-2.07 6.621-3.312 13.243-3.726 19.868-.414 5.792 0 12 1.242 17.382 3.309 15.313 11.172 27.73 24.004 36.836 7.45 5.38 15.73 8.692 25.246 9.52 1.246.414 2.075.414 3.313.414h6.21c3.723 0 7.45-.414 10.348-.828 8.278-1.657 16.555-3.727 24.004-5.797h.414c7.036-1.652 14.075-3.723 21.11-4.965 2.898-.414 6.62-1.242 10.347-1.242 4.965 0 9.52 0 13.657.414 5.797.828 12.418 2.07 19.453 3.723 3.312.832 7.039 2.07 10.351 2.898 4.551 1.242 9.516 2.484 14.485 3.727 4.965 1.242 10.347 2.484 16.14 2.484h9.934c.828 0 1.242-.414 2.07-1.656 2.48 0 5.38-.414 7.863-1.243 6.622-1.656 13.247-4.554 19.454-9.105 8.277-5.793 14.902-13.246 19.039-21.938 4.55-9.519 6.62-19.453 6.207-30.625-.41-6.21-1.657-13.246-4.14-19.867-2.481-7.867-6.204-15.316-11.587-22.765"/></g><path fill="#f9943b" d="M373.176 142.672c-1.406-8.027-4.969-15.356-9.934-20.777-6.082-6.704-13.617-10.676-22.64-12.25-5.754-.91-11.176-.497-17.094.66-8.899 2.152-17.094 6.043-25.121 12.875-3.602 3.02-6.79 6.496-9.563 9.972-8.816 10.926-13.992 23.344-15.52 36.504-.952 6.582-.663 13.246.91 19.207 1.86 7.617 5.048 14.114 10.013 19.492 6.086 6.747 14.035 11.133 23.054 12.336.832.043 1.66.125 2.485.207 4.968.372 10.39 0 15.933-2.027 8.903-2.152 17.18-6.871 24.836-13.703 5.38-4.965 10.02-10.8 13.867-17.133 4.84-8.32 8.07-17.176 9.27-26.656l.125-1.2c.082-1.242.207-2.48.289-3.722l.125-1.242c.328-4.14-.168-8.32-1.035-12.543"/></svg>