<svg xmlns="http://www.w3.org/2000/svg" width="1366" height="1312" version="1.0" viewBox="0 0 1024.5 984"><defs><clipPath id="b"><path d="M0 545h1024v438.574H0Zm0 0"/></clipPath><clipPath id="c"><path d="M357 509h667v474.574H357Zm0 0"/></clipPath><clipPath id="d"><path d="M0 668h1024v315.574H0Zm0 0"/></clipPath><clipPath id="g"><path d="M0 .313h1024v315.261H0Zm0 0"/></clipPath><clipPath id="f"><path d="M0 0h1024v316H0z"/></clipPath><clipPath id="h"><path d="M199 724h825v259.574H199Zm0 0"/></clipPath><clipPath id="k"><path d="M1 .445h824v259.13H1Zm0 0"/></clipPath><clipPath id="j"><path d="M0 0h825v260H0z"/></clipPath><mask id="e"><g filter="url(#a)"><path fill-opacity=".42" d="M-102.45-98.4h1229.4v1180.8h-1229.4z"/></g></mask><mask id="i"><g filter="url(#a)"><path fill-opacity=".42" d="M-102.45-98.4h1229.4v1180.8h-1229.4z"/></g></mask><filter id="a" width="100%" height="100%" x="0%" y="0%"><feColorMatrix color-interpolation-filters="sRGB" values="0 0 0 0 1 0 0 0 0 1 0 0 0 0 1 0 0 0 1 0"/></filter></defs><g clip-path="url(#b)"><path fill="#dae7d5" d="M.082 619.754c366.902-216.399 715.211 103.121 826.77 187.691 111.554 84.567 197.066 113.235 197.066 113.235v63.07H.082Zm0 0"/></g><g clip-path="url(#c)"><path fill="#588947" d="M357.688 983.75c0-177.082 243.796-205.793 394.382-205.793s271.848-245.598 271.848-268.898V983.75Zm0 0"/></g><g clip-path="url(#d)" mask="url(#e)"><g clip-path="url(#f)" transform="translate(0 668)"><g clip-path="url(#g)"><path fill="#2a4a23" d="M.082 56.8C156.442 240.599 288.23 16.954 465.109 1.349c176.836-15.602 558.809 201.125 558.809 201.125V315.75H.082Zm0 0"/></g></g></g><g clip-path="url(#h)" mask="url(#i)"><g clip-path="url(#j)" transform="translate(199 724)"><g clip-path="url(#k)"><path fill="#2a4a23" d="M18.871 259.75S-45.672 112.766 72.645 22.426c118.312-90.344 432.02 131.949 543.164 126.543C726.957 143.605 824.918.8 824.918.8V259.75Zm0 0"/></g></g></g></svg>