<svg xmlns="http://www.w3.org/2000/svg" width="500" height="500" version="1.0" viewBox="0 0 375 375"><defs><clipPath id="a"><path d="M16 .57h343v374.25H16Zm0 0"/></clipPath></defs><g clip-path="url(#a)"><path fill="#f9943b" d="m288.387 126.61-98.692-56.985a4.831 4.831 0 0 0-4.832 0l-98.691 56.984a4.831 4.831 0 0 0-2.418 4.188v113.969c0 1.726.922 3.328 2.418 4.187l98.691 56.984a4.837 4.837 0 0 0 4.836 0l98.692-56.984a4.827 4.827 0 0 0 2.418-4.187v-113.97a4.836 4.836 0 0 0-2.418-4.187ZM187.28 182.2l-31.797-18.36 90.008-50.836 30.813 17.793-89.02 51.402Zm-54.664-20.4 8.207 4.743-.812 31.348-8.192-4.735.797-31.36Zm5.61-7.921 89.515-51.117 8.016 4.629-90.004 50.832-7.527-4.348Zm49.05-74.48 30.766 17.765-89.512 51.117-30.27-17.48 89.02-51.403Zm-93.851 59.777 29.656 17.125-1.004 39.488a4.848 4.848 0 0 0 2.414 4.309l17.723 10.242a4.843 4.843 0 0 0 2.426.644c.816 0 1.629-.203 2.363-.613a4.836 4.836 0 0 0 2.469-4.094l.886-34.234 32.086 18.527V293.38L93.43 241.973V139.168Zm98.691 154.207V190.574l89.012-51.398v102.808l-89.012 51.403Zm152.848-39.399c17.492-41.75 17.492-90.644 0-132.394 4.492-4.05 7.37-9.844 7.37-16.352 0-12.183-9.91-22.093-22.093-22.093-2.398 0-4.672.48-6.836 1.19-27.793-36.538-69.133-60.433-114.496-66.17C206.81 8.147 197.918.593 187.281.593c-10.636 0-19.531 7.55-21.629 17.57-45.363 5.742-86.707 29.633-114.504 66.172-2.16-.711-4.433-1.191-6.832-1.191-12.183 0-22.093 9.91-22.093 22.093 0 6.508 2.879 12.301 7.37 16.352-17.491 41.75-17.491 90.644 0 132.394-4.491 4.047-7.37 9.844-7.37 16.348 0 12.188 9.91 22.098 22.093 22.098 2.399 0 4.672-.48 6.832-1.196 27.801 36.543 69.141 60.438 114.504 66.176 2.098 10.02 10.996 17.567 21.625 17.567 10.63 0 19.524-7.547 21.621-17.567 45.368-5.742 86.711-29.633 114.504-66.176 2.164.715 4.434 1.196 6.828 1.196 12.184 0 22.098-9.91 22.098-22.098 0-6.504-2.879-12.3-7.371-16.348Zm-2.3-148.746c0 6.848-5.575 12.418-12.423 12.418-6.851 0-12.394-5.57-12.394-12.418 0-6.843 5.554-12.422 12.394-12.422 6.836 0 12.422 5.575 12.422 12.422ZM187.28 10.266c6.856 0 12.426 5.57 12.426 12.421 0 6.852-5.57 12.422-12.426 12.422-6.855 0-12.426-5.57-12.426-12.422 0-6.851 5.57-12.421 12.426-12.421ZM44.321 92.812c6.835 0 12.394 5.57 12.394 12.422s-5.555 12.418-12.395 12.418c-6.836 0-12.422-5.57-12.422-12.418 0-6.843 5.575-12.421 12.422-12.421ZM31.897 270.328c0-6.844 5.575-12.418 12.422-12.418 6.852 0 12.395 5.574 12.395 12.418 0 6.848-5.555 12.426-12.395 12.426-6.836 0-12.422-5.574-12.422-12.426Zm155.383 94.973c-6.855 0-12.426-5.574-12.426-12.426 0-6.848 5.57-12.422 12.426-12.422s12.426 5.574 12.426 12.422c0 6.852-5.57 12.426-12.426 12.426Zm21.418-17.617c-2.347-9.676-11.027-16.907-21.418-16.907-10.39 0-19.07 7.23-21.418 16.907-42.031-5.594-80.324-27.711-106.336-61.422 4.207-4.028 6.856-9.664 6.856-15.938 0-12.183-9.895-22.09-22.063-22.09-2.175 0-4.234.41-6.222 1.004-15.953-38.836-15.953-84.082 0-122.914 1.988.586 4.047 1.004 6.222 1.004 12.168 0 22.063-9.91 22.063-22.094 0-6.273-2.649-11.91-6.856-15.937 26.016-33.707 64.305-55.824 106.34-61.414 2.356 9.672 11.028 16.902 21.418 16.902 10.39 0 19.067-7.23 21.418-16.902 42.031 5.59 80.324 27.707 106.34 61.414-4.207 4.027-6.856 9.664-6.856 15.937 0 12.184 9.895 22.094 22.063 22.094 2.176 0 4.234-.414 6.223-1.004 15.957 38.832 15.957 84.078 0 122.914-1.989-.59-4.047-1.004-6.223-1.004-12.168 0-22.063 9.907-22.063 22.09 0 6.274 2.649 11.91 6.86 15.938-26.016 33.71-64.305 55.824-106.34 61.422Zm121.543-64.93c-6.836 0-12.394-5.574-12.394-12.426 0-6.848 5.554-12.418 12.394-12.418 6.836 0 12.422 5.574 12.422 12.418 0 6.848-5.574 12.426-12.422 12.426Zm0 0"/></g></svg>