<svg xmlns="http://www.w3.org/2000/svg" width="500" height="500" version="1.0" viewBox="0 0 375 375"><defs><clipPath id="a"><path d="M187.5 0C83.945 0 0 83.945 0 187.5S83.945 375 187.5 375 375 291.055 375 187.5 291.055 0 187.5 0Zm0 0"/></clipPath><clipPath id="b"><path d="M95.39 75h184.5v225H95.39Zm0 0"/></clipPath></defs><g clip-path="url(#a)"><path fill="#e28100" d="M-37.5-37.5h450v450h-450z"/></g><g clip-path="url(#b)"><path fill="#fff" d="m187.5 75-92.047 40.91v61.363c0 80.079 65.856 117.47 92.047 122.727 26.191-5.258 92.047-42.648 92.047-122.727V115.91Zm0 22.39 71.59 31.82v48.063c0 62.735-48.938 94.649-71.59 101.633-22.652-6.984-71.59-38.898-71.59-101.633v-48.062Zm49.02 47.102-59.247 59.227-28.343-28.344-14.465 14.46 42.808 42.81 73.688-73.711Zm0 0"/></g></svg>