<svg xmlns="http://www.w3.org/2000/svg" width="500" height="500" version="1.0" viewBox="0 0 375 375"><defs><clipPath id="a"><path d="M187.5 0C83.945 0 0 83.945 0 187.5S83.945 375 187.5 375 375 291.055 375 187.5 291.055 0 187.5 0m0 0"/></clipPath><clipPath id="b"><path d="M50.266 183H94v78.957H50.266Zm0 0"/></clipPath><clipPath id="c"><path d="M66 112.707h182V176H66Zm0 0"/></clipPath><clipPath id="d"><path d="M281 181h43.766v80H281Zm0 0"/></clipPath></defs><g clip-path="url(#a)"><path fill="#e28100" d="M-37.5-37.5h450v450h-450z"/></g><g clip-path="url(#b)"><path fill="#fff" d="M55.148 198.32v49.36c0 .804.653 1.453 1.454 1.453h30.62c.801 0 1.45-.649 1.45-1.453v-49.36c0-.8-.649-1.453-1.45-1.453h-30.62c-.801 0-1.454.653-1.454 1.453m37.895 24.676c0 10.277-.078 20.559.031 30.84.059 5.66-2.265 8.418-8.187 8.277-8.676-.215-17.36-.175-26.04-.015-5.843.105-8.312-2.711-8.3-8.32.027-20.79.027-41.579.004-62.368-.008-5.387 2.582-7.953 7.98-7.914 8.91.066 17.82.074 26.73 0 5.47-.047 7.864 2.555 7.81 7.973-.11 10.508-.032 21.02-.028 31.527"/></g><path fill="#fff" d="M208.918 213.813v15.125c0 1.43-1.16 2.593-2.594 2.593h-44.89c-.621 0-1.118.496-1.118 1.114v5.968c0 .614.493 1.11 1.106 1.11 3.652.015 7.36.054 11.07.109 1.203.02 2.938 1.234 3.477 2.352 2.14 4.418 3.988 8.98 5.969 13.64a.975.975 0 0 1-.895 1.356h-48.66a.973.973 0 0 1-.852-1.43c2.59-4.805 5.203-9.652 8.34-15.496.176-.32.516-.531.879-.531 4.035 0 8.375-.012 12.879-.012.613 0 1.117-.496 1.117-1.113v-5.953c0-.618-.5-1.114-1.117-1.114h-49.774a2.597 2.597 0 0 1-2.593-2.594v-15.125a2.597 2.597 0 0 1 2.593-2.593h102.47a2.595 2.595 0 0 1 2.593 2.594"/><g clip-path="url(#c)"><path fill="#fff" d="m66.742 175.578.219-.004c3.074 0 6.016-.031 9.266-.035.64 0 1.164-.52 1.164-1.16v-47.461a2.886 2.886 0 0 1 2.89-2.887h153.68a2.892 2.892 0 0 1 2.894 2.89V139c0 .219.18.402.403.402h9.695c.27 0 .488-.222.488-.492 0-5.965.008-11.488-.004-17.008-.011-6.215-3.218-9.183-9.355-9.183-54.082 0-108.168-.031-162.254.039-6.906.012-9.129 2.555-9.152 9.746-.051 15.976-.035 31.95.008 47.926.004 1.336-.028 2.691.039 4.011z"/></g><g clip-path="url(#d)"><path fill="#fff" d="M286.473 196.238v49.36a1.45 1.45 0 0 0 1.449 1.453h30.621a1.45 1.45 0 0 0 1.453-1.453v-49.36c0-.8-.648-1.453-1.453-1.453h-30.621c-.8 0-1.45.653-1.45 1.453m37.89 24.672c0 10.281-.074 20.563.032 30.844.058 5.66-2.262 8.418-8.184 8.273-8.676-.21-17.36-.172-26.04-.011-5.843.105-8.312-2.711-8.304-8.32.031-20.79.031-41.579.008-62.368-.008-5.387 2.582-7.953 7.98-7.914 8.91.066 17.82.074 26.727-.004 5.469-.047 7.867 2.559 7.813 7.977-.11 10.508-.032 21.02-.032 31.523"/></g><path fill="#fff" d="M270.293 245.05h.008c0-1.581.004-3.167.004-4.765z"/><path fill="#fff" d="M299.438 169.5a.38.38 0 0 1-.38.383c-1.703-.004-3.433-.012-5.18-.016a.391.391 0 0 1-.382-.383V159.13a3.856 3.856 0 0 0-3.855-3.856h-62.727a3.858 3.858 0 0 0-3.855 3.864v76.347a3.858 3.858 0 0 0 3.855 3.856h42.453a.94.94 0 0 1 .938.922v.023l-.012 4.766h.008l-.024 11.77a.942.942 0 0 1-.937.933 7420.91 7420.91 0 0 1-40.645-.04c-8.36-.034-11.566-3.222-11.582-11.64-.07-29.187-.07-58.383 0-87.566.024-8.149 3.055-11.32 11.106-11.375a4988.5 4988.5 0 0 1 60.203-.012c8.105.047 10.973 3.117 10.996 11.25.012 3.711.02 7.426.02 11.129"/></svg>